DaiBannaSIL-LightItalic.ufo
<glyph name="percent" format="2">
  <advance width="1386"/>
  <unicode hex="0025"/>
  <outline>
    <contour>
      <point x="227" y="-17" type="curve" smooth="yes"/>
      <point x="280" y="-17"/>
      <point x="290" y="-16"/>
      <point x="303" y="3" type="curve" smooth="yes"/>
      <point x="1311" y="1478" type="line" smooth="yes"/>
      <point x="1323" y="1496"/>
      <point x="1311" y="1498"/>
      <point x="1262" y="1498" type="curve" smooth="yes"/>
      <point x="1216" y="1498"/>
      <point x="1205" y="1497"/>
      <point x="1192" y="1478" type="curve" smooth="yes"/>
      <point x="179" y="3" type="line" smooth="yes"/>
      <point x="166" y="-16"/>
      <point x="172" y="-17"/>
    </contour>
    <contour>
      <point x="905" y="-17" type="curve" smooth="yes"/>
      <point x="1122" y="-17"/>
      <point x="1257" y="203"/>
      <point x="1257" y="401" type="curve" smooth="yes"/>
      <point x="1257" y="534"/>
      <point x="1189" y="668"/>
      <point x="1018" y="668" type="curve" smooth="yes"/>
      <point x="812" y="668"/>
      <point x="666" y="452"/>
      <point x="666" y="262" type="curve" smooth="yes"/>
      <point x="666" y="123"/>
      <point x="738" y="-17"/>
    </contour>
    <contour>
      <point x="910" y="64" type="curve" smooth="yes"/>
      <point x="848" y="64"/>
      <point x="799" y="124"/>
      <point x="799" y="225" type="curve" smooth="yes"/>
      <point x="799" y="348"/>
      <point x="867" y="587"/>
      <point x="1012" y="587" type="curve" smooth="yes"/>
      <point x="1081" y="587"/>
      <point x="1125" y="523"/>
      <point x="1125" y="421" type="curve" smooth="yes"/>
      <point x="1125" y="297"/>
      <point x="1063" y="64"/>
    </contour>
    <contour>
      <point x="456" y="813" type="curve" smooth="yes"/>
      <point x="673" y="813"/>
      <point x="808" y="1033"/>
      <point x="808" y="1231" type="curve" smooth="yes"/>
      <point x="808" y="1364"/>
      <point x="740" y="1498"/>
      <point x="569" y="1498" type="curve" smooth="yes"/>
      <point x="363" y="1498"/>
      <point x="217" y="1282"/>
      <point x="217" y="1092" type="curve" smooth="yes"/>
      <point x="217" y="953"/>
      <point x="289" y="813"/>
    </contour>
    <contour>
      <point x="462" y="894" type="curve" smooth="yes"/>
      <point x="400" y="894"/>
      <point x="351" y="954"/>
      <point x="351" y="1055" type="curve" smooth="yes"/>
      <point x="351" y="1178"/>
      <point x="418" y="1417"/>
      <point x="563" y="1417" type="curve" smooth="yes"/>
      <point x="632" y="1417"/>
      <point x="677" y="1353"/>
      <point x="677" y="1251" type="curve" smooth="yes"/>
      <point x="677" y="1127"/>
      <point x="615" y="894"/>
    </contour>
  </outline>
</glyph>
<glyph name="quotesingle" format="2">
  <advance width="412"/>
  <unicode hex="0027"/>
  <outline>
    <contour>
      <point x="239" y="830" type="line" smooth="yes"/>
      <point x="239" y="816"/>
      <point x="289" y="814"/>
      <point x="294" y="830" type="curve" smooth="yes"/>
      <point x="408" y="1154" type="line" smooth="yes"/>
      <point x="447" y="1264"/>
      <point x="462" y="1308"/>
      <point x="468" y="1339" type="curve" smooth="yes"/>
      <point x="481" y="1403"/>
      <point x="460" y="1457"/>
      <point x="390" y="1457" type="curve" smooth="yes"/>
      <point x="318" y="1457"/>
      <point x="279" y="1417"/>
      <point x="261" y="1323" type="curve" smooth="yes"/>
      <point x="254" y="1288"/>
      <point x="259" y="1248"/>
      <point x="254" y="1154" type="curve" smooth="yes"/>
    </contour>
  </outline>
</glyph>
<glyph name="parenright" format="2">
  <advance width="705"/>
  <unicode hex="0029"/>
  <outline>
    <contour>
      <point x="-316" y="-621" type="curve" smooth="yes"/>
      <point x="-301" y="-631"/>
      <point x="-244" y="-621"/>
      <point x="-183" y="-590" type="curve" smooth="yes"/>
      <point x="344" y="-324"/>
      <point x="588" y="283"/>
      <point x="588" y="851" type="curve" smooth="yes"/>
      <point x="588" y="1263"/>
      <point x="420" y="1497"/>
      <point x="239" y="1582" type="curve" smooth="yes"/>
      <point x="186" y="1607"/>
      <point x="132" y="1608"/>
      <point x="114" y="1596" type="curve" smooth="yes"/>
      <point x="102" y="1588"/>
      <point x="110" y="1570"/>
      <point x="178" y="1541" type="curve" smooth="yes"/>
      <point x="297" y="1491"/>
      <point x="443" y="1262"/>
      <point x="443" y="866" type="curve" smooth="yes"/>
      <point x="443" y="405"/>
      <point x="193" y="-360"/>
      <point x="-231" y="-559" type="curve" smooth="yes"/>
      <point x="-309" y="-596"/>
      <point x="-326" y="-615"/>
    </contour>
  </outline>
</glyph>
<glyph name="plus" format="2">
  <advance width="708"/>
  <unicode hex="002B"/>
  <outline>
    <contour>
      <point x="463" y="801" type="line"/>
      <point x="442" y="823" type="line"/>
      <point x="418" y="817"/>
      <point x="372" y="803"/>
      <point x="350" y="795" type="curve"/>
      <point x="272" y="235" type="line"/>
      <point x="293" y="213" type="line"/>
      <point x="319" y="218"/>
      <point x="361" y="231"/>
      <point x="384" y="242" type="curve"/>
    </contour>
    <contour>
      <point x="662" y="549" type="curve"/>
      <point x="645" y="571" type="line"/>
      <point x="105" y="571" type="line"/>
      <point x="92" y="547"/>
      <point x="76" y="512"/>
      <point x="68" y="487" type="curve"/>
      <point x="85" y="465" type="line"/>
      <point x="626" y="465" type="line"/>
      <point x="638" y="485"/>
      <point x="655" y="524"/>
    </contour>
  </outline>
</glyph>
<glyph name="slash" format="2">
  <advance width="753"/>
  <unicode hex="002F"/>
  <outline>
    <contour>
      <point x="868" y="1450" type="line"/>
      <point x="839" y="1471" type="line"/>
      <point x="804" y="1461"/>
      <point x="762" y="1447"/>
      <point x="729" y="1426" type="curve"/>
      <point x="-102" y="-286" type="line"/>
      <point x="-75" y="-309" type="line"/>
      <point x="-45" y="-299"/>
      <point x="14" y="-278"/>
      <point x="39" y="-262" type="curve"/>
    </contour>
  </outline>
</glyph>
<glyph name="zero" format="2">
  <advance width="956"/>
  <unicode hex="0030"/>
  <outline>
    <contour>
      <point x="385" y="-17" type="curve" smooth="yes"/>
      <point x="816" y="-17"/>
      <point x="957" y="735"/>
      <point x="957" y="1083" type="curve" smooth="yes"/>
      <point x="957" y="1320"/>
      <point x="878" y="1498"/>
      <point x="659" y="1498" type="curve" smooth="yes"/>
      <point x="253" y="1498"/>
      <point x="94" y="779"/>
      <point x="94" y="442" type="curve" smooth="yes"/>
      <point x="94" y="194"/>
      <point x="172" y="-17"/>
    </contour>
    <contour>
      <point x="390" y="64" type="curve" smooth="yes"/>
      <point x="272" y="64"/>
      <point x="220" y="191"/>
      <point x="220" y="413" type="curve" smooth="yes"/>
      <point x="220" y="673"/>
      <point x="358" y="1417"/>
      <point x="653" y="1417" type="curve" smooth="yes"/>
      <point x="771" y="1417"/>
      <point x="827" y="1297"/>
      <point x="827" y="1086" type="curve" smooth="yes"/>
      <point x="827" y="820"/>
      <point x="693" y="64"/>
    </contour>
  </outline>
</glyph>
<glyph name="four" format="2">
  <advance width="956"/>
  <unicode hex="0034"/>
  <outline>
    <contour>
      <point x="585" y="-17" type="curve" smooth="yes"/>
      <point x="637" y="-17"/>
      <point x="657" y="-17"/>
      <point x="665" y="24" type="curve" smooth="yes"/>
      <point x="671" y="55"/>
      <point x="701" y="223"/>
      <point x="734" y="409" type="curve"/>
      <point x="777" y="411"/>
      <point x="812" y="415"/>
      <point x="845" y="421" type="curve" smooth="yes"/>
      <point x="857" y="423"/>
      <point x="860" y="443"/>
      <point x="861" y="490" type="curve" smooth="yes"/>
      <point x="862" y="532"/>
      <point x="851" y="537"/>
      <point x="842" y="534" type="curve" smooth="yes"/>
      <point x="815" y="524"/>
      <point x="784" y="516"/>
      <point x="751" y="510" type="curve"/>
      <point x="768" y="605"/>
      <point x="786" y="700"/>
      <point x="801" y="779" type="curve" smooth="yes"/>
      <point x="852" y="1043"/>
      <point x="927" y="1389"/>
      <point x="938" y="1447" type="curve" smooth="yes"/>
      <point x="946" y="1488"/>
      <point x="924" y="1488"/>
      <point x="874" y="1488" type="curve" smooth="yes"/>
      <point x="824" y="1488"/>
      <point x="808" y="1482"/>
      <point x="800" y="1457" type="curve" smooth="yes"/>
      <point x="785" y="1412"/>
      <point x="689" y="1329"/>
      <point x="416" y="1002" type="curve" smooth="yes"/>
      <point x="210" y="756"/>
      <point x="124" y="633"/>
      <point x="92" y="467" type="curve" smooth="yes"/>
      <point x="83" y="420"/>
      <point x="103" y="405"/>
      <point x="149" y="405" type="curve" smooth="yes"/>
      <point x="601" y="405" type="line" name="hr01"/>
      <point x="562" y="220"/>
      <point x="527" y="55"/>
      <point x="521" y="24" type="curve" smooth="yes"/>
      <point x="513" y="-17"/>
      <point x="533" y="-17"/>
    </contour>
    <contour>
      <point x="257" y="495" type="line" smooth="yes"/>
      <point x="235" y="495"/>
      <point x="235" y="516"/>
      <point x="240" y="541" type="curve" smooth="yes"/>
      <point x="260" y="644"/>
      <point x="295" y="726"/>
      <point x="463" y="932" type="curve" smooth="yes"/>
      <point x="603" y="1103"/>
      <point x="698" y="1206"/>
      <point x="766" y="1273" type="curve"/>
      <point x="742" y="1132"/>
      <point x="708" y="939"/>
      <point x="677" y="779" type="curve" smooth="yes"/>
      <point x="661" y="696"/>
      <point x="641" y="595"/>
      <point x="620" y="495" type="curve"/>
    </contour>
  </outline>
</glyph>
<glyph name="seven" format="2">
  <advance width="956"/>
  <unicode hex="0037"/>
  <outline>
    <contour>
      <point x="210" y="-4" type="curve" smooth="yes"/>
      <point x="275" y="-22"/>
      <point x="285" y="-22"/>
      <point x="289" y="0" type="curve" smooth="yes"/>
      <point x="305" y="83"/>
      <point x="406" y="390"/>
      <point x="632" y="733" type="curve" smooth="yes"/>
      <point x="960" y="1230"/>
      <point x="1030" y="1309"/>
      <point x="1044" y="1381" type="curve" smooth="yes"/>
      <point x="1048" y="1404"/>
      <point x="1049" y="1414"/>
      <point x="1048" y="1433" type="curve" smooth="yes"/>
      <point x="1045" y="1485"/>
      <point x="1040" y="1491"/>
      <point x="1023" y="1491" type="curve" smooth="yes"/>
      <point x="578" y="1491" type="line" smooth="yes"/>
      <point x="438" y="1491"/>
      <point x="353" y="1490"/>
      <point x="271" y="1474" type="curve" smooth="yes"/>
      <point x="259" y="1472"/>
      <point x="255" y="1452"/>
      <point x="254" y="1405" type="curve" smooth="yes"/>
      <point x="253" y="1363"/>
      <point x="263" y="1348"/>
      <point x="272" y="1351" type="curve" smooth="yes"/>
      <point x="356" y="1382"/>
      <point x="438" y="1401"/>
      <point x="530" y="1401" type="curve" smooth="yes"/>
      <point x="878" y="1401" type="line" smooth="yes"/>
      <point x="900" y="1401"/>
      <point x="901" y="1389"/>
      <point x="898" y="1371" type="curve" smooth="yes"/>
      <point x="888" y="1317"/>
      <point x="863" y="1242"/>
      <point x="558" y="780" type="curve" smooth="yes"/>
      <point x="354" y="471"/>
      <point x="177" y="138"/>
      <point x="150" y="54" type="curve" smooth="yes"/>
      <point x="142" y="30"/>
      <point x="156" y="11"/>
    </contour>
  </outline>
</glyph>
<glyph name="nine" format="2">
  <advance width="956"/>
  <unicode hex="0039"/>
  <outline>
    <contour>
      <point x="363" y="-17" type="curve" smooth="yes"/>
      <point x="771" y="-17"/>
      <point x="963" y="738"/>
      <point x="963" y="1082" type="curve" smooth="yes"/>
      <point x="963" y="1356"/>
      <point x="847" y="1499"/>
      <point x="659" y="1499" type="curve" smooth="yes"/>
      <point x="350" y="1499"/>
      <point x="167" y="1184"/>
      <point x="167" y="905" type="curve" smooth="yes"/>
      <point x="167" y="700"/>
      <point x="290" y="574"/>
      <point x="510" y="574" type="curve" smooth="yes"/>
      <point x="629" y="574"/>
      <point x="718" y="643"/>
      <point x="779" y="712" type="curve"/>
      <point x="690" y="305"/>
      <point x="533" y="64"/>
      <point x="336" y="64" type="curve" smooth="yes"/>
      <point x="238" y="64"/>
      <point x="167" y="160"/>
      <point x="135" y="227" type="curve" smooth="yes"/>
      <point x="130" y="237"/>
      <point x="109" y="231"/>
      <point x="76" y="190" type="curve" smooth="yes"/>
      <point x="37" y="142"/>
      <point x="32" y="134"/>
      <point x="47" y="115" type="curve" smooth="yes"/>
      <point x="97" y="53"/>
      <point x="182" y="-17"/>
    </contour>
    <contour>
      <point x="505" y="655" type="curve" smooth="yes"/>
      <point x="384" y="655"/>
      <point x="301" y="749"/>
      <point x="301" y="905" type="curve" smooth="yes"/>
      <point x="301" y="1101"/>
      <point x="431" y="1418"/>
      <point x="654" y="1418" type="curve" smooth="yes"/>
      <point x="762" y="1418"/>
      <point x="825" y="1295"/>
      <point x="825" y="1049" type="curve" smooth="yes"/>
      <point x="825" y="1020"/>
      <point x="822" y="990"/>
      <point x="819" y="957" type="curve"/>
      <point x="747" y="782"/>
      <point x="628" y="655"/>
    </contour>
  </outline>
</glyph>
<glyph name="colon" format="2">
  <advance width="379"/>
  <unicode hex="003A"/>
  <outline>
    <contour>
      <point x="205" y="582" type="curve" smooth="yes"/>
      <point x="283" y="582"/>
      <point x="330" y="668"/>
      <point x="330" y="735" type="curve" smooth="yes"/>
      <point x="330" y="791"/>
      <point x="290" y="830"/>
      <point x="253" y="830" type="curve" smooth="yes"/>
      <point x="175" y="830"/>
      <point x="128" y="753"/>
      <point x="128" y="684" type="curve" smooth="yes"/>
      <point x="128" y="626"/>
      <point x="161" y="582"/>
    </contour>
    <contour>
      <point x="85" y="-18" type="curve" smooth="yes"/>
      <point x="163" y="-18"/>
      <point x="210" y="68"/>
      <point x="210" y="135" type="curve" smooth="yes"/>
      <point x="210" y="191"/>
      <point x="170" y="230"/>
      <point x="133" y="230" type="curve" smooth="yes"/>
      <point x="55" y="230"/>
      <point x="8" y="153"/>
      <point x="8" y="84" type="curve" smooth="yes"/>
      <point x="8" y="26"/>
      <point x="41" y="-18"/>
    </contour>
  </outline>
</glyph>
<glyph name="equal" format="2">
  <advance width="772"/>
  <unicode hex="003D"/>
  <outline>
    <contour>
      <point x="703" y="410" type="curve"/>
      <point x="687" y="432" type="line"/>
      <point x="83" y="432" type="line"/>
      <point x="70" y="408"/>
      <point x="55" y="373"/>
      <point x="46" y="348" type="curve"/>
      <point x="63" y="326" type="line"/>
      <point x="667" y="326" type="line"/>
      <point x="678" y="346"/>
      <point x="696" y="385"/>
    </contour>
    <contour>
      <point x="740" y="686" type="curve"/>
      <point x="724" y="708" type="line"/>
      <point x="120" y="708" type="line"/>
      <point x="107" y="684"/>
      <point x="92" y="649"/>
      <point x="82" y="624" type="curve"/>
      <point x="100" y="602" type="line"/>
      <point x="704" y="602" type="line"/>
      <point x="715" y="622"/>
      <point x="733" y="661"/>
    </contour>
  </outline>
</glyph>
<glyph name="H" format="2">
  <advance width="1136"/>
  <unicode hex="0048"/>
  <anchor x="198" y="0" name="H"/>
  <anchor x="498" y="-92" name="L"/>
  <anchor x="678" y="1214" name="U"/>
  <outline>
    <contour>
      <point x="1183" y="1159" type="line"/>
      <point x="804" y="1159" type="line"/>
      <point x="800" y="1119" type="line"/>
      <point x="877" y="1102"/>
      <point x="915" y="1077"/>
      <point x="913" y="1062" type="curve" smooth="yes"/>
      <point x="780" y="95" type="line" smooth="yes"/>
      <point x="778" y="79"/>
      <point x="729" y="56"/>
      <point x="652" y="39" type="curve"/>
      <point x="645" y="0" type="line"/>
      <point x="1023" y="0" type="line"/>
      <point x="1028" y="39" type="line"/>
      <point x="949" y="56"/>
      <point x="911" y="80"/>
      <point x="913" y="95" type="curve" smooth="yes"/>
      <point x="1047" y="1062" type="line" smooth="yes"/>
      <point x="1049" y="1080"/>
      <point x="1100" y="1102"/>
      <point x="1177" y="1119" type="curve"/>
    </contour>
    <contour>
      <point x="872" y="648" type="line"/>
      <point x="320" y="648" type="line"/>
      <point x="307" y="564" type="line"/>
      <point x="861" y="564" type="line"/>
    </contour>
    <contour>
      <point x="537" y="1159" type="line"/>
      <point x="160" y="1159" type="line"/>
      <point x="154" y="1119" type="line"/>
      <point x="233" y="1102"/>
      <point x="271" y="1077"/>
      <point x="269" y="1062" type="curve" smooth="yes"/>
      <point x="135" y="95" type="line" smooth="yes"/>
      <point x="133" y="79"/>
      <point x="82" y="56"/>
      <point x="5" y="39" type="curve"/>
      <point x="0" y="0" type="line"/>
      <point x="377" y="0" type="line"/>
      <point x="382" y="39" type="line"/>
      <point x="305" y="56"/>
      <point x="265" y="80"/>
      <point x="269" y="95" type="curve"/>
      <point x="401" y="1062" type="line"/>
      <point x="404" y="1080"/>
      <point x="454" y="1102"/>
      <point x="531" y="1119" type="curve"/>
    </contour>
  </outline>
</glyph>
<glyph name="J" format="2">
  <advance width="531"/>
  <unicode hex="004A"/>
  <anchor x="147" y="-552" name="L"/>
  <anchor x="395" y="1214" name="U"/>
  <outline>
    <contour>
      <point x="578" y="1159" type="line"/>
      <point x="158" y="1159" type="line"/>
      <point x="154" y="1119" type="line"/>
      <point x="286" y="1098"/>
      <point x="312" y="1077"/>
      <point x="310" y="1062" type="curve" smooth="yes"/>
      <point x="181" y="122" type="line" smooth="yes"/>
      <point x="141" y="-165"/>
      <point x="48" y="-237"/>
      <point x="-9" y="-237" type="curve" smooth="yes"/>
      <point x="-84" y="-237"/>
      <point x="-107" y="-184"/>
      <point x="-131" y="-184" type="curve" smooth="yes"/>
      <point x="-161" y="-184"/>
      <point x="-242" y="-252"/>
      <point x="-242" y="-276" type="curve" smooth="yes"/>
      <point x="-242" y="-298"/>
      <point x="-183" y="-350"/>
      <point x="-115" y="-350" type="curve" smooth="yes"/>
      <point x="-71" y="-350"/>
      <point x="25" y="-317"/>
      <point x="92" y="-265" type="curve" smooth="yes"/>
      <point x="192" y="-187"/>
      <point x="281" y="-102"/>
      <point x="322" y="188" type="curve" smooth="yes"/>
      <point x="442" y="1062" type="line" smooth="yes"/>
      <point x="445" y="1080"/>
      <point x="495" y="1102"/>
      <point x="573" y="1119" type="curve"/>
    </contour>
  </outline>
</glyph>
<glyph name="M" format="2">
  <advance width="1390"/>
  <unicode hex="004D"/>
  <anchor x="1099" y="0" name="H"/>
  <anchor x="632" y="-92" name="L"/>
  <anchor x="812" y="1214" name="U"/>
  <outline>
    <contour>
      <point x="1294" y="39" type="line"/>
      <point x="1215" y="56"/>
      <point x="1173" y="80"/>
      <point x="1175" y="95" type="curve" smooth="yes"/>
      <point x="1290" y="1116" type="line"/>
      <point x="1161" y="1064" type="line"/>
      <point x="1051" y="95" type="line" smooth="yes"/>
      <point x="1049" y="79"/>
      <point x="994" y="56"/>
      <point x="917" y="39" type="curve"/>
      <point x="911" y="0" type="line"/>
      <point x="1288" y="0" type="line"/>
    </contour>
    <contour>
      <point x="1413" y="1159" type="line"/>
      <point x="1173" y="1159" type="line" smooth="yes"/>
      <point x="1152" y="1159"/>
      <point x="1143" y="1147"/>
      <point x="1109" y="1081" type="curve" smooth="yes"/>
      <point x="678" y="241" type="line" smooth="yes"/>
      <point x="657" y="201"/>
      <point x="645" y="154"/>
      <point x="652" y="0" type="curve"/>
      <point x="654" y="0" type="line"/>
      <point x="1152" y="977" type="line" smooth="yes"/>
      <point x="1189" y="1050"/>
      <point x="1334" y="1119"/>
      <point x="1409" y="1119" type="curve"/>
    </contour>
    <contour>
      <point x="691" y="242" type="curve"/>
      <point x="458" y="1081" type="line"/>
      <point x="440" y="1147"/>
      <point x="437" y="1159"/>
      <point x="416" y="1159" type="curve" smooth="yes"/>
      <point x="172" y="1159" type="line"/>
      <point x="167" y="1119" type="line"/>
      <point x="228" y="1119"/>
      <point x="328" y="1087"/>
      <point x="357" y="976" type="curve" smooth="yes"/>
      <point x="616" y="0" type="line"/>
      <point x="652" y="0" type="line"/>
      <point x="699" y="154"/>
      <point x="701" y="205"/>
    </contour>
    <contour>
      <point x="384" y="1123" type="line"/>
      <point x="284" y="1100" type="line"/>
      <point x="138" y="95" type="line" smooth="yes"/>
      <point x="135" y="79"/>
      <point x="88" y="56"/>
      <point x="9" y="39" type="curve"/>
      <point x="3" y="0" type="line"/>
      <point x="343" y="0" type="line"/>
      <point x="348" y="39" type="line"/>
      <point x="269" y="56"/>
      <point x="233" y="80"/>
      <point x="235" y="95" type="curve" smooth="yes"/>
    </contour>
  </outline>
</glyph>
<glyph name="P" format="2">
  <advance width="887"/>
  <unicode hex="0050"/>
  <anchor x="365" y="-92" name="L"/>
  <anchor x="544" y="1214" name="U"/>
  <outline>
    <contour>
      <point x="897" y="866" type="curve"/>
      <point x="897" y="1077"/>
      <point x="749" y="1186"/>
      <point x="514" y="1186" type="curve" smooth="yes"/>
      <point x="346" y="1186"/>
      <point x="231" y="1164"/>
      <point x="129" y="1127" type="curve"/>
      <point x="129" y="1071" type="line"/>
      <point x="258" y="1104"/>
      <point x="341" y="1109"/>
      <point x="456" y="1109" type="curve" smooth="yes"/>
      <point x="621" y="1109"/>
      <point x="764" y="1037"/>
      <point x="764" y="832" type="curve" smooth="yes"/>
      <point x="764" y="672"/>
      <point x="652" y="561"/>
      <point x="489" y="561" type="curve" smooth="yes"/>
      <point x="449" y="561"/>
      <point x="408" y="575"/>
      <point x="367" y="591" type="curve"/>
      <point x="377" y="523" type="line"/>
      <point x="410" y="505"/>
      <point x="461" y="492"/>
      <point x="508" y="492" type="curve" smooth="yes"/>
      <point x="723" y="492"/>
      <point x="897" y="657"/>
    </contour>
    <contour>
      <point x="414" y="1159" type="line"/>
      <point x="280" y="1159" type="line"/>
      <point x="135" y="95" type="line" smooth="yes"/>
      <point x="133" y="79"/>
      <point x="82" y="56"/>
      <point x="5" y="39" type="curve"/>
      <point x="0" y="0" type="line"/>
      <point x="402" y="0" type="line"/>
      <point x="408" y="39" type="line"/>
      <point x="293" y="60"/>
      <point x="267" y="80"/>
      <point x="269" y="95" type="curve" smooth="yes"/>
    </contour>
  </outline>
</glyph>
<glyph name="V" format="2">
  <advance width="1116"/>
  <unicode hex="0056"/>
  <anchor x="512" y="0" name="H"/>
  <anchor x="494" y="-92" name="L"/>
  <anchor x="480" y="0" name="O"/>
  <anchor x="674" y="1214" name="U"/>
  <outline>
    <contour>
      <point x="1200" y="1159" type="line"/>
      <point x="851" y="1159" type="line"/>
      <point x="846" y="1119" type="line"/>
      <point x="934" y="1107"/>
      <point x="976" y="1094"/>
      <point x="958" y="1058" type="curve" smooth="yes"/>
      <point x="553" y="179" type="line"/>
      <point x="379" y="1058" type="line" smooth="yes"/>
      <point x="370" y="1096"/>
      <point x="406" y="1113"/>
      <point x="494" y="1119" type="curve"/>
      <point x="499" y="1159" type="line"/>
      <point x="133" y="1159" type="line"/>
      <point x="127" y="1119" type="line"/>
      <point x="199" y="1109"/>
      <point x="230" y="1091"/>
      <point x="235" y="1058" type="curve" smooth="yes"/>
      <point x="456" y="-28" type="line"/>
      <point x="485" y="-21"/>
      <point x="571" y="0"/>
      <point x="595" y="54" type="curve" smooth="yes"/>
      <point x="1055" y="1058" type="line"/>
      <point x="1071" y="1092"/>
      <point x="1116" y="1104"/>
      <point x="1194" y="1119" type="curve"/>
    </contour>
  </outline>
</glyph>
<glyph name="W" format="2">
  <advance width="1445"/>
  <unicode hex="0057"/>
  <anchor x="658" y="-92" name="L"/>
  <anchor x="838" y="1214" name="U"/>
  <outline>
    <contour>
      <point x="1535" y="1159" type="line"/>
      <point x="1181" y="1159" type="line"/>
      <point x="1175" y="1119" type="line"/>
      <point x="1251" y="1105"/>
      <point x="1305" y="1091"/>
      <point x="1296" y="1062" type="curve" smooth="yes"/>
      <point x="1026" y="233" type="line"/>
      <point x="861" y="1159" type="line"/>
      <point x="810" y="1159" type="line"/>
      <point x="408" y="233" type="line"/>
      <point x="354" y="1055" type="line" smooth="yes"/>
      <point x="352" y="1081"/>
      <point x="370" y="1107"/>
      <point x="478" y="1119" type="curve"/>
      <point x="483" y="1159" type="line"/>
      <point x="124" y="1159" type="line"/>
      <point x="118" y="1119" type="line"/>
      <point x="197" y="1104"/>
      <point x="224" y="1085"/>
      <point x="226" y="1055" type="curve" smooth="yes"/>
      <point x="293" y="-28" type="line"/>
      <point x="323" y="-21"/>
      <point x="404" y="-1"/>
      <point x="429" y="54" type="curve" smooth="yes"/>
      <point x="782" y="870" type="line"/>
      <point x="934" y="-28" type="line"/>
      <point x="965" y="-21"/>
      <point x="1042" y="0"/>
      <point x="1060" y="54" type="curve" smooth="yes"/>
      <point x="1391" y="1062" type="line" smooth="yes"/>
      <point x="1402" y="1092"/>
      <point x="1460" y="1102"/>
      <point x="1531" y="1119" type="curve"/>
    </contour>
  </outline>
</glyph>
<glyph name="X" format="2">
  <advance width="1077"/>
  <unicode hex="0058"/>
  <anchor x="477" y="-92" name="L"/>
  <anchor x="655" y="1214" name="U"/>
  <outline>
    <contour>
      <point x="1105" y="1159" type="line"/>
      <point x="727" y="1159" type="line"/>
      <point x="721" y="1119" type="line"/>
      <point x="819" y="1111"/>
      <point x="862" y="1098"/>
      <point x="823" y="1042" type="curve" smooth="yes"/>
      <point x="579" y="694" type="line"/>
      <point x="617" y="589" type="line"/>
      <point x="936" y="1042" type="line" smooth="yes"/>
      <point x="974" y="1094"/>
      <point x="1019" y="1109"/>
      <point x="1100" y="1119" type="curve"/>
    </contour>
    <contour>
      <point x="1004" y="39" type="line"/>
      <point x="940" y="48"/>
      <point x="905" y="64"/>
      <point x="879" y="116" type="curve" smooth="yes"/>
      <point x="422" y="1042" type="line" smooth="yes"/>
      <point x="395" y="1096"/>
      <point x="427" y="1109"/>
      <point x="523" y="1119" type="curve"/>
      <point x="529" y="1159" type="line"/>
      <point x="150" y="1159" type="line"/>
      <point x="145" y="1119" type="line"/>
      <point x="218" y="1107"/>
      <point x="241" y="1096"/>
      <point x="269" y="1042" type="curve"/>
      <point x="724" y="116" type="line"/>
      <point x="749" y="68"/>
      <point x="724" y="50"/>
      <point x="625" y="39" type="curve"/>
      <point x="620" y="0" type="line"/>
      <point x="998" y="0" type="line"/>
    </contour>
    <contour>
      <point x="544" y="519" type="line"/>
      <point x="502" y="624" type="line"/>
      <point x="150" y="116" type="line"/>
      <point x="116" y="66"/>
      <point x="60" y="45"/>
      <point x="-12" y="39" type="curve"/>
      <point x="-18" y="0" type="line"/>
      <point x="359" y="0" type="line"/>
      <point x="365" y="39" type="line"/>
      <point x="264" y="46"/>
      <point x="226" y="62"/>
      <point x="264" y="116" type="curve" smooth="yes"/>
    </contour>
  </outline>
</glyph>
<glyph name="grave" format="2">
  <advance width="557"/>
  <unicode hex="0060"/>
  <anchor x="484" y="1260" name="U"/>
  <outline>
    <contour>
      <point x="519" y="963" type="curve"/>
      <point x="391" y="1342" type="line"/>
      <point x="360" y="1342"/>
      <point x="291" y="1337"/>
      <point x="262" y="1332" type="curve"/>
      <point x="232" y="1299" type="line"/>
      <point x="462" y="943" type="line"/>
      <point x="484" y="944"/>
      <point x="494" y="948"/>
    </contour>
  </outline>
</glyph>
<glyph name="a" format="2">
  <advance width="848"/>
  <unicode hex="0061"/>
  <anchor x="338" y="0" name="H"/>
  <anchor x="368" y="-92" name="L"/>
  <anchor x="665" y="0" name="O"/>
  <anchor x="858" y="800" name="R"/>
  <anchor x="506" y="920" name="U"/>
  <outline>
    <contour>
      <point x="828" y="62" type="curve"/>
      <point x="817" y="95" type="line"/>
      <point x="769" y="75"/>
      <point x="736" y="69"/>
      <point x="712" y="69" type="curve" smooth="yes"/>
      <point x="683" y="69"/>
      <point x="667" y="116"/>
      <point x="667" y="256" type="curve" smooth="yes"/>
      <point x="667" y="310"/>
      <point x="695" y="523"/>
      <point x="733" y="699" type="curve" smooth="yes"/>
      <point x="749" y="782"/>
      <point x="760" y="794"/>
      <point x="802" y="828" type="curve"/>
      <point x="783" y="861" type="line"/>
      <point x="701" y="821"/>
      <point x="621" y="764"/>
      <point x="609" y="708" type="curve" smooth="yes"/>
      <point x="597" y="636"/>
      <point x="539" y="329"/>
      <point x="539" y="258" type="curve" smooth="yes"/>
      <point x="539" y="12"/>
      <point x="578" y="-37"/>
      <point x="623" y="-37" type="curve" smooth="yes"/>
      <point x="659" y="-37"/>
      <point x="723" y="-7"/>
    </contour>
    <contour>
      <point x="746" y="778" type="curve"/>
      <point x="702" y="783"/>
      <point x="636" y="861"/>
      <point x="553" y="861" type="curve" smooth="yes"/>
      <point x="478" y="861"/>
      <point x="380" y="819"/>
      <point x="314" y="774" type="curve" smooth="yes"/>
      <point x="141" y="655"/>
      <point x="48" y="474"/>
      <point x="48" y="280" type="curve" smooth="yes"/>
      <point x="48" y="50"/>
      <point x="163" y="-37"/>
      <point x="244" y="-37" type="curve" smooth="yes"/>
      <point x="348" y="-37"/>
      <point x="482" y="145"/>
      <point x="542" y="256" type="curve"/>
      <point x="566" y="420" type="line"/>
      <point x="497" y="273"/>
      <point x="367" y="88"/>
      <point x="305" y="88" type="curve" smooth="yes"/>
      <point x="231" y="88"/>
      <point x="174" y="190"/>
      <point x="174" y="348" type="curve" smooth="yes"/>
      <point x="174" y="494"/>
      <point x="291" y="764"/>
      <point x="460" y="764" type="curve" smooth="yes"/>
      <point x="561" y="764"/>
      <point x="634" y="663"/>
      <point x="667" y="663" type="curve" smooth="yes"/>
      <point x="699" y="663"/>
      <point x="693" y="742"/>
    </contour>
  </outline>
</glyph>
<glyph name="c" format="2">
  <advance width="731"/>
  <unicode hex="0063"/>
  <anchor x="324" y="0" name="H"/>
  <anchor x="349" y="-92" name="L"/>
  <anchor x="800" y="800" name="R"/>
  <anchor x="487" y="920" name="U"/>
  <outline>
    <contour>
      <point x="747" y="749" type="curve"/>
      <point x="710" y="762"/>
      <point x="650" y="861"/>
      <point x="542" y="861" type="curve" smooth="yes"/>
      <point x="467" y="861"/>
      <point x="361" y="819"/>
      <point x="293" y="774" type="curve" smooth="yes"/>
      <point x="113" y="654"/>
      <point x="48" y="461"/>
      <point x="48" y="296" type="curve" smooth="yes"/>
      <point x="48" y="37"/>
      <point x="190" y="-37"/>
      <point x="273" y="-37" type="curve" smooth="yes"/>
      <point x="361" y="-37"/>
      <point x="467" y="-9"/>
      <point x="659" y="165" type="curve"/>
      <point x="654" y="174"/>
      <point x="640" y="192"/>
      <point x="631" y="203" type="curve"/>
      <point x="499" y="95"/>
      <point x="408" y="69"/>
      <point x="363" y="69" type="curve" smooth="yes"/>
      <point x="258" y="69"/>
      <point x="183" y="171"/>
      <point x="183" y="329" type="curve" smooth="yes"/>
      <point x="183" y="501"/>
      <point x="271" y="764"/>
      <point x="438" y="764" type="curve" smooth="yes"/>
      <point x="517" y="764"/>
      <point x="571" y="663"/>
      <point x="597" y="663" type="curve" smooth="yes"/>
      <point x="629" y="663"/>
      <point x="696" y="712"/>
    </contour>
  </outline>
</glyph>
<glyph name="f" format="2">
  <advance width="514"/>
  <unicode hex="0066"/>
  <anchor x="-46" y="-414" name="H"/>
  <anchor x="358" y="-92" name="L"/>
  <anchor x="533" y="1508" name="U"/>
  <outline>
    <contour>
      <point x="600" y="806" type="curve"/>
      <point x="582" y="832" type="line"/>
      <point x="141" y="832" type="line"/>
      <point x="48" y="778" type="line"/>
      <point x="62" y="749" type="line"/>
      <point x="343" y="749" type="line" smooth="yes"/>
      <point x="435" y="749"/>
      <point x="471" y="742"/>
      <point x="483" y="708" type="curve"/>
      <point x="508" y="721"/>
      <point x="576" y="772"/>
    </contour>
    <contour>
      <point x="830" y="1290" type="curve"/>
      <point x="793" y="1303"/>
      <point x="727" y="1398"/>
      <point x="620" y="1398" type="curve" smooth="yes"/>
      <point x="544" y="1398"/>
      <point x="487" y="1360"/>
      <point x="422" y="1312" type="curve" smooth="yes"/>
      <point x="265" y="1196"/>
      <point x="235" y="1026"/>
      <point x="210" y="827" type="curve" smooth="yes"/>
      <point x="129" y="127" type="line" smooth="yes"/>
      <point x="107" y="-73"/>
      <point x="30" y="-320"/>
      <point x="-92" y="-388" type="curve"/>
      <point x="-68" y="-446" type="line"/>
      <point x="113" y="-335"/>
      <point x="239" y="-92"/>
      <point x="271" y="177" type="curve" smooth="yes"/>
      <point x="352" y="875" type="line" smooth="yes"/>
      <point x="368" y="1032"/>
      <point x="410" y="1303"/>
      <point x="548" y="1303" type="curve" smooth="yes"/>
      <point x="618" y="1303"/>
      <point x="645" y="1200"/>
      <point x="678" y="1200" type="curve" smooth="yes"/>
      <point x="708" y="1200"/>
      <point x="778" y="1253"/>
    </contour>
  </outline>
</glyph>
<glyph name="g" format="2">
  <advance width="838"/>
  <unicode hex="0067"/>
  <anchor x="285" y="-414" name="H"/>
  <anchor x="272" y="-552" name="L"/>
  <anchor x="864" y="800" name="R"/>
  <anchor x="473" y="920" name="U"/>
  <outline>
    <contour>
      <point x="746" y="774" type="curve"/>
      <point x="702" y="780"/>
      <point x="636" y="861"/>
      <point x="553" y="861" type="curve" smooth="yes"/>
      <point x="478" y="861"/>
      <point x="384" y="819"/>
      <point x="316" y="774" type="curve" smooth="yes"/>
      <point x="135" y="654"/>
      <point x="46" y="474"/>
      <point x="46" y="280" type="curve" smooth="yes"/>
      <point x="46" y="50"/>
      <point x="163" y="-37"/>
      <point x="244" y="-37" type="curve" smooth="yes"/>
      <point x="354" y="-37"/>
      <point x="494" y="156"/>
      <point x="571" y="310" type="curve"/>
      <point x="589" y="485" type="line"/>
      <point x="510" y="278"/>
      <point x="363" y="88"/>
      <point x="310" y="88" type="curve" smooth="yes"/>
      <point x="237" y="88"/>
      <point x="174" y="190"/>
      <point x="174" y="348" type="curve" smooth="yes"/>
      <point x="174" y="494"/>
      <point x="293" y="764"/>
      <point x="461" y="764" type="curve" smooth="yes"/>
      <point x="563" y="764"/>
      <point x="625" y="667"/>
      <point x="659" y="667" type="curve" smooth="yes"/>
      <point x="690" y="667"/>
      <point x="693" y="738"/>
    </contour>
    <contour>
      <point x="808" y="828" type="curve"/>
      <point x="787" y="861" type="line"/>
      <point x="706" y="821"/>
      <point x="621" y="749"/>
      <point x="600" y="618" type="curve" smooth="yes"/>
      <point x="554" y="330"/>
      <point x="584" y="199"/>
      <point x="540" y="-44" type="curve" smooth="yes"/>
      <point x="503" y="-247"/>
      <point x="437" y="-357"/>
      <point x="319" y="-357" type="curve" smooth="yes"/>
      <point x="146" y="-357"/>
      <point x="115" y="-235"/>
      <point x="87" y="-235" type="curve" smooth="yes"/>
      <point x="70" y="-235"/>
      <point x="-4" y="-307"/>
      <point x="-4" y="-348" type="curve" smooth="yes"/>
      <point x="-4" y="-391"/>
      <point x="146" y="-460"/>
      <point x="249" y="-460" type="curve" smooth="yes"/>
      <point x="441" y="-460"/>
      <point x="629" y="-253"/>
      <point x="675" y="0" type="curve" smooth="yes"/>
      <point x="709" y="189"/>
      <point x="693" y="371"/>
      <point x="733" y="661" type="curve" smooth="yes"/>
      <point x="745" y="749"/>
      <point x="767" y="794"/>
    </contour>
  </outline>
</glyph>
<glyph name="j" format="2">
  <advance width="461"/>
  <unicode hex="006A"/>
  <anchor x="99" y="-552" name="L"/>
  <anchor x="300" y="920" name="U"/>
  <outline>
    <contour>
      <point x="421" y="1161" type="curve"/>
      <point x="421" y="1202"/>
      <point x="398" y="1226"/>
      <point x="360" y="1226" type="curve" smooth="yes"/>
      <point x="290" y="1226"/>
      <point x="247" y="1147"/>
      <point x="247" y="1081" type="curve" smooth="yes"/>
      <point x="247" y="1040"/>
      <point x="268" y="1017"/>
      <point x="306" y="1017" type="curve" smooth="yes"/>
      <point x="375" y="1017"/>
      <point x="421" y="1092"/>
    </contour>
    <contour>
      <point x="345" y="800" type="curve"/>
      <point x="345" y="851"/>
      <point x="327" y="861"/>
      <point x="293" y="861" type="curve" smooth="yes"/>
      <point x="264" y="861"/>
      <point x="154" y="819"/>
      <point x="50" y="772" type="curve"/>
      <point x="64" y="738" type="line"/>
      <point x="64" y="738"/>
      <point x="135" y="760"/>
      <point x="156" y="760" type="curve" smooth="yes"/>
      <point x="177" y="760"/>
      <point x="194" y="755"/>
      <point x="194" y="699" type="curve" smooth="yes"/>
      <point x="194" y="659"/>
      <point x="172" y="474"/>
      <point x="167" y="414" type="curve" smooth="yes"/>
      <point x="160" y="345"/>
      <point x="149" y="191"/>
      <point x="117" y="10" type="curve" smooth="yes"/>
      <point x="78" y="-219"/>
      <point x="13" y="-352"/>
      <point x="-91" y="-352" type="curve" smooth="yes"/>
      <point x="-198" y="-352"/>
      <point x="-232" y="-276"/>
      <point x="-253" y="-276" type="curve" smooth="yes"/>
      <point x="-277" y="-276"/>
      <point x="-353" y="-357"/>
      <point x="-353" y="-390" type="curve" smooth="yes"/>
      <point x="-353" y="-414"/>
      <point x="-259" y="-460"/>
      <point x="-191" y="-460" type="curve" smooth="yes"/>
      <point x="-148" y="-460"/>
      <point x="-51" y="-442"/>
      <point x="15" y="-390" type="curve" smooth="yes"/>
      <point x="115" y="-310"/>
      <point x="213" y="-227"/>
      <point x="263" y="60" type="curve" smooth="yes"/>
      <point x="287" y="213"/>
      <point x="298" y="350"/>
      <point x="307" y="435" type="curve" smooth="yes"/>
      <point x="314" y="514"/>
      <point x="345" y="760"/>
    </contour>
  </outline>
</glyph>
<glyph name="k" format="2">
  <advance width="827"/>
  <unicode hex="006B"/>
  <anchor x="156" y="0" name="H"/>
  <anchor x="352" y="-92" name="L"/>
  <anchor x="905" y="800" name="R"/>
  <anchor x="567" y="1453" name="U"/>
  <outline>
    <contour>
      <point x="827" y="798" type="curve"/>
      <point x="827" y="839"/>
      <point x="816" y="855"/>
      <point x="757" y="855" type="curve" smooth="yes"/>
      <point x="679" y="855"/>
      <point x="616" y="834"/>
      <point x="544" y="825" type="curve"/>
      <point x="548" y="789" type="line"/>
      <point x="712" y="794"/>
      <point x="654" y="744"/>
      <point x="485" y="616" type="curve" smooth="yes"/>
      <point x="284" y="463" type="line"/>
      <point x="343" y="431" type="line"/>
      <point x="533" y="546" type="line" smooth="yes"/>
      <point x="717" y="657"/>
      <point x="827" y="762"/>
    </contour>
    <contour>
      <point x="404" y="1303" type="curve"/>
      <point x="404" y="1390"/>
      <point x="384" y="1398"/>
      <point x="350" y="1398" type="curve" smooth="yes"/>
      <point x="320" y="1398"/>
      <point x="205" y="1357"/>
      <point x="102" y="1311" type="curve"/>
      <point x="115" y="1275" type="line"/>
      <point x="138" y="1283"/>
      <point x="195" y="1299"/>
      <point x="214" y="1299" type="curve" smooth="yes"/>
      <point x="242" y="1299"/>
      <point x="258" y="1296"/>
      <point x="258" y="1235" type="curve" smooth="yes"/>
      <point x="258" y="1049"/>
      <point x="97" y="133"/>
      <point x="79" y="-9" type="curve"/>
      <point x="111" y="-37" type="line"/>
      <point x="141" y="-23"/>
      <point x="215" y="10"/>
      <point x="248" y="24" type="curve"/>
      <point x="212" y="150"/>
      <point x="404" y="1066"/>
    </contour>
    <contour>
      <point x="817" y="62" type="curve"/>
      <point x="802" y="93" type="line"/>
      <point x="782" y="80"/>
      <point x="743" y="69"/>
      <point x="697" y="69" type="curve" smooth="yes"/>
      <point x="614" y="69"/>
      <point x="494" y="456"/>
      <point x="384" y="519" type="curve"/>
      <point x="284" y="463" type="line"/>
      <point x="384" y="391"/>
      <point x="497" y="-35"/>
      <point x="631" y="-35" type="curve" smooth="yes"/>
      <point x="678" y="-35"/>
      <point x="736" y="-5"/>
    </contour>
  </outline>
</glyph>
<glyph name="r" format="2">
  <advance width="668"/>
  <unicode hex="0072"/>
  <anchor x="161" y="0" name="H"/>
  <anchor x="150" y="-92" name="L"/>
  <anchor x="423" y="920" name="U"/>
  <outline>
    <contour>
      <point x="706" y="782" type="curve"/>
      <point x="652" y="804"/>
      <point x="627" y="861"/>
      <point x="584" y="861" type="curve" smooth="yes"/>
      <point x="505" y="861"/>
      <point x="414" y="810"/>
      <point x="296" y="568" type="curve"/>
      <point x="303" y="614"/>
      <point x="320" y="729"/>
      <point x="320" y="755" type="curve" smooth="yes"/>
      <point x="320" y="841"/>
      <point x="318" y="861"/>
      <point x="284" y="861" type="curve" smooth="yes"/>
      <point x="253" y="861"/>
      <point x="141" y="819"/>
      <point x="37" y="772" type="curve"/>
      <point x="50" y="738" type="line"/>
      <point x="70" y="745"/>
      <point x="126" y="760"/>
      <point x="145" y="760" type="curve" smooth="yes"/>
      <point x="165" y="760"/>
      <point x="183" y="755"/>
      <point x="183" y="699" type="curve" smooth="yes"/>
      <point x="183" y="587"/>
      <point x="133" y="252"/>
      <point x="79" y="-9" type="curve"/>
      <point x="109" y="-37" type="line"/>
      <point x="138" y="-23"/>
      <point x="212" y="10"/>
      <point x="241" y="23" type="curve"/>
      <point x="237" y="120"/>
      <point x="256" y="260"/>
      <point x="282" y="352" type="curve" smooth="yes"/>
      <point x="332" y="528"/>
      <point x="446" y="721"/>
      <point x="510" y="721" type="curve" smooth="yes"/>
      <point x="546" y="721"/>
      <point x="563" y="657"/>
      <point x="609" y="657" type="curve" smooth="yes"/>
      <point x="632" y="657"/>
      <point x="676" y="742"/>
    </contour>
  </outline>
</glyph>
<glyph name="t" format="2">
  <advance width="578"/>
  <unicode hex="0074"/>
  <anchor x="232" y="0" name="H"/>
  <anchor x="219" y="-92" name="L"/>
  <anchor x="486" y="800" name="R"/>
  <anchor x="390" y="1131" name="U"/>
  <outline>
    <contour>
      <point x="593" y="806" type="curve"/>
      <point x="575" y="832" type="line"/>
      <point x="147" y="832" type="line"/>
      <point x="54" y="778" type="line"/>
      <point x="68" y="749" type="line"/>
      <point x="335" y="749" type="line" smooth="yes"/>
      <point x="427" y="749"/>
      <point x="461" y="742"/>
      <point x="476" y="708" type="curve"/>
      <point x="499" y="721"/>
      <point x="568" y="772"/>
    </contour>
    <contour>
      <point x="533" y="107" type="curve"/>
      <point x="517" y="141" type="line"/>
      <point x="425" y="100"/>
      <point x="367" y="82"/>
      <point x="323" y="82" type="curve" smooth="yes"/>
      <point x="289" y="82"/>
      <point x="256" y="118"/>
      <point x="256" y="194" type="curve" smooth="yes"/>
      <point x="256" y="218"/>
      <point x="260" y="280"/>
      <point x="267" y="327" type="curve" smooth="yes"/>
      <point x="354" y="885" type="line" smooth="yes"/>
      <point x="379" y="1037"/>
      <point x="401" y="1058"/>
      <point x="401" y="1058" type="curve"/>
      <point x="375" y="1081" type="line"/>
      <point x="282" y="1015" type="line" smooth="yes"/>
      <point x="250" y="990"/>
      <point x="233" y="965"/>
      <point x="218" y="864" type="curve" smooth="yes"/>
      <point x="129" y="305" type="line"/>
      <point x="120" y="237"/>
      <point x="116" y="194"/>
      <point x="116" y="147" type="curve" smooth="yes"/>
      <point x="116" y="39"/>
      <point x="171" y="-37"/>
      <point x="231" y="-37" type="curve" smooth="yes"/>
      <point x="286" y="-37"/>
      <point x="413" y="14"/>
    </contour>
  </outline>
</glyph>
<glyph name="w" format="2">
  <advance width="1186"/>
  <unicode hex="0077"/>
  <anchor x="553" y="-92" name="L"/>
  <anchor x="692" y="920" name="U"/>
  <outline>
    <contour>
      <point x="1175" y="791" type="curve"/>
      <point x="1175" y="851"/>
      <point x="1139" y="861"/>
      <point x="1098" y="861" type="curve" smooth="yes"/>
      <point x="1081" y="861"/>
      <point x="1012" y="846"/>
      <point x="927" y="796" type="curve"/>
      <point x="943" y="762" type="line"/>
      <point x="970" y="770"/>
      <point x="996" y="776"/>
      <point x="1013" y="776" type="curve" smooth="yes"/>
      <point x="1046" y="776"/>
      <point x="1064" y="760"/>
      <point x="1064" y="735" type="curve" smooth="yes"/>
      <point x="1064" y="642"/>
      <point x="1026" y="474"/>
      <point x="841" y="135" type="curve"/>
      <point x="828" y="264"/>
      <point x="798" y="437"/>
      <point x="780" y="552" type="curve" smooth="yes"/>
      <point x="760" y="663"/>
      <point x="723" y="861"/>
      <point x="708" y="861" type="curve" smooth="yes"/>
      <point x="681" y="861"/>
      <point x="627" y="827"/>
      <point x="591" y="794" type="curve"/>
      <point x="580" y="623"/>
      <point x="463" y="343"/>
      <point x="365" y="152" type="curve"/>
      <point x="359" y="244"/>
      <point x="314" y="632"/>
      <point x="291" y="735" type="curve" smooth="yes"/>
      <point x="271" y="823"/>
      <point x="258" y="861"/>
      <point x="224" y="861" type="curve" smooth="yes"/>
      <point x="192" y="861"/>
      <point x="107" y="819"/>
      <point x="3" y="772" type="curve"/>
      <point x="16" y="738" type="line"/>
      <point x="16" y="738"/>
      <point x="86" y="760"/>
      <point x="107" y="760" type="curve" smooth="yes"/>
      <point x="129" y="760"/>
      <point x="158" y="751"/>
      <point x="172" y="685" type="curve"/>
      <point x="205" y="561"/>
      <point x="233" y="197"/>
      <point x="260" y="-9" type="curve"/>
      <point x="289" y="-37" type="line"/>
      <point x="314" y="-26"/>
      <point x="359" y="-1"/>
      <point x="380" y="9" type="curve"/>
      <point x="505" y="218"/>
      <point x="636" y="557"/>
      <point x="640" y="634" type="curve"/>
      <point x="672" y="521"/>
      <point x="715" y="197"/>
      <point x="742" y="-9" type="curve"/>
      <point x="772" y="-37" type="line"/>
      <point x="796" y="-26"/>
      <point x="836" y="-9"/>
      <point x="857" y="1" type="curve"/>
      <point x="1132" y="512"/>
      <point x="1175" y="693"/>
    </contour>
  </outline>
</glyph>
<glyph name="y" format="2">
  <advance width="851"/>
  <unicode hex="0079"/>
  <anchor x="570" y="-92" name="L"/>
  <anchor x="908" y="800" name="R"/>
  <anchor x="519" y="920" name="U"/>
  <outline>
    <contour>
      <point x="471" y="43" type="line"/>
      <point x="427" y="289"/>
      <point x="345" y="589"/>
      <point x="291" y="744" type="curve" smooth="yes"/>
      <point x="262" y="828"/>
      <point x="246" y="861"/>
      <point x="212" y="861" type="curve" smooth="yes"/>
      <point x="183" y="861"/>
      <point x="88" y="819"/>
      <point x="-5" y="772" type="curve"/>
      <point x="5" y="738" type="line"/>
      <point x="34" y="747"/>
      <point x="79" y="760"/>
      <point x="95" y="760" type="curve" smooth="yes"/>
      <point x="116" y="760"/>
      <point x="133" y="747"/>
      <point x="161" y="685" type="curve" smooth="yes"/>
      <point x="216" y="568"/>
      <point x="312" y="160"/>
      <point x="348" y="-52" type="curve"/>
      <point x="379" y="-79" type="line"/>
    </contour>
    <contour>
      <point x="821" y="791" type="curve"/>
      <point x="821" y="851"/>
      <point x="787" y="861"/>
      <point x="746" y="861" type="curve" smooth="yes"/>
      <point x="704" y="861"/>
      <point x="636" y="839"/>
      <point x="548" y="789" type="curve"/>
      <point x="564" y="755" type="line"/>
      <point x="600" y="770"/>
      <point x="627" y="776"/>
      <point x="648" y="776" type="curve" smooth="yes"/>
      <point x="679" y="776"/>
      <point x="697" y="757"/>
      <point x="697" y="727" type="curve" smooth="yes"/>
      <point x="697" y="654"/>
      <point x="532" y="309"/>
      <point x="406" y="68" type="curve" smooth="yes"/>
      <point x="280" y="-173"/>
      <point x="170" y="-316"/>
      <point x="51" y="-316" type="curve" smooth="yes"/>
      <point x="6" y="-316"/>
      <point x="-21" y="-316"/>
      <point x="-80" y="-276" type="curve"/>
      <point x="-114" y="-294"/>
      <point x="-166" y="-384"/>
      <point x="-166" y="-413" type="curve" smooth="yes"/>
      <point x="-166" y="-433"/>
      <point x="-106" y="-460"/>
      <point x="-33" y="-460" type="curve" smooth="yes"/>
      <point x="176" y="-460"/>
      <point x="333" y="-244"/>
      <point x="497" y="75" type="curve" smooth="yes"/>
      <point x="739" y="545"/>
      <point x="821" y="708"/>
    </contour>
  </outline>
</glyph>
<glyph name="braceright" format="2">
  <advance width="589"/>
  <unicode hex="007D"/>
  <outline>
    <contour>
      <point x="512" y="598" type="curve"/>
      <point x="505" y="650" type="line"/>
      <point x="469" y="642"/>
      <point x="478" y="644"/>
      <point x="448" y="644" type="curve" smooth="yes"/>
      <point x="363" y="644"/>
      <point x="322" y="695"/>
      <point x="337" y="794" type="curve" smooth="yes"/>
      <point x="357" y="945"/>
      <point x="395" y="972"/>
      <point x="416" y="1116" type="curve" smooth="yes"/>
      <point x="440" y="1292"/>
      <point x="375" y="1390"/>
      <point x="194" y="1471" type="curve"/>
      <point x="165" y="1414" type="line"/>
      <point x="276" y="1345"/>
      <point x="298" y="1279"/>
      <point x="276" y="1141" type="curve" smooth="yes"/>
      <point x="260" y="1021"/>
      <point x="220" y="974"/>
      <point x="199" y="828" type="curve" smooth="yes"/>
      <point x="181" y="691"/>
      <point x="207" y="604"/>
      <point x="318" y="580" type="curve"/>
      <point x="214" y="535"/>
      <point x="145" y="437"/>
      <point x="129" y="335" type="curve"/>
      <point x="111" y="190"/>
      <point x="141" y="174"/>
      <point x="120" y="32" type="curve" smooth="yes"/>
      <point x="103" y="-95"/>
      <point x="23" y="-184"/>
      <point x="-75" y="-244" type="curve"/>
      <point x="-57" y="-289" type="line"/>
      <point x="122" y="-207"/>
      <point x="246" y="-80"/>
      <point x="271" y="84" type="curve" smooth="yes"/>
      <point x="291" y="235"/>
      <point x="258" y="239"/>
      <point x="278" y="388" type="curve" smooth="yes"/>
      <point x="291" y="482"/>
      <point x="373" y="561"/>
    </contour>
  </outline>
</glyph>
<glyph name="brokenbar" format="2">
  <advance width="483"/>
  <unicode hex="00A6"/>
  <outline>
    <contour>
      <point x="455" y="1451" type="line"/>
      <point x="427" y="1472" type="line"/>
      <point x="391" y="1462"/>
      <point x="359" y="1448"/>
      <point x="323" y="1426" type="curve"/>
      <point x="212" y="632" type="line"/>
      <point x="241" y="612" type="line"/>
      <point x="271" y="621"/>
      <point x="322" y="640"/>
      <point x="346" y="659" type="curve"/>
    </contour>
    <contour>
      <point x="305" y="369" type="line"/>
      <point x="275" y="392" type="line"/>
      <point x="239" y="380"/>
      <point x="207" y="366"/>
      <point x="173" y="345" type="curve"/>
      <point x="64" y="-437" type="line"/>
      <point x="91" y="-460" type="line"/>
      <point x="118" y="-450"/>
      <point x="172" y="-429"/>
      <point x="194" y="-413" type="curve"/>
    </contour>
  </outline>
</glyph>
<glyph name="section" format="2">
  <advance width="795"/>
  <unicode hex="00A7"/>
  <outline>
    <contour>
      <point x="322" y="-27" type="curve" smooth="yes"/>
      <point x="386" y="-27"/>
      <point x="609" y="-18"/>
      <point x="644" y="241" type="curve"/>
      <point x="664" y="379"/>
      <point x="564" y="432"/>
      <point x="475" y="486" type="curve"/>
      <point x="324" y="591"/>
      <point x="259" y="644"/>
      <point x="275" y="756" type="curve" smooth="yes"/>
      <point x="282" y="806"/>
      <point x="327" y="902"/>
      <point x="389" y="874" type="curve"/>
      <point x="390" y="874"/>
      <point x="419" y="958"/>
      <point x="422" y="956" type="curve"/>
      <point x="340" y="980"/>
      <point x="181" y="860"/>
      <point x="160" y="713" type="curve" smooth="yes"/>
      <point x="138" y="556"/>
      <point x="217" y="474"/>
      <point x="351" y="385" type="curve" smooth="yes"/>
      <point x="443" y="324"/>
      <point x="543" y="288"/>
      <point x="529" y="190" type="curve" smooth="yes"/>
      <point x="517" y="103"/>
      <point x="455" y="62"/>
      <point x="376" y="62" type="curve" smooth="yes"/>
      <point x="262" y="62"/>
      <point x="186" y="156"/>
      <point x="196" y="259" type="curve"/>
      <point x="161" y="269" type="line"/>
      <point x="138" y="214"/>
      <point x="112" y="56"/>
      <point x="126" y="48" type="curve"/>
      <point x="193" y="3"/>
      <point x="269" y="-27"/>
    </contour>
    <contour>
      <point x="533" y="339" type="curve"/>
      <point x="598" y="341"/>
      <point x="720" y="436"/>
      <point x="744" y="603" type="curve"/>
      <point x="767" y="771"/>
      <point x="671" y="834"/>
      <point x="537" y="928" type="curve" smooth="yes"/>
      <point x="426" y="1004"/>
      <point x="371" y="1055"/>
      <point x="383" y="1140" type="curve" smooth="yes"/>
      <point x="392" y="1205"/>
      <point x="441" y="1242"/>
      <point x="514" y="1242" type="curve" smooth="yes"/>
      <point x="568" y="1242"/>
      <point x="621" y="1201"/>
      <point x="662" y="1114" type="curve"/>
      <point x="693" y="1106" type="line"/>
      <point x="711" y="1126"/>
      <point x="766" y="1230"/>
      <point x="754" y="1244" type="curve" smooth="yes"/>
      <point x="715" y="1288"/>
      <point x="617" y="1324"/>
      <point x="548" y="1324" type="curve" smooth="yes"/>
      <point x="423" y="1324"/>
      <point x="292" y="1256"/>
      <point x="271" y="1104" type="curve" smooth="yes"/>
      <point x="253" y="979"/>
      <point x="313" y="891"/>
      <point x="413" y="827" type="curve" smooth="yes"/>
      <point x="571" y="724"/>
      <point x="643" y="659"/>
      <point x="627" y="546" type="curve"/>
      <point x="617" y="472"/>
      <point x="553" y="412"/>
      <point x="474" y="412" type="curve"/>
      <point x="470" y="412"/>
      <point x="530" y="340"/>
    </contour>
  </outline>
</glyph>
<glyph name="dieresis" format="2">
  <advance width="958"/>
  <unicode hex="00A8"/>
  <anchor x="570" y="1244" name="U"/>
  <outline>
    <contour>
      <point x="815" y="1161" type="curve"/>
      <point x="815" y="1202"/>
      <point x="790" y="1226"/>
      <point x="752" y="1226" type="curve" smooth="yes"/>
      <point x="682" y="1226"/>
      <point x="637" y="1147"/>
      <point x="637" y="1081" type="curve" smooth="yes"/>
      <point x="637" y="1040"/>
      <point x="660" y="1017"/>
      <point x="698" y="1017" type="curve" smooth="yes"/>
      <point x="769" y="1017"/>
      <point x="815" y="1092"/>
    </contour>
    <contour>
      <point x="471" y="1161" type="curve"/>
      <point x="471" y="1202"/>
      <point x="448" y="1226"/>
      <point x="411" y="1226" type="curve" smooth="yes"/>
      <point x="342" y="1226"/>
      <point x="294" y="1147"/>
      <point x="294" y="1081" type="curve" smooth="yes"/>
      <point x="294" y="1040"/>
      <point x="317" y="1017"/>
      <point x="356" y="1017" type="curve" smooth="yes"/>
      <point x="426" y="1017"/>
      <point x="471" y="1092"/>
    </contour>
  </outline>
</glyph>
<glyph name="ordfeminine" format="2">
  <advance width="539"/>
  <unicode hex="00AA"/>
  <outline>
    <contour>
      <point x="517" y="706" type="curve"/>
      <point x="510" y="724" type="line"/>
      <point x="483" y="713"/>
      <point x="467" y="712"/>
      <point x="454" y="712" type="curve" smooth="yes"/>
      <point x="438" y="712"/>
      <point x="431" y="736"/>
      <point x="431" y="812" type="curve" smooth="yes"/>
      <point x="431" y="841"/>
      <point x="444" y="956"/>
      <point x="465" y="1051" type="curve" smooth="yes"/>
      <point x="474" y="1094"/>
      <point x="480" y="1102"/>
      <point x="503" y="1119" type="curve"/>
      <point x="494" y="1138" type="line"/>
      <point x="448" y="1116"/>
      <point x="404" y="1081"/>
      <point x="397" y="1051" type="curve" smooth="yes"/>
      <point x="390" y="1012"/>
      <point x="361" y="851"/>
      <point x="361" y="814" type="curve" smooth="yes"/>
      <point x="361" y="681"/>
      <point x="382" y="655"/>
      <point x="406" y="655" type="curve" smooth="yes"/>
      <point x="425" y="655"/>
      <point x="461" y="670"/>
    </contour>
    <contour>
      <point x="476" y="1091" type="curve"/>
      <point x="454" y="1094"/>
      <point x="414" y="1138"/>
      <point x="368" y="1138" type="curve" smooth="yes"/>
      <point x="329" y="1138"/>
      <point x="276" y="1115"/>
      <point x="241" y="1091" type="curve" smooth="yes"/>
      <point x="147" y="1026"/>
      <point x="97" y="931"/>
      <point x="97" y="825" type="curve" smooth="yes"/>
      <point x="97" y="702"/>
      <point x="160" y="655"/>
      <point x="203" y="655" type="curve" smooth="yes"/>
      <point x="260" y="655"/>
      <point x="331" y="751"/>
      <point x="363" y="812" type="curve"/>
      <point x="377" y="900" type="line"/>
      <point x="339" y="821"/>
      <point x="269" y="721"/>
      <point x="235" y="721" type="curve" smooth="yes"/>
      <point x="195" y="721"/>
      <point x="165" y="776"/>
      <point x="165" y="862" type="curve" smooth="yes"/>
      <point x="165" y="940"/>
      <point x="228" y="1085"/>
      <point x="318" y="1085" type="curve" smooth="yes"/>
      <point x="373" y="1085"/>
      <point x="413" y="1030"/>
      <point x="431" y="1030" type="curve" smooth="yes"/>
      <point x="446" y="1030"/>
      <point x="448" y="1071"/>
    </contour>
    <contour>
      <point x="505" y="584" type="curve"/>
      <point x="487" y="606" type="line"/>
      <point x="75" y="606" type="line"/>
      <point x="68" y="587"/>
      <point x="60" y="576"/>
      <point x="54" y="557" type="curve"/>
      <point x="69" y="539" type="line"/>
      <point x="483" y="539" type="line"/>
      <point x="489" y="555"/>
      <point x="499" y="564"/>
    </contour>
  </outline>
</glyph>
<glyph name="registered" format="2">
  <advance width="647"/>
  <unicode hex="00AE"/>
  <outline>
    <contour>
      <point x="677" y="997" type="curve"/>
      <point x="701" y="1173"/>
      <point x="606" y="1315"/>
      <point x="448" y="1315" type="curve" smooth="yes"/>
      <point x="289" y="1315"/>
      <point x="154" y="1173"/>
      <point x="129" y="997" type="curve" smooth="yes"/>
      <point x="105" y="821"/>
      <point x="200" y="678"/>
      <point x="358" y="678" type="curve" smooth="yes"/>
      <point x="517" y="678"/>
      <point x="653" y="821"/>
    </contour>
    <contour>
      <point x="628" y="997" type="curve"/>
      <point x="608" y="851"/>
      <point x="500" y="729"/>
      <point x="368" y="729" type="curve" smooth="yes"/>
      <point x="238" y="729"/>
      <point x="158" y="851"/>
      <point x="178" y="997" type="curve" smooth="yes"/>
      <point x="198" y="1142"/>
      <point x="305" y="1265"/>
      <point x="436" y="1265" type="curve" smooth="yes"/>
      <point x="567" y="1265"/>
      <point x="648" y="1142"/>
    </contour>
    <contour>
      <point x="529" y="1091" type="curve"/>
      <point x="535" y="1140"/>
      <point x="497" y="1187"/>
      <point x="414" y="1187" type="curve" smooth="yes"/>
      <point x="369" y="1187"/>
      <point x="334" y="1179"/>
      <point x="301" y="1171" type="curve"/>
      <point x="299" y="1144" type="line"/>
      <point x="334" y="1150"/>
      <point x="370" y="1155"/>
      <point x="401" y="1155" type="curve" smooth="yes"/>
      <point x="464" y="1155"/>
      <point x="482" y="1118"/>
      <point x="477" y="1082" type="curve" smooth="yes"/>
      <point x="471" y="1035"/>
      <point x="441" y="1018"/>
      <point x="386" y="1018" type="curve" smooth="yes"/>
      <point x="376" y="1018"/>
      <point x="368" y="1019"/>
      <point x="356" y="1022" type="curve"/>
      <point x="354" y="989" type="line"/>
      <point x="365" y="986"/>
      <point x="375" y="984"/>
      <point x="384" y="984" type="curve" smooth="yes"/>
      <point x="454" y="984"/>
      <point x="518" y="1017"/>
    </contour>
    <contour>
      <point x="541" y="837" type="line"/>
      <point x="539" y="853" type="line"/>
      <point x="515" y="844"/>
      <point x="504" y="846"/>
      <point x="497" y="859" type="curve" smooth="yes"/>
      <point x="421" y="1010" type="line"/>
      <point x="383" y="992" type="line"/>
      <point x="451" y="827" type="line" smooth="yes"/>
      <point x="454" y="819"/>
      <point x="464" y="810"/>
      <point x="474" y="810" type="curve" smooth="yes"/>
      <point x="486" y="810"/>
      <point x="518" y="824"/>
      <point x="539" y="835" type="curve"/>
    </contour>
    <contour>
      <point x="370" y="816" type="line"/>
      <point x="372" y="832" type="line"/>
      <point x="348" y="838"/>
      <point x="339" y="845"/>
      <point x="340" y="850" type="curve" smooth="yes"/>
      <point x="384" y="1167" type="line"/>
      <point x="338" y="1167" type="line"/>
      <point x="294" y="850" type="line" smooth="yes"/>
      <point x="293" y="844"/>
      <point x="279" y="838"/>
      <point x="255" y="832" type="curve"/>
      <point x="253" y="816" type="line"/>
    </contour>
  </outline>
</glyph>
<glyph name="plusminus" format="2">
  <advance width="708"/>
  <unicode hex="00B1"/>
  <outline>
    <contour>
      <point x="475" y="894" type="line"/>
      <point x="455" y="915" type="line"/>
      <point x="431" y="908"/>
      <point x="386" y="896"/>
      <point x="366" y="888" type="curve"/>
      <point x="288" y="333" type="line"/>
      <point x="308" y="312" type="line"/>
      <point x="333" y="318"/>
      <point x="376" y="329"/>
      <point x="398" y="341" type="curve"/>
    </contour>
    <contour>
      <point x="618" y="235" type="curve"/>
      <point x="601" y="257" type="line"/>
      <point x="62" y="257" type="line"/>
      <point x="49" y="233"/>
      <point x="34" y="198"/>
      <point x="24" y="173" type="curve"/>
      <point x="42" y="151" type="line"/>
      <point x="582" y="151" type="line"/>
      <point x="593" y="172"/>
      <point x="610" y="210"/>
    </contour>
    <contour>
      <point x="675" y="644" type="curve"/>
      <point x="658" y="667" type="line"/>
      <point x="119" y="667" type="line"/>
      <point x="106" y="643"/>
      <point x="91" y="608"/>
      <point x="81" y="583" type="curve"/>
      <point x="99" y="561" type="line"/>
      <point x="639" y="561" type="line"/>
      <point x="650" y="581"/>
      <point x="667" y="620"/>
    </contour>
  </outline>
</glyph>
<glyph name="periodcentered" format="2">
  <advance width="378"/>
  <unicode hex="00B7"/>
  <outline>
    <contour>
      <point x="210" y="622" type="curve" smooth="yes"/>
      <point x="288" y="622"/>
      <point x="335" y="708"/>
      <point x="335" y="775" type="curve" smooth="yes"/>
      <point x="335" y="831"/>
      <point x="295" y="870"/>
      <point x="258" y="870" type="curve" smooth="yes"/>
      <point x="180" y="870"/>
      <point x="133" y="793"/>
      <point x="133" y="724" type="curve" smooth="yes"/>
      <point x="133" y="666"/>
      <point x="166" y="622"/>
    </contour>
  </outline>
</glyph>
<glyph name="cedilla" format="2">
  <advance width="298"/>
  <unicode hex="00B8"/>
  <anchor x="22" y="-552" name="L"/>
  <outline>
    <contour>
      <point x="202" y="-203" type="curve"/>
      <point x="202" y="-143"/>
      <point x="159" y="-105"/>
      <point x="96" y="-103" type="curve"/>
      <point x="105" y="-73"/>
      <point x="120" y="-4"/>
      <point x="130" y="46" type="curve"/>
      <point x="68" y="47" type="line"/>
      <point x="55" y="-21"/>
      <point x="34" y="-105"/>
      <point x="0" y="-197" type="curve"/>
      <point x="57" y="-195"/>
      <point x="85" y="-214"/>
      <point x="85" y="-246" type="curve" smooth="yes"/>
      <point x="85" y="-305"/>
      <point x="11" y="-368"/>
      <point x="-115" y="-309" type="curve"/>
      <point x="-114" y="-345" type="line"/>
      <point x="34" y="-431"/>
      <point x="202" y="-333"/>
    </contour>
  </outline>
</glyph>
<glyph name="onesuperior" format="2">
  <advance width="529"/>
  <unicode hex="00B9"/>
  <anchor x="262" y="506" name="L"/>
  <anchor x="370" y="1288" name="U"/>
  <outline>
    <contour>
      <point x="477" y="598" type="line"/>
      <point x="362" y="611"/>
      <point x="346" y="632"/>
      <point x="349" y="647" type="curve" smooth="yes"/>
      <point x="440" y="1227" type="line"/>
      <point x="423" y="1246" type="line"/>
      <point x="367" y="1219"/>
      <point x="224" y="1170"/>
      <point x="158" y="1152" type="curve"/>
      <point x="165" y="1115" type="line"/>
      <point x="269" y="1136"/>
      <point x="301" y="1132"/>
      <point x="309" y="1123" type="curve" smooth="yes"/>
      <point x="317" y="1113"/>
      <point x="315" y="1098"/>
      <point x="310" y="1069" type="curve" smooth="yes"/>
      <point x="243" y="647" type="line" smooth="yes"/>
      <point x="241" y="632"/>
      <point x="211" y="611"/>
      <point x="88" y="598" type="curve"/>
      <point x="81" y="559" type="line"/>
      <point x="470" y="559" type="line"/>
    </contour>
  </outline>
</glyph>
<glyph name="ordmasculine" format="2">
  <advance width="467"/>
  <unicode hex="00BA"/>
  <outline>
    <contour>
      <point x="476" y="951" type="curve"/>
      <point x="476" y="1060"/>
      <point x="438" y="1138"/>
      <point x="333" y="1138" type="curve" smooth="yes"/>
      <point x="293" y="1138"/>
      <point x="250" y="1116"/>
      <point x="217" y="1091" type="curve" smooth="yes"/>
      <point x="129" y="1023"/>
      <point x="102" y="940"/>
      <point x="102" y="846" type="curve" smooth="yes"/>
      <point x="102" y="736"/>
      <point x="154" y="655"/>
      <point x="246" y="655" type="curve" smooth="yes"/>
      <point x="286" y="655"/>
      <point x="327" y="678"/>
      <point x="363" y="706" type="curve" smooth="yes"/>
      <point x="437" y="767"/>
      <point x="476" y="862"/>
    </contour>
    <contour>
      <point x="431" y="584" type="curve"/>
      <point x="414" y="606" type="line"/>
      <point x="75" y="606" type="line"/>
      <point x="68" y="587"/>
      <point x="60" y="576"/>
      <point x="54" y="557" type="curve"/>
      <point x="69" y="539" type="line"/>
      <point x="410" y="539" type="line"/>
      <point x="416" y="555"/>
      <point x="425" y="564"/>
    </contour>
    <contour>
      <point x="404" y="925" type="curve"/>
      <point x="404" y="844"/>
      <point x="370" y="710"/>
      <point x="278" y="710" type="curve" smooth="yes"/>
      <point x="218" y="710"/>
      <point x="171" y="785"/>
      <point x="171" y="872" type="curve" smooth="yes"/>
      <point x="171" y="956"/>
      <point x="203" y="1081"/>
      <point x="299" y="1081" type="curve" smooth="yes"/>
      <point x="365" y="1081"/>
      <point x="404" y="1024"/>
    </contour>
  </outline>
</glyph>
<glyph name="guillemotright" format="2">
  <advance width="811"/>
  <unicode hex="00BB"/>
  <outline>
    <contour>
      <point x="439" y="446" type="curve"/>
      <point x="196" y="817" type="line"/>
      <point x="158" y="791" type="line"/>
      <point x="157" y="791"/>
      <point x="298" y="412"/>
      <point x="295" y="414" type="curve"/>
      <point x="55" y="33" type="line"/>
      <point x="86" y="6" type="line"/>
      <point x="432" y="380" type="line"/>
      <point x="432" y="380"/>
      <point x="440" y="443"/>
    </contour>
    <contour>
      <point x="741" y="446" type="curve"/>
      <point x="498" y="817" type="line"/>
      <point x="460" y="791" type="line"/>
      <point x="459" y="791"/>
      <point x="599" y="412"/>
      <point x="597" y="414" type="curve"/>
      <point x="356" y="33" type="line"/>
      <point x="388" y="6" type="line"/>
      <point x="734" y="380" type="line"/>
      <point x="734" y="380"/>
      <point x="742" y="443"/>
    </contour>
  </outline>
</glyph>
<glyph name="threequarters" format="2">
  <advance width="1021"/>
  <unicode hex="00BE"/>
  <outline>
    <contour>
      <point x="1002" y="1110" type="line"/>
      <point x="985" y="1136" type="line"/>
      <point x="960" y="1130"/>
      <point x="930" y="1116"/>
      <point x="908" y="1106" type="curve"/>
      <point x="117" y="0" type="line"/>
      <point x="134" y="-27" type="line"/>
      <point x="165" y="-19"/>
      <point x="188" y="-11"/>
      <point x="216" y="2" type="curve"/>
    </contour>
    <contour>
      <point x="491" y="755" type="curve" smooth="yes"/>
      <point x="501" y="826"/>
      <point x="455" y="886"/>
      <point x="385" y="895" type="curve"/>
      <point x="448" y="915"/>
      <point x="493" y="965"/>
      <point x="499" y="1009" type="curve" smooth="yes"/>
      <point x="507" y="1069"/>
      <point x="473" y="1131"/>
      <point x="378" y="1131" type="curve" smooth="yes"/>
      <point x="280" y="1131"/>
      <point x="184" y="1061"/>
      <point x="177" y="1012" type="curve"/>
      <point x="188" y="998" type="line"/>
      <point x="215" y="1000"/>
      <point x="247" y="1005"/>
      <point x="269" y="1016" type="curve"/>
      <point x="267" y="1056"/>
      <point x="298" y="1082"/>
      <point x="345" y="1082" type="curve" smooth="yes"/>
      <point x="401" y="1082"/>
      <point x="417" y="1042"/>
      <point x="412" y="1001" type="curve" smooth="yes"/>
      <point x="406" y="965"/>
      <point x="386" y="918"/>
      <point x="272" y="888" type="curve"/>
      <point x="273" y="854" type="line"/>
      <point x="293" y="858"/>
      <point x="287" y="858"/>
      <point x="305" y="858" type="curve" smooth="yes"/>
      <point x="358" y="858"/>
      <point x="414" y="828"/>
      <point x="402" y="740" type="curve" smooth="yes"/>
      <point x="391" y="665"/>
      <point x="337" y="625"/>
      <point x="264" y="625" type="curve" smooth="yes"/>
      <point x="218" y="625"/>
      <point x="180" y="636"/>
      <point x="129" y="676" type="curve"/>
      <point x="109" y="645" type="line"/>
      <point x="158" y="595"/>
      <point x="214" y="573"/>
      <point x="270" y="573" type="curve" smooth="yes"/>
      <point x="391" y="573"/>
      <point x="477" y="655"/>
    </contour>
    <contour>
      <point x="912" y="193" type="curve"/>
      <point x="901" y="207" type="line"/>
      <point x="851" y="207" type="line"/>
      <point x="897" y="534" type="line"/>
      <point x="883" y="550" type="line"/>
      <point x="862" y="540"/>
      <point x="828" y="529"/>
      <point x="802" y="517" type="curve"/>
      <point x="519" y="165" type="line"/>
      <point x="533" y="150" type="line"/>
      <point x="765" y="150" type="line"/>
      <point x="751" y="57" type="line"/>
      <point x="750" y="47"/>
      <point x="737" y="38"/>
      <point x="655" y="26" type="curve"/>
      <point x="652" y="0" type="line"/>
      <point x="880" y="0" type="line"/>
      <point x="884" y="26" type="line"/>
      <point x="833" y="37"/>
      <point x="828" y="44"/>
      <point x="829" y="53" type="curve" smooth="yes"/>
      <point x="843" y="150" type="line"/>
      <point x="869" y="150" type="line"/>
      <point x="884" y="161"/>
      <point x="896" y="174"/>
    </contour>
    <contour>
      <point x="772" y="207" type="line"/>
      <point x="605" y="207" type="line"/>
      <point x="807" y="451" type="line"/>
    </contour>
  </outline>
</glyph>
<glyph name="questiondown" format="2">
  <advance width="747"/>
  <unicode hex="00BF"/>
  <outline>
    <contour>
      <point x="580" y="-174" type="curve"/>
      <point x="561" y="-147" type="line"/>
      <point x="508" y="-152"/>
      <point x="480" y="-158"/>
      <point x="429" y="-183" type="curve"/>
      <point x="449" y="-298"/>
      <point x="395" y="-399"/>
      <point x="291" y="-399" type="curve" smooth="yes"/>
      <point x="186" y="-399"/>
      <point x="131" y="-331"/>
      <point x="131" y="-210" type="curve" smooth="yes"/>
      <point x="131" y="18"/>
      <point x="427" y="135"/>
      <point x="435" y="380" type="curve"/>
      <point x="437" y="487" type="line"/>
      <point x="418" y="508" type="line"/>
      <point x="386" y="499"/>
      <point x="373" y="487"/>
      <point x="350" y="469" type="curve"/>
      <point x="337" y="380" type="line" smooth="yes"/>
      <point x="298" y="116"/>
      <point x="-14" y="62"/>
      <point x="-14" y="-262" type="curve" smooth="yes"/>
      <point x="-14" y="-386"/>
      <point x="57" y="-487"/>
      <point x="212" y="-487" type="curve" smooth="yes"/>
      <point x="438" y="-487"/>
      <point x="580" y="-331"/>
    </contour>
    <contour>
      <point x="323" y="690" type="curve"/>
      <point x="323" y="636"/>
      <point x="354" y="602"/>
      <point x="399" y="602" type="curve" smooth="yes"/>
      <point x="476" y="602"/>
      <point x="537" y="695"/>
      <point x="537" y="764" type="curve" smooth="yes"/>
      <point x="537" y="819"/>
      <point x="508" y="855"/>
      <point x="460" y="855" type="curve" smooth="yes"/>
      <point x="377" y="855"/>
      <point x="323" y="762"/>
    </contour>
  </outline>
</glyph>
<glyph name="Eth" format="2">
  <advance width="1028"/>
  <unicode hex="00D0"/>
  <anchor x="426" y="-92" name="L"/>
  <anchor x="606" y="1214" name="U"/>
  <outline>
    <contour>
      <point x="576" y="627" type="line"/>
      <point x="559" y="648" type="line"/>
      <point x="92" y="648" type="line"/>
      <point x="82" y="629"/>
      <point x="73" y="606"/>
      <point x="66" y="587" type="curve"/>
      <point x="80" y="564" type="line"/>
      <point x="550" y="564" type="line"/>
    </contour>
    <contour>
      <point x="990" y="685" type="curve" smooth="yes"/>
      <point x="990" y="989"/>
      <point x="825" y="1186"/>
      <point x="539" y="1186" type="curve" smooth="yes"/>
      <point x="413" y="1186"/>
      <point x="271" y="1173"/>
      <point x="131" y="1139" type="curve"/>
      <point x="131" y="1081" type="line"/>
      <point x="272" y="1097" type="line"/>
      <point x="135" y="95" type="line" smooth="yes"/>
      <point x="133" y="79"/>
      <point x="82" y="56"/>
      <point x="5" y="39" type="curve"/>
      <point x="0" y="0" type="line"/>
      <point x="442" y="0" type="line" smooth="yes"/>
      <point x="800" y="0"/>
      <point x="990" y="361"/>
    </contour>
    <contour>
      <point x="463" y="1109" type="curve" smooth="yes"/>
      <point x="708" y="1109"/>
      <point x="841" y="931"/>
      <point x="841" y="668" type="curve" smooth="yes"/>
      <point x="841" y="410"/>
      <point x="690" y="77"/>
      <point x="418" y="77" type="curve" smooth="yes"/>
      <point x="298" y="77"/>
      <point x="270" y="92"/>
      <point x="275" y="127" type="curve" smooth="yes"/>
      <point x="408" y="1108" type="line"/>
      <point x="426" y="1109"/>
      <point x="445" y="1109"/>
    </contour>
  </outline>
</glyph>
<glyph name="multiply" format="2">
  <advance width="708"/>
  <unicode hex="00D7"/>
  <outline>
    <contour>
      <point x="595" y="257" type="curve"/>
      <point x="599" y="288" type="line"/>
      <point x="208" y="803" type="line"/>
      <point x="184" y="796"/>
      <point x="150" y="785"/>
      <point x="128" y="774" type="curve"/>
      <point x="124" y="743" type="line"/>
      <point x="516" y="229" type="line"/>
      <point x="536" y="234"/>
      <point x="572" y="247"/>
    </contour>
    <contour>
      <point x="55" y="257" type="line"/>
      <point x="76" y="247"/>
      <point x="108" y="234"/>
      <point x="127" y="229" type="curve"/>
      <point x="662" y="743" type="line"/>
      <point x="667" y="774" type="line"/>
      <point x="646" y="785"/>
      <point x="617" y="796"/>
      <point x="594" y="803" type="curve"/>
      <point x="59" y="288" type="line"/>
    </contour>
  </outline>
</glyph>
<glyph name="germandbls" format="2">
  <advance width="919"/>
  <unicode hex="00DF"/>
  <anchor x="351" y="-92" name="L"/>
  <anchor x="570" y="1508" name="U"/>
  <outline>
    <contour>
      <point x="864" y="1127" type="curve"/>
      <point x="864" y="1254"/>
      <point x="774" y="1396"/>
      <point x="616" y="1396" type="curve" smooth="yes"/>
      <point x="561" y="1396"/>
      <point x="482" y="1364"/>
      <point x="416" y="1311" type="curve"/>
      <point x="260" y="1196"/>
      <point x="190" y="1028"/>
      <point x="165" y="827" type="curve" smooth="yes"/>
      <point x="84" y="127" type="line" smooth="yes"/>
      <point x="62" y="-73"/>
      <point x="-14" y="-320"/>
      <point x="-138" y="-388" type="curve"/>
      <point x="-113" y="-446" type="line"/>
      <point x="68" y="-335"/>
      <point x="194" y="-93"/>
      <point x="226" y="177" type="curve" smooth="yes"/>
      <point x="307" y="875" type="line" smooth="yes"/>
      <point x="329" y="1080"/>
      <point x="418" y="1285"/>
      <point x="555" y="1285" type="curve" smooth="yes"/>
      <point x="683" y="1285"/>
      <point x="735" y="1170"/>
      <point x="735" y="1060" type="curve" smooth="yes"/>
      <point x="735" y="817"/>
      <point x="418" y="902"/>
      <point x="418" y="614" type="curve" smooth="yes"/>
      <point x="418" y="418"/>
      <point x="724" y="438"/>
      <point x="724" y="214" type="curve" smooth="yes"/>
      <point x="724" y="111"/>
      <point x="668" y="52"/>
      <point x="571" y="52" type="curve" smooth="yes"/>
      <point x="449" y="52"/>
      <point x="429" y="205"/>
      <point x="406" y="205" type="curve" smooth="yes"/>
      <point x="379" y="205"/>
      <point x="314" y="120"/>
      <point x="314" y="95" type="curve" smooth="yes"/>
      <point x="314" y="41"/>
      <point x="424" y="-37"/>
      <point x="527" y="-37" type="curve" smooth="yes"/>
      <point x="733" y="-37"/>
      <point x="850" y="135"/>
      <point x="850" y="286" type="curve" smooth="yes"/>
      <point x="850" y="514"/>
      <point x="539" y="539"/>
      <point x="539" y="672" type="curve" smooth="yes"/>
      <point x="539" y="841"/>
      <point x="864" y="798"/>
    </contour>
  </outline>
</glyph>
<glyph name="ae" format="2">
  <advance width="1219"/>
  <unicode hex="00E6"/>
  <anchor x="568" y="0" name="H"/>
  <anchor x="551" y="-92" name="L"/>
  <anchor x="855" y="0" name="O"/>
  <anchor x="1295" y="800" name="R"/>
  <anchor x="690" y="920" name="U"/>
  <outline>
    <contour>
      <point x="1168" y="699" type="curve"/>
      <point x="1168" y="778"/>
      <point x="1119" y="861"/>
      <point x="1013" y="861" type="curve" smooth="yes"/>
      <point x="938" y="861"/>
      <point x="850" y="823"/>
      <point x="791" y="778" type="curve" smooth="yes"/>
      <point x="629" y="652"/>
      <point x="537" y="471"/>
      <point x="537" y="278" type="curve" smooth="yes"/>
      <point x="537" y="46"/>
      <point x="678" y="-37"/>
      <point x="759" y="-37" type="curve" smooth="yes"/>
      <point x="848" y="-37"/>
      <point x="943" y="-9"/>
      <point x="1147" y="165" type="curve"/>
      <point x="1141" y="174"/>
      <point x="1132" y="195"/>
      <point x="1119" y="203" type="curve"/>
      <point x="970" y="84"/>
      <point x="877" y="69"/>
      <point x="825" y="69" type="curve" smooth="yes"/>
      <point x="753" y="69"/>
      <point x="667" y="186"/>
      <point x="667" y="346" type="curve" smooth="yes"/>
      <point x="667" y="482"/>
      <point x="751" y="642"/>
      <point x="838" y="719" type="curve" smooth="yes"/>
      <point x="874" y="751"/>
      <point x="917" y="764"/>
      <point x="936" y="764" type="curve" smooth="yes"/>
      <point x="977" y="764"/>
      <point x="1021" y="735"/>
      <point x="1021" y="657" type="curve" smooth="yes"/>
      <point x="1021" y="566"/>
      <point x="987" y="487"/>
      <point x="610" y="350" type="curve"/>
      <point x="587" y="323"/>
      <point x="616" y="282"/>
      <point x="616" y="282" type="curve"/>
      <point x="1109" y="456"/>
      <point x="1168" y="591"/>
    </contour>
    <contour>
      <point x="793" y="828" type="curve"/>
      <point x="774" y="861" type="line"/>
      <point x="693" y="821"/>
      <point x="609" y="755"/>
      <point x="597" y="699" type="curve" smooth="yes"/>
      <point x="584" y="627"/>
      <point x="529" y="258"/>
      <point x="529" y="258" type="curve"/>
      <point x="529" y="258"/>
      <point x="688" y="523"/>
      <point x="723" y="699" type="curve"/>
      <point x="742" y="782"/>
      <point x="751" y="794"/>
    </contour>
    <contour>
      <point x="746" y="774" type="curve"/>
      <point x="702" y="780"/>
      <point x="627" y="861"/>
      <point x="544" y="861" type="curve" smooth="yes"/>
      <point x="469" y="861"/>
      <point x="377" y="819"/>
      <point x="310" y="774" type="curve" smooth="yes"/>
      <point x="135" y="655"/>
      <point x="48" y="474"/>
      <point x="48" y="280" type="curve" smooth="yes"/>
      <point x="48" y="50"/>
      <point x="158" y="-37"/>
      <point x="241" y="-37" type="curve" smooth="yes"/>
      <point x="343" y="-37"/>
      <point x="482" y="145"/>
      <point x="542" y="256" type="curve"/>
      <point x="557" y="420" type="line"/>
      <point x="487" y="273"/>
      <point x="361" y="88"/>
      <point x="299" y="88" type="curve" smooth="yes"/>
      <point x="228" y="88"/>
      <point x="174" y="190"/>
      <point x="174" y="348" type="curve" smooth="yes"/>
      <point x="174" y="494"/>
      <point x="282" y="764"/>
      <point x="449" y="764" type="curve" smooth="yes"/>
      <point x="552" y="764"/>
      <point x="625" y="663"/>
      <point x="659" y="663" type="curve" smooth="yes"/>
      <point x="690" y="663"/>
      <point x="693" y="738"/>
    </contour>
  </outline>
</glyph>
<glyph name="eth" format="2">
  <advance width="814"/>
  <unicode hex="00F0"/>
  <anchor x="335" y="-92" name="L"/>
  <anchor x="550" y="1453" name="U"/>
  <outline>
    <contour>
      <point x="839" y="1186" type="line"/>
      <point x="838" y="1219" type="line"/>
      <point x="812" y="1230"/>
      <point x="816" y="1230"/>
      <point x="767" y="1240" type="curve"/>
      <point x="253" y="1008" type="line"/>
      <point x="258" y="976" type="line"/>
      <point x="291" y="963"/>
      <point x="289" y="963"/>
      <point x="329" y="956" type="curve"/>
    </contour>
    <contour>
      <point x="776" y="650" type="curve"/>
      <point x="776" y="884"/>
      <point x="679" y="1104"/>
      <point x="442" y="1296" type="curve"/>
      <point x="269" y="1230" type="line"/>
      <point x="269" y="1192" type="line"/>
      <point x="390" y="1211"/>
      <point x="456" y="1136"/>
      <point x="519" y="1055" type="curve" smooth="yes"/>
      <point x="602" y="947"/>
      <point x="654" y="827"/>
      <point x="654" y="659" type="curve" smooth="yes"/>
      <point x="654" y="420"/>
      <point x="578" y="62"/>
      <point x="363" y="62" type="curve" smooth="yes"/>
      <point x="264" y="62"/>
      <point x="177" y="197"/>
      <point x="177" y="365" type="curve" smooth="yes"/>
      <point x="177" y="523"/>
      <point x="262" y="759"/>
      <point x="425" y="759" type="curve" smooth="yes"/>
      <point x="542" y="759"/>
      <point x="672" y="609"/>
      <point x="648" y="420" type="curve"/>
      <point x="699" y="597" type="line"/>
      <point x="704" y="708"/>
      <point x="575" y="861"/>
      <point x="463" y="861" type="curve" smooth="yes"/>
      <point x="241" y="861"/>
      <point x="48" y="584"/>
      <point x="48" y="298" type="curve" smooth="yes"/>
      <point x="48" y="103"/>
      <point x="150" y="-37"/>
      <point x="333" y="-37" type="curve" smooth="yes"/>
      <point x="552" y="-37"/>
      <point x="776" y="262"/>
    </contour>
  </outline>
</glyph>
<glyph name="divide" format="2">
  <advance width="708"/>
  <unicode hex="00F7"/>
  <outline>
    <contour>
      <point x="460" y="753" type="curve" smooth="yes"/>
      <point x="466" y="799"/>
      <point x="450" y="823"/>
      <point x="414" y="823" type="curve" smooth="yes"/>
      <point x="371" y="823"/>
      <point x="332" y="779"/>
      <point x="323" y="724" type="curve" smooth="yes"/>
      <point x="317" y="678"/>
      <point x="330" y="653"/>
      <point x="368" y="653" type="curve" smooth="yes"/>
      <point x="412" y="653"/>
      <point x="451" y="699"/>
    </contour>
    <contour>
      <point x="398" y="311" type="curve" smooth="yes"/>
      <point x="404" y="357"/>
      <point x="389" y="381"/>
      <point x="352" y="381" type="curve" smooth="yes"/>
      <point x="310" y="381"/>
      <point x="270" y="337"/>
      <point x="262" y="282" type="curve"/>
      <point x="256" y="237"/>
      <point x="269" y="211"/>
      <point x="308" y="211" type="curve" smooth="yes"/>
      <point x="351" y="211"/>
      <point x="391" y="257"/>
    </contour>
    <contour>
      <point x="657" y="548" type="curve"/>
      <point x="641" y="570" type="line"/>
      <point x="102" y="570" type="line"/>
      <point x="89" y="546"/>
      <point x="73" y="511"/>
      <point x="64" y="486" type="curve"/>
      <point x="81" y="464" type="line"/>
      <point x="621" y="464" type="line"/>
      <point x="632" y="484"/>
      <point x="650" y="523"/>
    </contour>
  </outline>
</glyph>
<glyph name="dotlessi" format="2">
  <advance width="463"/>
  <unicode hex="0131"/>
  <anchor x="193" y="0" name="H"/>
  <anchor x="195" y="-92" name="L"/>
  <anchor x="250" y="0" name="O"/>
  <anchor x="478" y="800" name="R"/>
  <anchor x="307" y="920" name="U"/>
  <outline>
    <contour>
      <point x="418" y="66" type="curve"/>
      <point x="404" y="100" type="line"/>
      <point x="354" y="79"/>
      <point x="323" y="69"/>
      <point x="286" y="69" type="curve" smooth="yes"/>
      <point x="265" y="69"/>
      <point x="258" y="86"/>
      <point x="258" y="124" type="curve" smooth="yes"/>
      <point x="258" y="231"/>
      <point x="354" y="676"/>
      <point x="354" y="783" type="curve" smooth="yes"/>
      <point x="354" y="839"/>
      <point x="341" y="861"/>
      <point x="307" y="861" type="curve" smooth="yes"/>
      <point x="275" y="861"/>
      <point x="167" y="819"/>
      <point x="64" y="772" type="curve"/>
      <point x="77" y="738" type="line"/>
      <point x="108" y="747"/>
      <point x="154" y="760"/>
      <point x="169" y="760" type="curve" smooth="yes"/>
      <point x="192" y="760"/>
      <point x="207" y="755"/>
      <point x="207" y="699" type="curve" smooth="yes"/>
      <point x="207" y="609"/>
      <point x="115" y="179"/>
      <point x="115" y="69" type="curve" smooth="yes"/>
      <point x="115" y="3"/>
      <point x="141" y="-37"/>
      <point x="183" y="-37" type="curve" smooth="yes"/>
      <point x="237" y="-37"/>
      <point x="303" y="-1"/>
    </contour>
  </outline>
</glyph>
<glyph name="OE" format="2">
  <advance width="1369"/>
  <unicode hex="0152"/>
  <anchor x="624" y="-92" name="L"/>
  <anchor x="803" y="1214" name="U"/>
  <outline>
    <contour>
      <point x="1360" y="1136" type="curve"/>
      <point x="1337" y="1159" type="line"/>
      <point x="936" y="1159" type="line"/>
      <point x="900" y="1075" type="line"/>
      <point x="1213" y="1075" type="line" smooth="yes"/>
      <point x="1256" y="1075"/>
      <point x="1271" y="1042"/>
      <point x="1260" y="929" type="curve"/>
      <point x="1299" y="929" type="line"/>
      <point x="1321" y="976"/>
      <point x="1348" y="1073"/>
    </contour>
    <contour>
      <point x="1209" y="650" type="curve"/>
      <point x="1190" y="676" type="line"/>
      <point x="853" y="676" type="line"/>
      <point x="825" y="602" type="line"/>
      <point x="963" y="602" type="line" smooth="yes"/>
      <point x="1057" y="602"/>
      <point x="1091" y="587"/>
      <point x="1119" y="552" type="curve"/>
      <point x="1145" y="571"/>
      <point x="1184" y="616"/>
    </contour>
    <contour>
      <point x="1290" y="224" type="curve"/>
      <point x="1256" y="241" type="line"/>
      <point x="1188" y="97"/>
      <point x="1152" y="82"/>
      <point x="1051" y="82" type="curve" smooth="yes"/>
      <point x="945" y="82" type="line" smooth="yes"/>
      <point x="798" y="82"/>
      <point x="812" y="105"/>
      <point x="816" y="141" type="curve"/>
      <point x="945" y="1081" type="line" smooth="yes"/>
      <point x="947" y="1098"/>
      <point x="992" y="1102"/>
      <point x="1069" y="1119" type="curve"/>
      <point x="1075" y="1159" type="line"/>
      <point x="936" y="1159" type="line"/>
      <point x="702" y="1159" type="line"/>
      <point x="697" y="1119" type="line"/>
      <point x="774" y="1102"/>
      <point x="812" y="1077"/>
      <point x="810" y="1062" type="curve" smooth="yes"/>
      <point x="678" y="95" type="line"/>
      <point x="674" y="79"/>
      <point x="625" y="56"/>
      <point x="550" y="39" type="curve"/>
      <point x="544" y="0" type="line"/>
      <point x="1226" y="0" type="line"/>
      <point x="1240" y="35"/>
      <point x="1267" y="118"/>
    </contour>
    <contour>
      <point x="862" y="1159" type="curve"/>
      <point x="764" y="1159"/>
      <point x="736" y="1186"/>
      <point x="642" y="1186" type="curve" smooth="yes"/>
      <point x="334" y="1186"/>
      <point x="82" y="806"/>
      <point x="82" y="427" type="curve" smooth="yes"/>
      <point x="82" y="177"/>
      <point x="203" y="-28"/>
      <point x="429" y="-28" type="curve" smooth="yes"/>
      <point x="531" y="-28"/>
      <point x="573" y="0"/>
      <point x="704" y="0" type="curve" smooth="yes"/>
      <point x="704" y="0"/>
      <point x="742" y="100"/>
      <point x="693" y="156" type="curve"/>
      <point x="629" y="107"/>
      <point x="563" y="92"/>
      <point x="469" y="92" type="curve" smooth="yes"/>
      <point x="320" y="92"/>
      <point x="217" y="250"/>
      <point x="217" y="482" type="curve" smooth="yes"/>
      <point x="217" y="713"/>
      <point x="323" y="1071"/>
      <point x="604" y="1071" type="curve" smooth="yes"/>
      <point x="706" y="1071"/>
      <point x="793" y="1026"/>
      <point x="844" y="938" type="curve"/>
      <point x="844" y="938"/>
      <point x="846" y="1121"/>
    </contour>
  </outline>
</glyph>
<glyph name="circumflex" format="2">
  <advance width="512"/>
  <unicode hex="02C6"/>
  <outline>
    <contour>
      <point x="608" y="985" type="curve"/>
      <point x="439" y="1326" type="line"/>
      <point x="355" y="1326" type="line"/>
      <point x="93" y="985" type="line"/>
      <point x="105" y="960"/>
      <point x="113" y="951"/>
      <point x="124" y="943" type="curve"/>
      <point x="375" y="1187" type="line"/>
      <point x="566" y="943" type="line"/>
      <point x="586" y="953"/>
      <point x="591" y="960"/>
    </contour>
  </outline>
</glyph>
<glyph name="caron" format="2">
  <advance width="512"/>
  <unicode hex="02C7"/>
  <anchor x="388" y="1260" name="U"/>
  <outline>
    <contour>
      <point x="649" y="1288" type="line"/>
      <point x="638" y="1311"/>
      <point x="634" y="1317"/>
      <point x="620" y="1330" type="curve"/>
      <point x="368" y="1105" type="line"/>
      <point x="176" y="1330" type="line"/>
      <point x="158" y="1315"/>
      <point x="152" y="1311"/>
      <point x="135" y="1288" type="curve"/>
      <point x="307" y="966" type="line"/>
      <point x="391" y="966" type="line"/>
    </contour>
  </outline>
</glyph>
<glyph name="breve" format="2">
  <advance width="574"/>
  <unicode hex="02D8"/>
  <anchor x="383" y="1214" name="U"/>
  <outline>
    <contour>
      <point x="651" y="1228" type="curve"/>
      <point x="639" y="1251"/>
      <point x="628" y="1258"/>
      <point x="611" y="1267" type="curve"/>
      <point x="541" y="1132"/>
      <point x="439" y="1084"/>
      <point x="362" y="1084" type="curve" smooth="yes"/>
      <point x="292" y="1084"/>
      <point x="204" y="1132"/>
      <point x="170" y="1267" type="curve"/>
      <point x="151" y="1258"/>
      <point x="136" y="1249"/>
      <point x="119" y="1228" type="curve"/>
      <point x="161" y="1032"/>
      <point x="243" y="966"/>
      <point x="351" y="966" type="curve" smooth="yes"/>
      <point x="448" y="966"/>
      <point x="560" y="1030"/>
    </contour>
  </outline>
</glyph>
<glyph name="dotaccent" format="2">
  <advance width="309"/>
  <unicode hex="02D9"/>
  <outline>
    <contour>
      <point x="322" y="1161" type="curve"/>
      <point x="322" y="1202"/>
      <point x="300" y="1226"/>
      <point x="263" y="1226" type="curve" smooth="yes"/>
      <point x="195" y="1226"/>
      <point x="149" y="1147"/>
      <point x="149" y="1081" type="curve" smooth="yes"/>
      <point x="149" y="1040"/>
      <point x="172" y="1017"/>
      <point x="209" y="1017" type="curve" smooth="yes"/>
      <point x="279" y="1017"/>
      <point x="322" y="1092"/>
    </contour>
  </outline>
</glyph>
<glyph name="tilde" format="2">
  <advance width="632"/>
  <unicode hex="02DC"/>
  <outline>
    <contour>
      <point x="702" y="1219" type="curve"/>
      <point x="661" y="1238" type="line"/>
      <point x="615" y="1170"/>
      <point x="566" y="1128"/>
      <point x="523" y="1128" type="curve" smooth="yes"/>
      <point x="472" y="1128"/>
      <point x="421" y="1229"/>
      <point x="340" y="1229" type="curve" smooth="yes"/>
      <point x="246" y="1229"/>
      <point x="163" y="1123"/>
      <point x="113" y="1025" type="curve"/>
      <point x="152" y="1006" type="line"/>
      <point x="203" y="1074"/>
      <point x="246" y="1115"/>
      <point x="289" y="1115" type="curve" smooth="yes"/>
      <point x="354" y="1115"/>
      <point x="399" y="1015"/>
      <point x="476" y="1015" type="curve" smooth="yes"/>
      <point x="572" y="1015"/>
      <point x="651" y="1121"/>
    </contour>
  </outline>
</glyph>
<glyph name="hungarumlaut" format="2">
  <advance width="593"/>
  <unicode hex="02DD"/>
  <outline>
    <contour>
      <point x="653" y="1281" type="line"/>
      <point x="638" y="1319" type="line"/>
      <point x="620" y="1328"/>
      <point x="572" y="1338"/>
      <point x="548" y="1342" type="curve"/>
      <point x="353" y="967" type="line"/>
      <point x="369" y="953"/>
      <point x="378" y="945"/>
      <point x="396" y="943" type="curve"/>
    </contour>
    <contour>
      <point x="417" y="1281" type="line"/>
      <point x="402" y="1319" type="line"/>
      <point x="384" y="1328"/>
      <point x="336" y="1338"/>
      <point x="312" y="1342" type="curve"/>
      <point x="117" y="967" type="line"/>
      <point x="134" y="953"/>
      <point x="142" y="945"/>
      <point x="161" y="943" type="curve"/>
    </contour>
  </outline>
</glyph>
<glyph name="pi" format="2">
  <advance width="931"/>
  <unicode hex="03C0"/>
  <anchor x="398" y="-92" name="L"/>
  <anchor x="537" y="920" name="U"/>
  <outline>
    <contour>
      <point x="956" y="878" type="line"/>
      <point x="917" y="848"/>
      <point x="872" y="823"/>
      <point x="823" y="823" type="curve" smooth="yes"/>
      <point x="667" y="823"/>
      <point x="506" y="861"/>
      <point x="242" y="861" type="curve" smooth="yes"/>
      <point x="169" y="861"/>
      <point x="97" y="787"/>
      <point x="18" y="702" type="curve"/>
      <point x="34" y="670" type="line"/>
      <point x="105" y="718"/>
      <point x="147" y="736"/>
      <point x="220" y="736" type="curve" smooth="yes"/>
      <point x="449" y="736"/>
      <point x="584" y="695"/>
      <point x="778" y="695" type="curve" smooth="yes"/>
      <point x="844" y="695"/>
      <point x="917" y="772"/>
      <point x="977" y="851" type="curve"/>
    </contour>
    <contour>
      <point x="872" y="179" type="curve"/>
      <point x="841" y="208" type="line"/>
      <point x="772" y="115"/>
      <point x="740" y="116"/>
      <point x="712" y="116" type="curve" smooth="yes"/>
      <point x="678" y="116"/>
      <point x="648" y="127"/>
      <point x="648" y="256" type="curve" smooth="yes"/>
      <point x="648" y="370"/>
      <point x="694" y="614"/>
      <point x="745" y="770" type="curve"/>
      <point x="651" y="760" type="line"/>
      <point x="547" y="342"/>
      <point x="529" y="214"/>
      <point x="529" y="139" type="curve" smooth="yes"/>
      <point x="529" y="0"/>
      <point x="587" y="-37"/>
      <point x="632" y="-37" type="curve" smooth="yes"/>
      <point x="701" y="-37"/>
      <point x="769" y="0"/>
    </contour>
    <contour>
      <point x="402" y="841" type="curve"/>
      <point x="402" y="841"/>
      <point x="328" y="830"/>
      <point x="301" y="819" type="curve"/>
      <point x="214" y="334"/>
      <point x="163" y="171"/>
      <point x="62" y="-11" type="curve"/>
      <point x="62" y="-11"/>
      <point x="79" y="-35"/>
      <point x="82" y="-43" type="curve"/>
      <point x="138" y="-28"/>
      <point x="222" y="9"/>
      <point x="256" y="30" type="curve"/>
      <point x="270" y="234"/>
      <point x="348" y="614"/>
    </contour>
  </outline>
</glyph>
<glyph name="uni1983" format="2">
  <advance width="1003"/>
  <unicode hex="1983"/>
  <outline>
    <contour>
      <point x="250" y="-610" type="curve" smooth="yes"/>
      <point x="594" y="-610"/>
      <point x="816" y="-301"/>
      <point x="816" y="19" type="curve" smooth="yes" name="hr01"/>
      <point x="816" y="77"/>
      <point x="806" y="149"/>
      <point x="789" y="194" type="curve"/>
      <point x="883" y="318"/>
      <point x="925" y="477"/>
      <point x="925" y="632" type="curve" smooth="yes"/>
      <point x="925" y="842"/>
      <point x="774" y="968"/>
      <point x="582" y="968" type="curve" smooth="yes"/>
      <point x="371" y="968"/>
      <point x="259" y="875"/>
      <point x="178" y="794" type="curve" smooth="yes"/>
      <point x="158" y="774"/>
      <point x="164" y="763"/>
      <point x="207" y="736" type="curve" smooth="yes"/>
      <point x="257" y="705"/>
      <point x="274" y="704"/>
      <point x="283" y="724" type="curve" smooth="yes"/>
      <point x="323" y="812"/>
      <point x="442" y="887"/>
      <point x="547" y="887" type="curve" smooth="yes"/>
      <point x="697" y="887"/>
      <point x="789" y="778"/>
      <point x="789" y="615" type="curve" smooth="yes" name="hr02"/>
      <point x="789" y="508"/>
      <point x="766" y="402"/>
      <point x="718" y="306" type="curve"/>
      <point x="652" y="375"/>
      <point x="538" y="411"/>
      <point x="430" y="411" type="curve" smooth="yes"/>
      <point x="293" y="411"/>
      <point x="51" y="354"/>
      <point x="51" y="173" type="curve" smooth="yes"/>
      <point x="51" y="54"/>
      <point x="224" y="-17"/>
      <point x="384" y="-17" type="curve" smooth="yes"/>
      <point x="505" y="-17"/>
      <point x="597" y="21"/>
      <point x="690" y="93" type="curve"/>
      <point x="694" y="70"/>
      <point x="697" y="26"/>
      <point x="697" y="1" type="curve" smooth="yes"/>
      <point x="697" y="-241"/>
      <point x="506" y="-530"/>
      <point x="243" y="-530" type="curve" smooth="yes"/>
      <point x="123" y="-530"/>
      <point x="-6" y="-482"/>
      <point x="-47" y="-373" type="curve" smooth="yes"/>
      <point x="-63" y="-330"/>
      <point x="-67" y="-315"/>
      <point x="-76" y="-317" type="curve" smooth="yes"/>
      <point x="-83" y="-319"/>
      <point x="-85" y="-354"/>
      <point x="-77" y="-384" type="curve" smooth="yes"/>
      <point x="-45" y="-512"/>
      <point x="62" y="-610"/>
    </contour>
    <contour>
      <point x="381" y="64" type="curve" smooth="yes"/>
      <point x="278" y="64"/>
      <point x="170" y="121"/>
      <point x="170" y="193" type="curve" smooth="yes"/>
      <point x="170" y="300"/>
      <point x="341" y="330"/>
      <point x="421" y="330" type="curve" smooth="yes"/>
      <point x="528" y="330"/>
      <point x="607" y="281"/>
      <point x="652" y="204" type="curve"/>
      <point x="577" y="115"/>
      <point x="478" y="64"/>
    </contour>
  </outline>
</glyph>
<glyph name="uni198A" format="2">
  <advance width="982"/>
  <unicode hex="198A"/>
  <outline>
    <contour>
      <point x="397" y="-17" type="curve" smooth="yes"/>
      <point x="690" y="-17"/>
      <point x="794" y="124"/>
      <point x="877" y="550" type="curve" smooth="yes"/>
      <point x="901" y="675"/>
      <point x="944" y="971"/>
      <point x="968" y="1096" type="curve" smooth="yes"/>
      <point x="1009" y="1309"/>
      <point x="1092" y="1391"/>
      <point x="1185" y="1391" type="curve" smooth="yes"/>
      <point x="1251" y="1391"/>
      <point x="1298" y="1358"/>
      <point x="1298" y="1277" type="curve" smooth="yes"/>
      <point x="1298" y="1211"/>
      <point x="1280" y="1146"/>
      <point x="1252" y="1087" type="curve" smooth="yes"/>
      <point x="1243" y="1068"/>
      <point x="1241" y="1052"/>
      <point x="1245" y="1049" type="curve" smooth="yes"/>
      <point x="1251" y="1044"/>
      <point x="1278" y="1062"/>
      <point x="1293" y="1085" type="curve" smooth="yes"/>
      <point x="1332" y="1147"/>
      <point x="1366" y="1210"/>
      <point x="1366" y="1285" type="curve" smooth="yes"/>
      <point x="1366" y="1378"/>
      <point x="1326" y="1498"/>
      <point x="1172" y="1498" type="curve" smooth="yes"/>
      <point x="1036" y="1498"/>
      <point x="901" y="1376"/>
      <point x="854" y="1133" type="curve" smooth="yes"/>
      <point x="828" y="1002"/>
      <point x="786" y="700"/>
      <point x="760" y="569" type="curve" smooth="yes"/>
      <point x="677" y="140"/>
      <point x="581" y="64"/>
      <point x="394" y="64" type="curve" smooth="yes"/>
      <point x="261" y="64"/>
      <point x="176" y="132"/>
      <point x="176" y="238" type="curve" smooth="yes"/>
      <point x="176" y="348"/>
      <point x="260" y="484"/>
      <point x="379" y="484" type="curve" smooth="yes" name="hr01"/>
      <point x="405" y="484"/>
      <point x="454" y="468"/>
      <point x="462" y="465" type="curve" smooth="yes"/>
      <point x="470" y="462"/>
      <point x="483" y="470"/>
      <point x="494" y="494" type="curve" smooth="yes"/>
      <point x="505" y="518"/>
      <point x="501" y="532"/>
      <point x="493" y="535" type="curve" smooth="yes"/>
      <point x="485" y="538"/>
      <point x="467" y="533"/>
      <point x="402" y="540" type="curve" smooth="yes"/>
      <point x="308" y="549"/>
      <point x="253" y="608"/>
      <point x="253" y="682" type="curve" smooth="yes"/>
      <point x="253" y="774"/>
      <point x="341" y="887"/>
      <point x="437" y="887" type="curve" smooth="yes"/>
      <point x="518" y="887"/>
      <point x="558" y="860"/>
      <point x="582" y="785" type="curve" smooth="yes"/>
      <point x="586" y="774"/>
      <point x="599" y="769"/>
      <point x="634" y="804" type="curve" smooth="yes"/>
      <point x="663" y="834"/>
      <point x="670" y="850"/>
      <point x="665" y="861" type="curve" smooth="yes"/>
      <point x="628" y="936"/>
      <point x="541" y="968"/>
      <point x="431" y="968" type="curve" smooth="yes"/>
      <point x="264" y="968"/>
      <point x="146" y="823"/>
      <point x="146" y="664" type="curve" smooth="yes"/>
      <point x="146" y="598"/>
      <point x="175" y="542"/>
      <point x="224" y="521" type="curve"/>
      <point x="101" y="487"/>
      <point x="43" y="347"/>
      <point x="43" y="227" type="curve" smooth="yes"/>
      <point x="43" y="87"/>
      <point x="162" y="-17"/>
    </contour>
  </outline>
</glyph>
<glyph name="uni198E" format="2">
  <advance width="1628"/>
  <unicode hex="198E"/>
  <outline>
    <contour>
      <point x="385" y="-17" type="curve" smooth="yes"/>
      <point x="709" y="-17"/>
      <point x="868" y="306"/>
      <point x="883" y="588" type="curve"/>
      <point x="922" y="734"/>
      <point x="1061" y="887"/>
      <point x="1210" y="887" type="curve" smooth="yes"/>
      <point x="1318" y="887"/>
      <point x="1420" y="784"/>
      <point x="1420" y="591" type="curve" smooth="yes"/>
      <point x="1420" y="411"/>
      <point x="1324" y="64"/>
      <point x="1109" y="64" type="curve" smooth="yes"/>
      <point x="1048" y="64"/>
      <point x="1030" y="101"/>
      <point x="1016" y="161" type="curve" smooth="yes"/>
      <point x="1012" y="179"/>
      <point x="1002" y="183"/>
      <point x="942" y="148" type="curve" smooth="yes"/>
      <point x="885" y="115"/>
      <point x="878" y="106"/>
      <point x="886" y="87" type="curve" smooth="yes"/>
      <point x="914" y="16"/>
      <point x="999" y="-17"/>
      <point x="1102" y="-17" type="curve" smooth="yes"/>
      <point x="1415" y="-17"/>
      <point x="1554" y="344"/>
      <point x="1554" y="606" type="curve" smooth="yes"/>
      <point x="1554" y="813"/>
      <point x="1449" y="968"/>
      <point x="1244" y="968" type="curve" smooth="yes"/>
      <point x="1065" y="968"/>
      <point x="945" y="863"/>
      <point x="870" y="745" type="curve"/>
      <point x="835" y="883"/>
      <point x="725" y="968"/>
      <point x="556" y="968" type="curve" smooth="yes"/>
      <point x="249" y="968"/>
      <point x="59" y="637"/>
      <point x="59" y="359" type="curve" smooth="yes"/>
      <point x="59" y="155"/>
      <point x="174" y="-17"/>
    </contour>
    <contour>
      <point x="390" y="64" type="curve" smooth="yes"/>
      <point x="275" y="64"/>
      <point x="191" y="152"/>
      <point x="191" y="333" type="curve" smooth="yes"/>
      <point x="191" y="539"/>
      <point x="305" y="887"/>
      <point x="550" y="887" type="curve" smooth="yes"/>
      <point x="665" y="887"/>
      <point x="749" y="793"/>
      <point x="749" y="617" type="curve" smooth="yes"/>
      <point x="749" y="410"/>
      <point x="636" y="64"/>
    </contour>
  </outline>
</glyph>
<glyph name="uni1990" format="2">
  <advance width="1675"/>
  <unicode hex="1990"/>
  <outline>
    <contour>
      <point x="866" y="-610" type="curve" smooth="yes"/>
      <point x="1024" y="-610"/>
      <point x="1351" y="-564"/>
      <point x="1351" y="-340" type="curve" smooth="yes"/>
      <point x="1351" y="-249"/>
      <point x="1279" y="-148"/>
      <point x="1107" y="-148" type="curve" smooth="yes"/>
      <point x="1085" y="-148"/>
      <point x="1062" y="-151"/>
      <point x="1045" y="-157" type="curve"/>
      <point x="1037" y="-144"/>
      <point x="1100" y="-34"/>
      <point x="1113" y="-16" type="curve"/>
      <point x="1113" y="-16"/>
      <point x="1137" y="-17"/>
      <point x="1149" y="-17" type="curve" smooth="yes"/>
      <point x="1470" y="-17"/>
      <point x="1602" y="341"/>
      <point x="1602" y="612" type="curve" smooth="yes"/>
      <point x="1602" y="818"/>
      <point x="1523" y="968"/>
      <point x="1324" y="968" type="curve" smooth="yes"/>
      <point x="1099" y="968"/>
      <point x="987" y="833"/>
      <point x="782" y="476" type="curve" smooth="yes"/>
      <point x="613" y="182"/>
      <point x="528" y="64"/>
      <point x="391" y="64" type="curve" smooth="yes"/>
      <point x="261" y="64"/>
      <point x="192" y="190"/>
      <point x="192" y="338" type="curve" smooth="yes"/>
      <point x="192" y="680"/>
      <point x="375" y="887"/>
      <point x="503" y="887" type="curve" smooth="yes" name="hr01"/>
      <point x="580" y="887"/>
      <point x="611" y="830"/>
      <point x="618" y="791" type="curve" smooth="yes"/>
      <point x="622" y="772"/>
      <point x="632" y="769"/>
      <point x="692" y="804" type="curve" smooth="yes"/>
      <point x="749" y="837"/>
      <point x="756" y="846"/>
      <point x="748" y="865" type="curve" smooth="yes"/>
      <point x="720" y="936"/>
      <point x="625" y="968"/>
      <point x="511" y="968" type="curve" smooth="yes"/>
      <point x="223" y="968"/>
      <point x="59" y="611"/>
      <point x="59" y="363" type="curve" smooth="yes"/>
      <point x="59" y="144"/>
      <point x="148" y="-17"/>
      <point x="358" y="-17" type="curve" smooth="yes"/>
      <point x="594" y="-17"/>
      <point x="666" y="64"/>
      <point x="912" y="474" type="curve" smooth="yes"/>
      <point x="1091" y="772"/>
      <point x="1175" y="866"/>
      <point x="1285" y="866" type="curve" smooth="yes"/>
      <point x="1403" y="866"/>
      <point x="1472" y="797"/>
      <point x="1472" y="637" type="curve" smooth="yes"/>
      <point x="1472" y="448"/>
      <point x="1385" y="64"/>
      <point x="1156" y="64" type="curve" smooth="yes"/>
      <point x="1080" y="64"/>
      <point x="1049" y="122"/>
      <point x="1042" y="161" type="curve" smooth="yes"/>
      <point x="1038" y="180"/>
      <point x="1028" y="183"/>
      <point x="968" y="148" type="curve" smooth="yes"/>
      <point x="911" y="115"/>
      <point x="904" y="106"/>
      <point x="912" y="87" type="curve" smooth="yes"/>
      <point x="929" y="43"/>
      <point x="978" y="10"/>
      <point x="1031" y="-2" type="curve"/>
      <point x="1005" y="-43"/>
      <point x="932" y="-173"/>
      <point x="921" y="-208" type="curve" smooth="yes"/>
      <point x="917" y="-220"/>
      <point x="922" y="-227"/>
      <point x="938" y="-245" type="curve" smooth="yes"/>
      <point x="949" y="-258"/>
      <point x="959" y="-260"/>
      <point x="964" y="-257" type="curve" smooth="yes"/>
      <point x="977" y="-249"/>
      <point x="1047" y="-229"/>
      <point x="1097" y="-229" type="curve" smooth="yes"/>
      <point x="1185" y="-229"/>
      <point x="1233" y="-285"/>
      <point x="1233" y="-349" type="curve" smooth="yes"/>
      <point x="1233" y="-528"/>
      <point x="954" y="-540"/>
      <point x="836" y="-540" type="curve" smooth="yes"/>
      <point x="635" y="-540"/>
      <point x="478" y="-490"/>
      <point x="409" y="-411" type="curve" smooth="yes"/>
      <point x="389" y="-388"/>
      <point x="374" y="-367"/>
      <point x="366" y="-369" type="curve" smooth="yes"/>
      <point x="358" y="-371"/>
      <point x="372" y="-411"/>
      <point x="381" y="-425" type="curve" smooth="yes"/>
      <point x="422" y="-485"/>
      <point x="583" y="-610"/>
    </contour>
  </outline>
</glyph>
<glyph name="uni1995" format="2">
  <advance width="1313"/>
  <unicode hex="1995"/>
  <outline>
    <contour>
      <point x="462" y="-17" type="curve" smooth="yes"/>
      <point x="585" y="-17"/>
      <point x="701" y="30"/>
      <point x="813" y="110" type="curve"/>
      <point x="876" y="31"/>
      <point x="962" y="-17"/>
      <point x="1023" y="-17" type="curve" smooth="yes"/>
      <point x="1089" y="-17"/>
      <point x="1138" y="0"/>
      <point x="1193" y="62" type="curve" smooth="yes"/>
      <point x="1206" y="77"/>
      <point x="1211" y="86"/>
      <point x="1196" y="135" type="curve" smooth="yes"/>
      <point x="1179" y="190"/>
      <point x="1164" y="186"/>
      <point x="1156" y="173" type="curve" smooth="yes"/>
      <point x="1118" y="111"/>
      <point x="1084" y="82"/>
      <point x="1030" y="82" type="curve" smooth="yes" name="hr03"/>
      <point x="988" y="82"/>
      <point x="936" y="117"/>
      <point x="891" y="173" type="curve"/>
      <point x="1033" y="302"/>
      <point x="1169" y="506"/>
      <point x="1169" y="704" type="curve" smooth="yes"/>
      <point x="1169" y="859"/>
      <point x="1088" y="968"/>
      <point x="981" y="968" type="curve" smooth="yes"/>
      <point x="780" y="968"/>
      <point x="675" y="667"/>
      <point x="675" y="494" type="curve" smooth="yes"/>
      <point x="675" y="375"/>
      <point x="717" y="260"/>
      <point x="769" y="174" type="curve"/>
      <point x="684" y="114"/>
      <point x="585" y="77"/>
      <point x="482" y="77" type="curve" smooth="yes"/>
      <point x="276" y="77"/>
      <point x="168" y="149"/>
      <point x="168" y="250" type="curve" smooth="yes"/>
      <point x="168" y="371"/>
      <point x="252" y="483"/>
      <point x="379" y="483" type="curve" smooth="yes" name="hr02"/>
      <point x="405" y="483"/>
      <point x="454" y="468"/>
      <point x="462" y="465" type="curve" smooth="yes"/>
      <point x="470" y="462"/>
      <point x="483" y="470"/>
      <point x="494" y="494" type="curve" smooth="yes"/>
      <point x="505" y="518"/>
      <point x="501" y="532"/>
      <point x="493" y="535" type="curve" smooth="yes"/>
      <point x="485" y="538"/>
      <point x="467" y="533"/>
      <point x="402" y="540" type="curve" smooth="yes"/>
      <point x="307" y="549"/>
      <point x="254" y="612"/>
      <point x="254" y="686" type="curve" smooth="yes"/>
      <point x="254" y="773"/>
      <point x="332" y="885"/>
      <point x="426" y="885" type="curve" smooth="yes"/>
      <point x="486" y="885"/>
      <point x="517" y="881"/>
      <point x="549" y="785" type="curve" smooth="yes"/>
      <point x="553" y="774"/>
      <point x="567" y="769"/>
      <point x="602" y="804" type="curve" smooth="yes"/>
      <point x="631" y="834"/>
      <point x="638" y="850"/>
      <point x="633" y="861" type="curve" smooth="yes"/>
      <point x="596" y="936"/>
      <point x="530" y="968"/>
      <point x="420" y="968" type="curve" smooth="yes"/>
      <point x="259" y="968"/>
      <point x="145" y="812"/>
      <point x="145" y="660" type="curve" smooth="yes" name="hr01"/>
      <point x="145" y="593"/>
      <point x="175" y="542"/>
      <point x="224" y="521" type="curve"/>
      <point x="109" y="476"/>
      <point x="56" y="372"/>
      <point x="56" y="255" type="curve" smooth="yes"/>
      <point x="56" y="76"/>
      <point x="209" y="-17"/>
    </contour>
    <contour>
      <point x="846" y="239" type="curve"/>
      <point x="807" y="309"/>
      <point x="777" y="396"/>
      <point x="777" y="489" type="curve" smooth="yes"/>
      <point x="777" y="603"/>
      <point x="824" y="835"/>
      <point x="961" y="835" type="curve" smooth="yes"/>
      <point x="1027" y="835"/>
      <point x="1060" y="777"/>
      <point x="1060" y="689" type="curve" smooth="yes"/>
      <point x="1060" y="524"/>
      <point x="961" y="350"/>
    </contour>
  </outline>
</glyph>
<glyph name="uni199C" format="2">
  <advance width="1675"/>
  <unicode hex="199C"/>
  <outline>
    <contour>
      <point x="266" y="-610" type="curve" smooth="yes"/>
      <point x="379" y="-610"/>
      <point x="428" y="-553"/>
      <point x="424" y="-537" type="curve" smooth="yes"/>
      <point x="420" y="-523"/>
      <point x="367" y="-569"/>
      <point x="311" y="-569" type="curve" smooth="yes"/>
      <point x="237" y="-569"/>
      <point x="187" y="-502"/>
      <point x="187" y="-426" type="curve" smooth="yes"/>
      <point x="187" y="-307"/>
      <point x="269" y="-225"/>
      <point x="388" y="-225" type="curve" smooth="yes"/>
      <point x="472" y="-225"/>
      <point x="534" y="-260"/>
      <point x="698" y="-450" type="curve" smooth="yes"/>
      <point x="789" y="-555"/>
      <point x="910" y="-610"/>
      <point x="1002" y="-610" type="curve" smooth="yes"/>
      <point x="1072" y="-610"/>
      <point x="1128" y="-596"/>
      <point x="1185" y="-526" type="curve" smooth="yes"/>
      <point x="1209" y="-496"/>
      <point x="1265" y="-378"/>
      <point x="1292" y="-246" type="curve" smooth="yes"/>
      <point x="1308" y="-170"/>
      <point x="1330" y="-26"/>
      <point x="1333" y="30" type="curve"/>
      <point x="1524" y="138"/>
      <point x="1602" y="400"/>
      <point x="1602" y="612" type="curve" smooth="yes"/>
      <point x="1602" y="818"/>
      <point x="1523" y="968"/>
      <point x="1324" y="968" type="curve" smooth="yes"/>
      <point x="1099" y="968"/>
      <point x="987" y="833"/>
      <point x="782" y="476" type="curve" smooth="yes"/>
      <point x="613" y="182"/>
      <point x="528" y="64"/>
      <point x="391" y="64" type="curve" smooth="yes"/>
      <point x="261" y="64"/>
      <point x="192" y="190"/>
      <point x="192" y="338" type="curve" smooth="yes"/>
      <point x="192" y="680"/>
      <point x="375" y="887"/>
      <point x="503" y="887" type="curve" smooth="yes" name="hr02"/>
      <point x="580" y="887"/>
      <point x="611" y="830"/>
      <point x="618" y="791" type="curve" smooth="yes"/>
      <point x="622" y="772"/>
      <point x="632" y="769"/>
      <point x="692" y="804" type="curve" smooth="yes"/>
      <point x="749" y="837"/>
      <point x="756" y="846"/>
      <point x="748" y="865" type="curve" smooth="yes"/>
      <point x="720" y="936"/>
      <point x="625" y="968"/>
      <point x="511" y="968" type="curve" smooth="yes"/>
      <point x="223" y="968"/>
      <point x="59" y="611"/>
      <point x="59" y="363" type="curve" smooth="yes"/>
      <point x="59" y="144"/>
      <point x="148" y="-17"/>
      <point x="358" y="-17" type="curve" smooth="yes"/>
      <point x="594" y="-17"/>
      <point x="666" y="64"/>
      <point x="912" y="474" type="curve" smooth="yes"/>
      <point x="1091" y="772"/>
      <point x="1175" y="866"/>
      <point x="1285" y="866" type="curve" smooth="yes"/>
      <point x="1403" y="866"/>
      <point x="1472" y="797"/>
      <point x="1472" y="637" type="curve" smooth="yes"/>
      <point x="1472" y="448"/>
      <point x="1385" y="64"/>
      <point x="1156" y="64" type="curve" smooth="yes"/>
      <point x="1080" y="64"/>
      <point x="1049" y="122"/>
      <point x="1042" y="161" type="curve" smooth="yes"/>
      <point x="1038" y="180"/>
      <point x="1028" y="183"/>
      <point x="968" y="148" type="curve" smooth="yes"/>
      <point x="911" y="115"/>
      <point x="904" y="106"/>
      <point x="912" y="87" type="curve" smooth="yes"/>
      <point x="940" y="16"/>
      <point x="1035" y="-17"/>
      <point x="1149" y="-17" type="curve" smooth="yes"/>
      <point x="1176" y="-17"/>
      <point x="1201" y="-15"/>
      <point x="1225" y="-10" type="curve"/>
      <point x="1222" y="-66"/>
      <point x="1208" y="-178"/>
      <point x="1190" y="-250" type="curve" smooth="yes"/>
      <point x="1165" y="-349"/>
      <point x="1140" y="-446"/>
      <point x="1110" y="-480" type="curve" smooth="yes"/>
      <point x="1080" y="-515"/>
      <point x="1049" y="-529"/>
      <point x="1025" y="-529" type="curve" smooth="yes" name="hr01"/>
      <point x="954" y="-529"/>
      <point x="852" y="-440"/>
      <point x="752" y="-320" type="curve" smooth="yes"/>
      <point x="670" y="-222"/>
      <point x="541" y="-143"/>
      <point x="409" y="-143" type="curve" smooth="yes"/>
      <point x="243" y="-143"/>
      <point x="55" y="-251"/>
      <point x="55" y="-438" type="curve" smooth="yes"/>
      <point x="55" y="-540"/>
      <point x="150" y="-610"/>
    </contour>
  </outline>
</glyph>
<glyph name="uni19A2" format="2">
  <advance width="1028"/>
  <unicode hex="19A2"/>
  <outline>
    <contour>
      <point x="428" y="-17" type="curve" smooth="yes"/>
      <point x="784" y="-17"/>
      <point x="954" y="313"/>
      <point x="954" y="628" type="curve" smooth="yes"/>
      <point x="954" y="800"/>
      <point x="893" y="924"/>
      <point x="805" y="966" type="curve" smooth="yes"/>
      <point x="791" y="973"/>
      <point x="778" y="972"/>
      <point x="748" y="926" type="curve" smooth="yes"/>
      <point x="716" y="877"/>
      <point x="713" y="861"/>
      <point x="722" y="860" type="curve" smooth="yes"/>
      <point x="804" y="846"/>
      <point x="850" y="743"/>
      <point x="850" y="610" type="curve" smooth="yes"/>
      <point x="850" y="361"/>
      <point x="724" y="117"/>
      <point x="444" y="117" type="curve" smooth="yes"/>
      <point x="304" y="117"/>
      <point x="169" y="208"/>
      <point x="169" y="406" type="curve" smooth="yes"/>
      <point x="169" y="572"/>
      <point x="254" y="829"/>
      <point x="435" y="860" type="curve" smooth="yes"/>
      <point x="444" y="862"/>
      <point x="449" y="877"/>
      <point x="435" y="926" type="curve" smooth="yes"/>
      <point x="421" y="972"/>
      <point x="411" y="973"/>
      <point x="394" y="966" type="curve" smooth="yes"/>
      <point x="176" y="878"/>
      <point x="62" y="592"/>
      <point x="62" y="368" type="curve" smooth="yes"/>
      <point x="62" y="128"/>
      <point x="214" y="-17"/>
    </contour>
  </outline>
</glyph>
<glyph name="uni19A4" format="2">
  <advance width="942"/>
  <unicode hex="19A4"/>
  <outline>
    <contour>
      <point x="199" y="-610" type="curve" smooth="yes"/>
      <point x="473" y="-610"/>
      <point x="719" y="-477"/>
      <point x="719" y="-176" type="curve" smooth="yes"/>
      <point x="719" y="-56"/>
      <point x="642" y="2"/>
      <point x="524" y="29" type="curve"/>
      <point x="743" y="117"/>
      <point x="850" y="358"/>
      <point x="850" y="585" type="curve" smooth="yes"/>
      <point x="850" y="804"/>
      <point x="712" y="968"/>
      <point x="478" y="968" type="curve" smooth="yes"/>
      <point x="323" y="968"/>
      <point x="190" y="905"/>
      <point x="113" y="820" type="curve" smooth="yes"/>
      <point x="105" y="811"/>
      <point x="90" y="793"/>
      <point x="112" y="749" type="curve" smooth="yes"/>
      <point x="142" y="690"/>
      <point x="164" y="689"/>
      <point x="190" y="730" type="curve" smooth="yes"/>
      <point x="236" y="803"/>
      <point x="322" y="887"/>
      <point x="460" y="887" type="curve" smooth="yes"/>
      <point x="576" y="887"/>
      <point x="715" y="836"/>
      <point x="715" y="593" type="curve" smooth="yes" name="hr01"/>
      <point x="715" y="397"/>
      <point x="612" y="102"/>
      <point x="439" y="73" type="curve" smooth="yes"/>
      <point x="386" y="64"/>
      <point x="360" y="52"/>
      <point x="340" y="45" type="curve" smooth="yes"/>
      <point x="334" y="43"/>
      <point x="331" y="32"/>
      <point x="337" y="12" type="curve" smooth="yes"/>
      <point x="345" y="-17"/>
      <point x="355" y="-18"/>
      <point x="365" y="-15" type="curve" smooth="yes"/>
      <point x="372" y="-13"/>
      <point x="392" y="-10"/>
      <point x="404" y="-10" type="curve" smooth="yes"/>
      <point x="510" y="-10"/>
      <point x="599" y="-84"/>
      <point x="599" y="-205" type="curve" smooth="yes"/>
      <point x="599" y="-414"/>
      <point x="423" y="-526"/>
      <point x="166" y="-526" type="curve" smooth="yes"/>
      <point x="48" y="-526"/>
      <point x="-85" y="-480"/>
      <point x="-123" y="-426" type="curve" smooth="yes"/>
      <point x="-142" y="-399"/>
      <point x="-155" y="-388"/>
      <point x="-166" y="-394" type="curve" smooth="yes"/>
      <point x="-179" y="-402"/>
      <point x="-167" y="-426"/>
      <point x="-152" y="-453" type="curve" smooth="yes"/>
      <point x="-99" y="-546"/>
      <point x="50" y="-610"/>
    </contour>
    <contour>
      <point x="252" y="1071" type="curve" smooth="yes"/>
      <point x="257" y="1061"/>
      <point x="296" y="1071"/>
      <point x="321" y="1082" type="curve" smooth="yes"/>
      <point x="406" y="1117"/>
      <point x="512" y="1185"/>
      <point x="574" y="1271" type="curve"/>
      <point x="602" y="1185"/>
      <point x="678" y="1121"/>
      <point x="753" y="1082" type="curve" smooth="yes"/>
      <point x="775" y="1071"/>
      <point x="811" y="1065"/>
      <point x="817" y="1071" type="curve" smooth="yes"/>
      <point x="824" y="1077"/>
      <point x="802" y="1096"/>
      <point x="786" y="1110" type="curve" smooth="yes"/>
      <point x="741" y="1150"/>
      <point x="662" y="1246"/>
      <point x="652" y="1390" type="curve" smooth="yes"/>
      <point x="651" y="1402"/>
      <point x="642" y="1408"/>
      <point x="601" y="1408" type="curve" smooth="yes"/>
      <point x="557" y="1408"/>
      <point x="548" y="1402"/>
      <point x="542" y="1390" type="curve" smooth="yes"/>
      <point x="475" y="1244"/>
      <point x="360" y="1150"/>
      <point x="300" y="1110" type="curve" smooth="yes"/>
      <point x="278" y="1096"/>
      <point x="249" y="1078"/>
    </contour>
  </outline>
</glyph>
<glyph name="uni19AA" format="2">
  <advance width="1672"/>
  <unicode hex="19AA"/>
  <outline>
    <contour>
      <point x="443" y="-17" type="curve" smooth="yes"/>
      <point x="620" y="-17"/>
      <point x="765" y="58"/>
      <point x="858" y="210" type="curve"/>
      <point x="887" y="88"/>
      <point x="979" y="-17"/>
      <point x="1170" y="-17" type="curve" smooth="yes"/>
      <point x="1521" y="-17"/>
      <point x="1704" y="335"/>
      <point x="1704" y="654" type="curve" smooth="yes"/>
      <point x="1704" y="885"/>
      <point x="1581" y="968"/>
      <point x="1434" y="968" type="curve" smooth="yes"/>
      <point x="1237" y="968"/>
      <point x="1163" y="903"/>
      <point x="1098" y="832" type="curve" smooth="yes"/>
      <point x="1082" y="814"/>
      <point x="1087" y="804"/>
      <point x="1130" y="771" type="curve" smooth="yes"/>
      <point x="1178" y="736"/>
      <point x="1192" y="739"/>
      <point x="1200" y="759" type="curve" smooth="yes"/>
      <point x="1226" y="820"/>
      <point x="1293" y="887"/>
      <point x="1369" y="887" type="curve" smooth="yes"/>
      <point x="1492" y="887"/>
      <point x="1568" y="808"/>
      <point x="1568" y="637" type="curve" smooth="yes"/>
      <point x="1568" y="372"/>
      <point x="1396" y="64"/>
      <point x="1188" y="64" type="curve" smooth="yes"/>
      <point x="1055" y="64"/>
      <point x="925" y="166"/>
      <point x="922" y="347" type="curve"/>
      <point x="955" y="439"/>
      <point x="973" y="540"/>
      <point x="973" y="645" type="curve" smooth="yes"/>
      <point x="973" y="873"/>
      <point x="853" y="968"/>
      <point x="670" y="968" type="curve" smooth="yes"/>
      <point x="460" y="968"/>
      <point x="328" y="875"/>
      <point x="247" y="794" type="curve" smooth="yes"/>
      <point x="227" y="774"/>
      <point x="233" y="763"/>
      <point x="276" y="736" type="curve" smooth="yes"/>
      <point x="326" y="705"/>
      <point x="342" y="704"/>
      <point x="351" y="724" type="curve" smooth="yes"/>
      <point x="390" y="812"/>
      <point x="506" y="887"/>
      <point x="605" y="887" type="curve" smooth="yes"/>
      <point x="750" y="887"/>
      <point x="839" y="815"/>
      <point x="839" y="633" type="curve" smooth="yes"/>
      <point x="839" y="375"/>
      <point x="693" y="64"/>
      <point x="461" y="64" type="curve" smooth="yes"/>
      <point x="321" y="64"/>
      <point x="265" y="163"/>
      <point x="257" y="247" type="curve" smooth="yes"/>
      <point x="252" y="293"/>
      <point x="211" y="267"/>
      <point x="178" y="247" type="curve" smooth="yes"/>
      <point x="121" y="214"/>
      <point x="113" y="203"/>
      <point x="122" y="186" type="curve" smooth="yes"/>
      <point x="183" y="65"/>
      <point x="292" y="-17"/>
    </contour>
    <contour>
      <point x="716" y="-610" type="curve" smooth="yes"/>
      <point x="1061" y="-610"/>
      <point x="1246" y="-508"/>
      <point x="1246" y="-369" type="curve" smooth="yes"/>
      <point x="1246" y="-264"/>
      <point x="1113" y="-180"/>
      <point x="800" y="-180" type="curve" smooth="yes"/>
      <point x="421" y="-180"/>
      <point x="269" y="-296"/>
      <point x="269" y="-422" type="curve" smooth="yes"/>
      <point x="269" y="-527"/>
      <point x="398" y="-610"/>
    </contour>
    <contour>
      <point x="731" y="-535" type="curve" smooth="yes"/>
      <point x="513" y="-535"/>
      <point x="400" y="-478"/>
      <point x="400" y="-408" type="curve" smooth="yes"/>
      <point x="400" y="-332"/>
      <point x="530" y="-255"/>
      <point x="785" y="-255" type="curve" smooth="yes"/>
      <point x="990" y="-255"/>
      <point x="1117" y="-316"/>
      <point x="1117" y="-384" type="curve" smooth="yes"/>
      <point x="1117" y="-474"/>
      <point x="957" y="-535"/>
    </contour>
  </outline>
</glyph>
<glyph name="uni19B2" format="2">
  <advance width="921"/>
  <unicode hex="19B2"/>
  <outline>
    <contour>
      <point x="365" y="-17" type="curve" smooth="yes"/>
      <point x="768" y="-17"/>
      <point x="916" y="748"/>
      <point x="916" y="1081" type="curve" smooth="yes"/>
      <point x="916" y="1320"/>
      <point x="839" y="1498"/>
      <point x="639" y="1498" type="curve" smooth="yes"/>
      <point x="258" y="1498"/>
      <point x="95" y="770"/>
      <point x="95" y="448" type="curve" smooth="yes"/>
      <point x="95" y="198"/>
      <point x="173" y="-17"/>
    </contour>
    <contour>
      <point x="370" y="64" type="curve" smooth="yes"/>
      <point x="265" y="64"/>
      <point x="220" y="202"/>
      <point x="220" y="396" type="curve" smooth="yes"/>
      <point x="220" y="477"/>
      <point x="229" y="567"/>
      <point x="244" y="662" type="curve"/>
      <point x="283" y="711"/>
      <point x="393" y="835"/>
      <point x="520" y="835" type="curve" smooth="yes"/>
      <point x="640" y="835"/>
      <point x="708" y="731"/>
      <point x="733" y="680" type="curve"/>
      <point x="662" y="357"/>
      <point x="531" y="64"/>
    </contour>
    <contour>
      <point x="277" y="826" type="curve"/>
      <point x="351" y="1146"/>
      <point x="481" y="1417"/>
      <point x="633" y="1417" type="curve" smooth="yes"/>
      <point x="740" y="1417"/>
      <point x="785" y="1289"/>
      <point x="785" y="1103" type="curve" smooth="yes"/>
      <point x="785" y="1021"/>
      <point x="777" y="928"/>
      <point x="761" y="829" type="curve"/>
      <point x="721" y="863"/>
      <point x="630" y="916"/>
      <point x="526" y="916" type="curve" smooth="yes"/>
      <point x="418" y="916"/>
      <point x="327" y="859"/>
    </contour>
  </outline>
</glyph>
<glyph name="uni19BE" format="2">
  <advance width="1166"/>
  <unicode hex="19BE"/>
  <outline>
    <contour>
      <point x="147" y="-17" type="curve" smooth="yes"/>
      <point x="209" y="-17"/>
      <point x="281" y="26"/>
      <point x="364" y="96" type="curve"/>
      <point x="427" y="26"/>
      <point x="517" y="-17"/>
      <point x="606" y="-17" type="curve" smooth="yes"/>
      <point x="827" y="-17"/>
      <point x="962" y="113"/>
      <point x="1026" y="444" type="curve" smooth="yes"/>
      <point x="1065" y="646"/>
      <point x="1085" y="944"/>
      <point x="1115" y="1096" type="curve" smooth="yes"/>
      <point x="1156" y="1309"/>
      <point x="1239" y="1391"/>
      <point x="1332" y="1391" type="curve" smooth="yes"/>
      <point x="1407" y="1391"/>
      <point x="1444" y="1351"/>
      <point x="1444" y="1275" type="curve" smooth="yes"/>
      <point x="1444" y="1218"/>
      <point x="1430" y="1151"/>
      <point x="1405" y="1100" type="curve" smooth="yes"/>
      <point x="1391" y="1072"/>
      <point x="1386" y="1055"/>
      <point x="1393" y="1049" type="curve" smooth="yes"/>
      <point x="1400" y="1043"/>
      <point x="1430" y="1066"/>
      <point x="1449" y="1099" type="curve" smooth="yes"/>
      <point x="1487" y="1166"/>
      <point x="1513" y="1228"/>
      <point x="1513" y="1306" type="curve" smooth="yes"/>
      <point x="1513" y="1417"/>
      <point x="1450" y="1498"/>
      <point x="1318" y="1498" type="curve" smooth="yes"/>
      <point x="1182" y="1498"/>
      <point x="1048" y="1386"/>
      <point x="1001" y="1143" type="curve" smooth="yes"/>
      <point x="969" y="978"/>
      <point x="949" y="680"/>
      <point x="909" y="473" type="curve" smooth="yes"/>
      <point x="856" y="199"/>
      <point x="747" y="64"/>
      <point x="619" y="64" type="curve" smooth="yes" name="hr02"/>
      <point x="559" y="64"/>
      <point x="495" y="105"/>
      <point x="441" y="170" type="curve"/>
      <point x="568" y="304"/>
      <point x="708" y="522"/>
      <point x="708" y="715" type="curve" smooth="yes"/>
      <point x="708" y="856"/>
      <point x="624" y="968"/>
      <point x="521" y="968" type="curve" smooth="yes"/>
      <point x="314" y="968"/>
      <point x="221" y="686"/>
      <point x="221" y="512" type="curve" smooth="yes"/>
      <point x="221" y="384"/>
      <point x="254" y="260"/>
      <point x="311" y="167" type="curve"/>
      <point x="249" y="115"/>
      <point x="193" y="82"/>
      <point x="158" y="82" type="curve" smooth="yes" name="hr01"/>
      <point x="78" y="82"/>
      <point x="45" y="116"/>
      <point x="25" y="173" type="curve" smooth="yes"/>
      <point x="21" y="185"/>
      <point x="5" y="186"/>
      <point x="-31" y="135" type="curve" smooth="yes"/>
      <point x="-64" y="87"/>
      <point x="-66" y="72"/>
      <point x="-56" y="62" type="curve" smooth="yes"/>
      <point x="2" y="3"/>
      <point x="97" y="-17"/>
    </contour>
    <contour>
      <point x="391" y="244" type="curve"/>
      <point x="349" y="320"/>
      <point x="320" y="411"/>
      <point x="320" y="506" type="curve" smooth="yes"/>
      <point x="320" y="615"/>
      <point x="369" y="835"/>
      <point x="501" y="835" type="curve" smooth="yes"/>
      <point x="565" y="835"/>
      <point x="600" y="778"/>
      <point x="600" y="694" type="curve" smooth="yes"/>
      <point x="600" y="528"/>
      <point x="499" y="361"/>
    </contour>
  </outline>
</glyph>
<glyph name="uni19C0" format="2">
  <advance width="1373"/>
  <unicode hex="19C0"/>
  <outline>
    <contour>
      <point x="748" y="-610" type="curve" smooth="yes"/>
      <point x="905" y="-610"/>
      <point x="1043" y="-445"/>
      <point x="1138" y="44" type="curve" smooth="yes"/>
      <point x="1187" y="299"/>
      <point x="1308" y="895"/>
      <point x="1312" y="917" type="curve" smooth="yes"/>
      <point x="1317" y="943"/>
      <point x="1312" y="952"/>
      <point x="1251" y="952" type="curve" smooth="yes"/>
      <point x="1180" y="952"/>
      <point x="1176" y="947"/>
      <point x="1170" y="914" type="curve" smooth="yes"/>
      <point x="1166" y="894"/>
      <point x="1167" y="828"/>
      <point x="1069" y="322" type="curve" smooth="yes"/>
      <point x="928" y="-402"/>
      <point x="857" y="-530"/>
      <point x="744" y="-530" type="curve" smooth="yes"/>
      <point x="700" y="-530"/>
      <point x="657" y="-496"/>
      <point x="657" y="-390" type="curve" smooth="yes"/>
      <point x="657" y="-354"/>
      <point x="662" y="-309"/>
      <point x="672" y="-254" type="curve" smooth="yes"/>
      <point x="681" y="-202"/>
      <point x="762" y="218"/>
      <point x="808" y="454" type="curve"/>
      <point x="884" y="676"/>
      <point x="916" y="925"/>
      <point x="916" y="1081" type="curve" smooth="yes"/>
      <point x="916" y="1320"/>
      <point x="839" y="1498"/>
      <point x="639" y="1498" type="curve" smooth="yes"/>
      <point x="258" y="1498"/>
      <point x="95" y="770"/>
      <point x="95" y="448" type="curve" smooth="yes"/>
      <point x="95" y="198"/>
      <point x="173" y="-17"/>
      <point x="365" y="-17" type="curve" smooth="yes"/>
      <point x="463" y="-17"/>
      <point x="545" y="28"/>
      <point x="614" y="100" type="curve"/>
      <point x="590" y="-24"/>
      <point x="561" y="-173"/>
      <point x="548" y="-244" type="curve" smooth="yes"/>
      <point x="537" y="-302"/>
      <point x="532" y="-352"/>
      <point x="532" y="-396" type="curve" smooth="yes"/>
      <point x="532" y="-530"/>
      <point x="608" y="-610"/>
    </contour>
    <contour>
      <point x="370" y="64" type="curve" smooth="yes"/>
      <point x="265" y="64"/>
      <point x="220" y="202"/>
      <point x="220" y="396" type="curve" smooth="yes"/>
      <point x="220" y="477"/>
      <point x="229" y="567"/>
      <point x="244" y="662" type="curve"/>
      <point x="283" y="711"/>
      <point x="393" y="835"/>
      <point x="520" y="835" type="curve" smooth="yes"/>
      <point x="640" y="835"/>
      <point x="708" y="731"/>
      <point x="733" y="680" type="curve"/>
      <point x="662" y="357"/>
      <point x="531" y="64"/>
    </contour>
    <contour>
      <point x="277" y="826" type="curve"/>
      <point x="351" y="1146"/>
      <point x="481" y="1417"/>
      <point x="633" y="1417" type="curve" smooth="yes"/>
      <point x="740" y="1417"/>
      <point x="785" y="1289"/>
      <point x="785" y="1103" type="curve" smooth="yes"/>
      <point x="785" y="1021"/>
      <point x="777" y="928"/>
      <point x="761" y="829" type="curve"/>
      <point x="721" y="863"/>
      <point x="630" y="916"/>
      <point x="526" y="916" type="curve" smooth="yes"/>
      <point x="418" y="916"/>
      <point x="327" y="859"/>
    </contour>
  </outline>
</glyph>
<glyph name="uni19C3" format="2">
  <advance width="957"/>
  <unicode hex="19C3"/>
  <outline>
    <contour>
      <point x="259" y="-610" type="curve" smooth="yes"/>
      <point x="503" y="-610"/>
      <point x="777" y="-479"/>
      <point x="777" y="-125" type="curve" smooth="yes"/>
      <point x="777" y="69"/>
      <point x="613" y="163"/>
      <point x="470" y="163" type="curve" smooth="yes"/>
      <point x="306" y="163"/>
      <point x="291" y="122"/>
      <point x="251" y="122" type="curve" smooth="yes"/>
      <point x="232" y="122"/>
      <point x="164" y="147"/>
      <point x="164" y="289" type="curve" smooth="yes"/>
      <point x="164" y="508"/>
      <point x="298" y="887"/>
      <point x="555" y="887" type="curve" smooth="yes"/>
      <point x="671" y="887"/>
      <point x="768" y="829"/>
      <point x="833" y="728" type="curve" smooth="yes"/>
      <point x="843" y="712"/>
      <point x="852" y="710"/>
      <point x="895" y="750" type="curve" smooth="yes"/>
      <point x="944" y="795"/>
      <point x="944" y="803"/>
      <point x="932" y="815" type="curve" smooth="yes"/>
      <point x="841" y="910"/>
      <point x="707" y="968"/>
      <point x="590" y="968" type="curve" smooth="yes"/>
      <point x="224" y="968"/>
      <point x="33" y="537"/>
      <point x="33" y="216" type="curve" smooth="yes"/>
      <point x="33" y="79"/>
      <point x="86" y="-17"/>
      <point x="173" y="-17" type="curve" smooth="yes"/>
      <point x="237" y="-17"/>
      <point x="302" y="89"/>
      <point x="427" y="89" type="curve" smooth="yes"/>
      <point x="517" y="89"/>
      <point x="642" y="25"/>
      <point x="642" y="-139" type="curve" smooth="yes"/>
      <point x="642" y="-366"/>
      <point x="483" y="-531"/>
      <point x="265" y="-531" type="curve" smooth="yes"/>
      <point x="207" y="-531"/>
      <point x="180" y="-529"/>
      <point x="143" y="-522" type="curve"/>
      <point x="194" y="-510"/>
      <point x="241" y="-450"/>
      <point x="241" y="-387" type="curve" smooth="yes"/>
      <point x="241" y="-307"/>
      <point x="175" y="-258"/>
      <point x="95" y="-258" type="curve" smooth="yes"/>
      <point x="3" y="-258"/>
      <point x="-66" y="-327"/>
      <point x="-66" y="-416" type="curve" smooth="yes"/>
      <point x="-66" y="-512"/>
      <point x="34" y="-610"/>
    </contour>
    <contour>
      <point x="77" y="-493" type="curve" smooth="yes"/>
      <point x="45" y="-493"/>
      <point x="1" y="-465"/>
      <point x="1" y="-415" type="curve" smooth="yes"/>
      <point x="1" y="-359"/>
      <point x="38" y="-318"/>
      <point x="96" y="-318" type="curve" smooth="yes"/>
      <point x="142" y="-318"/>
      <point x="176" y="-347"/>
      <point x="176" y="-392" type="curve" smooth="yes"/>
      <point x="176" y="-446"/>
      <point x="133" y="-493"/>
    </contour>
  </outline>
</glyph>
<glyph name="uni19C4" format="2">
  <advance width="1028"/>
  <unicode hex="19C4"/>
  <outline>
    <contour>
      <point x="329" y="-610" type="curve" smooth="yes"/>
      <point x="586" y="-610"/>
      <point x="832" y="-370"/>
      <point x="832" y="-16" type="curve" smooth="yes"/>
      <point x="832" y="53"/>
      <point x="817" y="108"/>
      <point x="793" y="157" type="curve"/>
      <point x="901" y="271"/>
      <point x="954" y="426"/>
      <point x="954" y="629" type="curve" smooth="yes"/>
      <point x="954" y="800"/>
      <point x="895" y="923"/>
      <point x="805" y="966" type="curve" smooth="yes"/>
      <point x="791" y="973"/>
      <point x="780" y="975"/>
      <point x="748" y="926" type="curve" smooth="yes"/>
      <point x="716" y="877"/>
      <point x="713" y="862"/>
      <point x="722" y="860" type="curve" smooth="yes"/>
      <point x="811" y="841"/>
      <point x="851" y="749"/>
      <point x="851" y="619" type="curve" smooth="yes"/>
      <point x="851" y="468"/>
      <point x="809" y="344"/>
      <point x="730" y="248" type="curve"/>
      <point x="656" y="326"/>
      <point x="569" y="357"/>
      <point x="470" y="357" type="curve" smooth="yes"/>
      <point x="362" y="357"/>
      <point x="269" y="323"/>
      <point x="192" y="276" type="curve"/>
      <point x="175" y="313"/>
      <point x="169" y="347"/>
      <point x="169" y="394" type="curve" smooth="yes"/>
      <point x="169" y="568"/>
      <point x="255" y="823"/>
      <point x="435" y="860" type="curve" smooth="yes"/>
      <point x="444" y="862"/>
      <point x="448" y="877"/>
      <point x="435" y="926" type="curve" smooth="yes"/>
      <point x="422" y="975"/>
      <point x="411" y="973"/>
      <point x="394" y="966" type="curve" smooth="yes"/>
      <point x="176" y="878"/>
      <point x="62" y="592"/>
      <point x="62" y="368" type="curve" smooth="yes"/>
      <point x="62" y="128"/>
      <point x="214" y="-17"/>
      <point x="428" y="-17" type="curve" smooth="yes" name="hr01"/>
      <point x="537" y="-17"/>
      <point x="619" y="6"/>
      <point x="704" y="71" type="curve"/>
      <point x="711" y="38"/>
      <point x="714" y="11"/>
      <point x="714" y="-26" type="curve" smooth="yes"/>
      <point x="714" y="-253"/>
      <point x="553" y="-531"/>
      <point x="335" y="-531" type="curve" smooth="yes"/>
      <point x="277" y="-531"/>
      <point x="250" y="-529"/>
      <point x="213" y="-522" type="curve"/>
      <point x="264" y="-510"/>
      <point x="311" y="-450"/>
      <point x="311" y="-387" type="curve" smooth="yes"/>
      <point x="311" y="-307"/>
      <point x="245" y="-258"/>
      <point x="165" y="-258" type="curve" smooth="yes"/>
      <point x="73" y="-258"/>
      <point x="4" y="-327"/>
      <point x="4" y="-416" type="curve" smooth="yes"/>
      <point x="4" y="-512"/>
      <point x="104" y="-610"/>
    </contour>
    <contour>
      <point x="147" y="-493" type="curve" smooth="yes"/>
      <point x="115" y="-493"/>
      <point x="71" y="-465"/>
      <point x="71" y="-415" type="curve" smooth="yes"/>
      <point x="71" y="-359"/>
      <point x="108" y="-318"/>
      <point x="166" y="-318" type="curve" smooth="yes"/>
      <point x="212" y="-318"/>
      <point x="246" y="-347"/>
      <point x="246" y="-392" type="curve" smooth="yes"/>
      <point x="246" y="-446"/>
      <point x="203" y="-493"/>
    </contour>
    <contour>
      <point x="434" y="117" type="curve" smooth="yes"/>
      <point x="356" y="117"/>
      <point x="278" y="150"/>
      <point x="238" y="199" type="curve"/>
      <point x="294" y="250"/>
      <point x="384" y="276"/>
      <point x="465" y="276" type="curve" smooth="yes"/>
      <point x="556" y="276"/>
      <point x="618" y="231"/>
      <point x="657" y="179" type="curve"/>
      <point x="588" y="129"/>
      <point x="509" y="117"/>
    </contour>
  </outline>
</glyph>
<glyph name="uni19DA" format="2">
  <advance width="1006"/>
  <unicode hex="19DA"/>
  <outline>
    <contour>
      <point x="372" y="-17" type="curve" smooth="yes"/>
      <point x="518" y="-17"/>
      <point x="601" y="48"/>
      <point x="656" y="119" type="curve" smooth="yes"/>
      <point x="671" y="138"/>
      <point x="669" y="147"/>
      <point x="625" y="180" type="curve" smooth="yes"/>
      <point x="578" y="215"/>
      <point x="567" y="212"/>
      <point x="556" y="193" type="curve" smooth="yes"/>
      <point x="534" y="154"/>
      <point x="477" y="64"/>
      <point x="375" y="64" type="curve" smooth="yes"/>
      <point x="268" y="64"/>
      <point x="190" y="161"/>
      <point x="190" y="344" type="curve" smooth="yes"/>
      <point x="190" y="534"/>
      <point x="304" y="887"/>
      <point x="530" y="887" type="curve" smooth="yes"/>
      <point x="730" y="887"/>
      <point x="754" y="683"/>
      <point x="738" y="533" type="curve" smooth="yes"/>
      <point x="736" y="512"/>
      <point x="754" y="509"/>
      <point x="799" y="519" type="curve" smooth="yes"/>
      <point x="845" y="530"/>
      <point x="852" y="538"/>
      <point x="866" y="557" type="curve" smooth="yes"/>
      <point x="1027" y="786"/>
      <point x="1148" y="1002"/>
      <point x="1240" y="1289" type="curve" smooth="yes"/>
      <point x="1247" y="1311"/>
      <point x="1238" y="1321"/>
      <point x="1185" y="1335" type="curve" smooth="yes"/>
      <point x="1132" y="1349"/>
      <point x="1120" y="1341"/>
      <point x="1117" y="1327" type="curve" smooth="yes"/>
      <point x="1068" y="1134"/>
      <point x="995" y="901"/>
      <point x="859" y="687" type="curve"/>
      <point x="821" y="890"/>
      <point x="708" y="968"/>
      <point x="520" y="968" type="curve" smooth="yes"/>
      <point x="221" y="968"/>
      <point x="59" y="625"/>
      <point x="59" y="367" type="curve" smooth="yes"/>
      <point x="59" y="152"/>
      <point x="155" y="-17"/>
    </contour>
  </outline>
</glyph>
<glyph name="figuredash" format="2">
  <advance width="757"/>
  <unicode hex="2012"/>
  <outline>
    <contour>
      <point x="700" y="497" type="curve"/>
      <point x="681" y="519" type="line"/>
      <point x="79" y="519" type="line"/>
      <point x="64" y="495"/>
      <point x="48" y="467"/>
      <point x="39" y="440" type="curve"/>
      <point x="56" y="418" type="line"/>
      <point x="663" y="418" type="line"/>
      <point x="674" y="438"/>
      <point x="690" y="471"/>
    </contour>
  </outline>
</glyph>
<glyph name="horizontalbar" format="2">
  <advance width="1690"/>
  <unicode hex="2015"/>
  <outline>
    <contour>
      <point x="1633" y="501" type="curve"/>
      <point x="1618" y="523" type="line"/>
      <point x="77" y="523" type="line"/>
      <point x="63" y="499"/>
      <point x="48" y="467"/>
      <point x="39" y="440" type="curve"/>
      <point x="57" y="418" type="line"/>
      <point x="1598" y="418" type="line"/>
      <point x="1609" y="438"/>
      <point x="1625" y="474"/>
    </contour>
  </outline>
</glyph>
<glyph name="quotesinglbase" format="2">
  <advance width="427"/>
  <unicode hex="201A"/>
  <outline>
    <contour>
      <point x="262" y="103" type="curve"/>
      <point x="262" y="149"/>
      <point x="241" y="179"/>
      <point x="208" y="201" type="curve"/>
      <point x="169" y="203"/>
      <point x="43" y="147"/>
      <point x="16" y="118" type="curve"/>
      <point x="24" y="77" type="line"/>
      <point x="86" y="77"/>
      <point x="120" y="45"/>
      <point x="120" y="0" type="curve" smooth="yes"/>
      <point x="120" y="-66"/>
      <point x="54" y="-156"/>
      <point x="11" y="-199" type="curve"/>
      <point x="43" y="-231" type="line"/>
      <point x="139" y="-160"/>
      <point x="262" y="-24"/>
    </contour>
  </outline>
</glyph>
<glyph name="quotedblleft" format="2">
  <advance width="760"/>
  <unicode hex="201C"/>
  <outline>
    <contour>
      <point x="627" y="805" type="curve" smooth="yes"/>
      <point x="699" y="805"/>
      <point x="743" y="876"/>
      <point x="743" y="942" type="curve" smooth="yes"/>
      <point x="743" y="997"/>
      <point x="715" y="1046"/>
      <point x="677" y="1046" type="curve" smooth="yes"/>
      <point x="652" y="1046"/>
      <point x="627" y="1018"/>
      <point x="617" y="1018" type="curve" smooth="yes"/>
      <point x="611" y="1018"/>
      <point x="605" y="1030"/>
      <point x="605" y="1046" type="curve" smooth="yes"/>
      <point x="605" y="1052"/>
      <point x="605" y="1059"/>
      <point x="606" y="1065" type="curve" smooth="yes"/>
      <point x="647" y="1274"/>
      <point x="835" y="1407"/>
      <point x="833" y="1426" type="curve" smooth="yes"/>
      <point x="831" y="1452"/>
      <point x="590" y="1289"/>
      <point x="541" y="1036" type="curve" smooth="yes"/>
      <point x="535" y="1006"/>
      <point x="533" y="976"/>
      <point x="533" y="948" type="curve" smooth="yes"/>
      <point x="533" y="869"/>
      <point x="561" y="805"/>
    </contour>
    <contour>
      <point x="282" y="805" type="curve" smooth="yes"/>
      <point x="354" y="805"/>
      <point x="398" y="876"/>
      <point x="398" y="942" type="curve" smooth="yes"/>
      <point x="398" y="997"/>
      <point x="370" y="1046"/>
      <point x="332" y="1046" type="curve" smooth="yes"/>
      <point x="307" y="1046"/>
      <point x="282" y="1018"/>
      <point x="272" y="1018" type="curve" smooth="yes"/>
      <point x="266" y="1018"/>
      <point x="260" y="1030"/>
      <point x="260" y="1046" type="curve" smooth="yes"/>
      <point x="260" y="1052"/>
      <point x="260" y="1059"/>
      <point x="261" y="1065" type="curve" smooth="yes"/>
      <point x="302" y="1274"/>
      <point x="490" y="1407"/>
      <point x="488" y="1426" type="curve" smooth="yes"/>
      <point x="486" y="1452"/>
      <point x="245" y="1289"/>
      <point x="196" y="1036" type="curve" smooth="yes"/>
      <point x="190" y="1006"/>
      <point x="188" y="976"/>
      <point x="188" y="948" type="curve" smooth="yes"/>
      <point x="188" y="869"/>
      <point x="216" y="805"/>
    </contour>
  </outline>
</glyph>
<glyph name="dagger" format="2">
  <advance width="808"/>
  <unicode hex="2020"/>
  <outline>
    <contour>
      <point x="629" y="1338" type="curve"/>
      <point x="597" y="1361" type="line"/>
      <point x="557" y="1344"/>
      <point x="503" y="1316"/>
      <point x="456" y="1286" type="curve"/>
      <point x="474" y="1184"/>
      <point x="469" y="1063"/>
      <point x="452" y="937" type="curve" smooth="yes"/>
      <point x="439" y="841"/>
      <point x="418" y="726"/>
      <point x="379" y="625" type="curve"/>
      <point x="382" y="491"/>
      <point x="370" y="350"/>
      <point x="356" y="230" type="curve" smooth="yes"/>
      <point x="346" y="155"/>
      <point x="329" y="64"/>
      <point x="311" y="-17" type="curve"/>
      <point x="333" y="-36" type="line"/>
      <point x="360" y="-27"/>
      <point x="392" y="-17"/>
      <point x="414" y="0" type="curve"/>
      <point x="419" y="73"/>
      <point x="425" y="159"/>
      <point x="436" y="230" type="curve" smooth="yes"/>
      <point x="453" y="346"/>
      <point x="480" y="490"/>
      <point x="520" y="625" type="curve"/>
      <point x="509" y="725"/>
      <point x="517" y="840"/>
      <point x="532" y="936" type="curve" smooth="yes"/>
      <point x="552" y="1064"/>
      <point x="583" y="1209"/>
    </contour>
    <contour>
      <point x="832" y="1027" type="line"/>
      <point x="714" y="996"/>
      <point x="621" y="984"/>
      <point x="498" y="980" type="curve"/>
      <point x="389" y="983"/>
      <point x="308" y="994"/>
      <point x="228" y="1027" type="curve"/>
      <point x="194" y="980"/>
      <point x="161" y="924"/>
      <point x="140" y="883" type="curve"/>
      <point x="155" y="843" type="line"/>
      <point x="273" y="874"/>
      <point x="367" y="887"/>
      <point x="488" y="891" type="curve"/>
      <point x="599" y="887"/>
      <point x="679" y="876"/>
      <point x="759" y="843" type="curve"/>
      <point x="793" y="890"/>
      <point x="826" y="946"/>
      <point x="847" y="988" type="curve"/>
    </contour>
  </outline>
</glyph>
<glyph name="bullet" format="2">
  <advance width="485"/>
  <unicode hex="2022"/>
  <outline>
    <contour>
      <point x="440" y="655" type="curve"/>
      <point x="440" y="742"/>
      <point x="399" y="814"/>
      <point x="305" y="814" type="curve" smooth="yes"/>
      <point x="152" y="814"/>
      <point x="60" y="652"/>
      <point x="60" y="514" type="curve" smooth="yes"/>
      <point x="60" y="425"/>
      <point x="103" y="357"/>
      <point x="197" y="357" type="curve" smooth="yes"/>
      <point x="354" y="357"/>
      <point x="440" y="517"/>
    </contour>
  </outline>
</glyph>
<glyph name="perthousand" format="2">
  <advance width="1761"/>
  <unicode hex="2030"/>
  <outline>
    <contour>
      <point x="1667" y="346" type="curve"/>
      <point x="1667" y="487"/>
      <point x="1598" y="595"/>
      <point x="1477" y="595" type="curve" smooth="yes"/>
      <point x="1299" y="595"/>
      <point x="1179" y="382"/>
      <point x="1179" y="222" type="curve" smooth="yes"/>
      <point x="1179" y="80"/>
      <point x="1251" y="-28"/>
      <point x="1368" y="-28" type="curve" smooth="yes"/>
      <point x="1546" y="-28"/>
      <point x="1667" y="184"/>
    </contour>
    <contour>
      <point x="589" y="887" type="curve"/>
      <point x="589" y="1028"/>
      <point x="519" y="1136"/>
      <point x="401" y="1136" type="curve" smooth="yes"/>
      <point x="222" y="1136"/>
      <point x="102" y="923"/>
      <point x="102" y="762" type="curve" smooth="yes"/>
      <point x="102" y="621"/>
      <point x="172" y="512"/>
      <point x="289" y="512" type="curve" smooth="yes"/>
      <point x="471" y="512"/>
      <point x="589" y="727"/>
    </contour>
    <contour>
      <point x="1123" y="1107" type="line"/>
      <point x="1100" y="1138" type="line"/>
      <point x="1066" y="1128"/>
      <point x="1015" y="1113"/>
      <point x="981" y="1092" type="curve"/>
      <point x="95" y="0" type="line"/>
      <point x="113" y="-32" type="line"/>
      <point x="143" y="-23"/>
      <point x="210" y="-1"/>
      <point x="235" y="14" type="curve"/>
    </contour>
    <contour>
      <point x="1115" y="346" type="curve"/>
      <point x="1115" y="487"/>
      <point x="1046" y="595"/>
      <point x="925" y="595" type="curve" smooth="yes"/>
      <point x="747" y="595"/>
      <point x="627" y="382"/>
      <point x="627" y="222" type="curve" smooth="yes"/>
      <point x="627" y="80"/>
      <point x="699" y="-28"/>
      <point x="816" y="-28" type="curve" smooth="yes"/>
      <point x="994" y="-28"/>
      <point x="1115" y="184"/>
    </contour>
    <contour>
      <point x="1541" y="356" type="curve"/>
      <point x="1541" y="265"/>
      <point x="1508" y="46"/>
      <point x="1400" y="46" type="curve" smooth="yes"/>
      <point x="1343" y="46"/>
      <point x="1303" y="95"/>
      <point x="1303" y="197" type="curve" smooth="yes"/>
      <point x="1303" y="289"/>
      <point x="1332" y="519"/>
      <point x="1445" y="519" type="curve" smooth="yes"/>
      <point x="1497" y="519"/>
      <point x="1541" y="467"/>
    </contour>
    <contour>
      <point x="465" y="897" type="curve"/>
      <point x="465" y="806"/>
      <point x="431" y="587"/>
      <point x="323" y="587" type="curve" smooth="yes"/>
      <point x="267" y="587"/>
      <point x="226" y="636"/>
      <point x="226" y="738" type="curve" smooth="yes"/>
      <point x="226" y="830"/>
      <point x="253" y="1060"/>
      <point x="367" y="1060" type="curve" smooth="yes"/>
      <point x="422" y="1060"/>
      <point x="465" y="1008"/>
    </contour>
    <contour>
      <point x="989" y="356" type="curve"/>
      <point x="989" y="265"/>
      <point x="956" y="46"/>
      <point x="848" y="46" type="curve" smooth="yes"/>
      <point x="791" y="46"/>
      <point x="751" y="95"/>
      <point x="751" y="197" type="curve" smooth="yes"/>
      <point x="751" y="289"/>
      <point x="780" y="519"/>
      <point x="893" y="519" type="curve" smooth="yes"/>
      <point x="945" y="519"/>
      <point x="989" y="467"/>
    </contour>
  </outline>
</glyph>
<glyph name="fraction" format="2">
  <advance width="757"/>
  <unicode hex="2044"/>
  <outline>
    <contour>
      <point x="837" y="1250" type="line"/>
      <point x="813" y="1276" type="line"/>
      <point x="788" y="1266"/>
      <point x="759" y="1250"/>
      <point x="731" y="1232" type="curve"/>
      <point x="-80" y="-149" type="line"/>
      <point x="-56" y="-178" type="line"/>
      <point x="-26" y="-164"/>
      <point x="-3" y="-153"/>
      <point x="27" y="-134" type="curve"/>
    </contour>
  </outline>
</glyph>
<glyph name="foursuperior" format="2">
  <advance width="529"/>
  <unicode hex="2074"/>
  <anchor x="302" y="496" name="L"/>
  <anchor x="417" y="1308" name="U"/>
  <outline>
    <contour>
      <point x="528" y="799" type="curve"/>
      <point x="513" y="816" type="line"/>
      <point x="452" y="816" type="line"/>
      <point x="518" y="1227" type="line"/>
      <point x="501" y="1246" type="line"/>
      <point x="478" y="1235"/>
      <point x="441" y="1225"/>
      <point x="404" y="1211" type="curve"/>
      <point x="48" y="766" type="line"/>
      <point x="66" y="747" type="line"/>
      <point x="343" y="747" type="line"/>
      <point x="325" y="632" type="line" smooth="yes"/>
      <point x="322" y="619"/>
      <point x="308" y="608"/>
      <point x="207" y="592" type="curve"/>
      <point x="201" y="559" type="line"/>
      <point x="484" y="559" type="line"/>
      <point x="490" y="592" type="line"/>
      <point x="428" y="606"/>
      <point x="421" y="614"/>
      <point x="425" y="625" type="curve"/>
      <point x="443" y="747" type="line"/>
      <point x="475" y="747" type="line"/>
      <point x="493" y="760"/>
      <point x="506" y="776"/>
    </contour>
    <contour>
      <point x="402" y="1115" type="line"/>
      <point x="354" y="815" type="line"/>
      <point x="162" y="815" type="line"/>
    </contour>
  </outline>
</glyph>
<glyph name="Euro" format="2">
  <advance width="757"/>
  <unicode hex="20AC"/>
  <outline>
    <contour>
      <point x="695" y="194" type="curve"/>
      <point x="690" y="201"/>
      <point x="681" y="230"/>
      <point x="670" y="235" type="curve"/>
      <point x="542" y="122"/>
      <point x="480" y="82"/>
      <point x="412" y="82" type="curve" smooth="yes"/>
      <point x="279" y="82"/>
      <point x="172" y="204"/>
      <point x="219" y="550" type="curve" smooth="yes"/>
      <point x="273" y="948"/>
      <point x="410" y="1035"/>
      <point x="498" y="1035" type="curve" smooth="yes"/>
      <point x="598" y="1035"/>
      <point x="630" y="993"/>
      <point x="678" y="936" type="curve"/>
      <point x="705" y="931" type="line"/>
      <point x="735" y="959"/>
      <point x="806" y="1033"/>
      <point x="795" y="1044" type="curve" smooth="yes"/>
      <point x="745" y="1094"/>
      <point x="691" y="1136"/>
      <point x="582" y="1136" type="curve" smooth="yes"/>
      <point x="334" y="1136"/>
      <point x="141" y="922"/>
      <point x="86" y="516" type="curve" smooth="yes"/>
      <point x="34" y="141"/>
      <point x="157" y="-27"/>
      <point x="336" y="-27" type="curve" smooth="yes"/>
      <point x="459" y="-27"/>
      <point x="540" y="26"/>
    </contour>
    <contour>
      <point x="508" y="491" type="line"/>
      <point x="490" y="512" type="line"/>
      <point x="11" y="512" type="line"/>
      <point x="1" y="493"/>
      <point x="-7" y="470"/>
      <point x="-14" y="451" type="curve"/>
      <point x="0" y="428" type="line"/>
      <point x="479" y="428" type="line"/>
    </contour>
    <contour>
      <point x="561" y="693" type="line"/>
      <point x="542" y="714" type="line"/>
      <point x="63" y="714" type="line"/>
      <point x="54" y="695"/>
      <point x="45" y="672"/>
      <point x="37" y="654" type="curve"/>
      <point x="52" y="631" type="line"/>
      <point x="531" y="631" type="line"/>
    </contour>
  </outline>
</glyph>
<glyph name="minus" format="2">
  <advance width="708"/>
  <unicode hex="2212"/>
  <outline>
    <contour>
      <point x="657" y="548" type="curve"/>
      <point x="641" y="570" type="line"/>
      <point x="102" y="570" type="line"/>
      <point x="89" y="546"/>
      <point x="73" y="511"/>
      <point x="64" y="486" type="curve"/>
      <point x="81" y="464" type="line"/>
      <point x="621" y="464" type="line"/>
      <point x="632" y="484"/>
      <point x="650" y="523"/>
    </contour>
  </outline>
</glyph>
<glyph name="radical" format="2">
  <advance width="980"/>
  <unicode hex="221A"/>
  <outline>
    <contour>
      <point x="1097" y="1276" type="curve"/>
      <point x="1080" y="1299" type="line"/>
      <point x="904" y="1299" type="line"/>
      <point x="466" y="160" type="line"/>
      <point x="271" y="828" type="line"/>
      <point x="74" y="828" type="line"/>
      <point x="60" y="804"/>
      <point x="46" y="773"/>
      <point x="37" y="748" type="curve"/>
      <point x="54" y="724" type="line"/>
      <point x="165" y="724" type="line"/>
      <point x="384" y="-35" type="line"/>
      <point x="413" y="-29"/>
      <point x="480" y="-9"/>
      <point x="505" y="44" type="curve"/>
      <point x="942" y="1196" type="line"/>
      <point x="1063" y="1196" type="line"/>
      <point x="1071" y="1219"/>
      <point x="1088" y="1252"/>
    </contour>
  </outline>
</glyph>
<glyph name="approxequal" format="2">
  <advance width="772"/>
  <unicode hex="2248"/>
  <outline>
    <contour>
      <point x="745" y="699" type="curve"/>
      <point x="707" y="751" type="line"/>
      <point x="667" y="701"/>
      <point x="609" y="658"/>
      <point x="559" y="658" type="curve" smooth="yes"/>
      <point x="490" y="658"/>
      <point x="395" y="747"/>
      <point x="297" y="747" type="curve" smooth="yes"/>
      <point x="221" y="747"/>
      <point x="149" y="698"/>
      <point x="80" y="599" type="curve"/>
      <point x="116" y="550" type="line"/>
      <point x="172" y="608"/>
      <point x="213" y="641"/>
      <point x="264" y="641" type="curve" smooth="yes"/>
      <point x="352" y="641"/>
      <point x="437" y="552"/>
      <point x="528" y="552" type="curve" smooth="yes"/>
      <point x="603" y="552"/>
      <point x="676" y="601"/>
    </contour>
    <contour>
      <point x="710" y="437" type="curve"/>
      <point x="672" y="489" type="line"/>
      <point x="632" y="439"/>
      <point x="575" y="396"/>
      <point x="525" y="396" type="curve" smooth="yes"/>
      <point x="456" y="396"/>
      <point x="360" y="484"/>
      <point x="262" y="484" type="curve" smooth="yes"/>
      <point x="186" y="484"/>
      <point x="114" y="436"/>
      <point x="46" y="338" type="curve"/>
      <point x="81" y="288" type="line"/>
      <point x="138" y="345"/>
      <point x="178" y="379"/>
      <point x="229" y="379" type="curve" smooth="yes"/>
      <point x="317" y="379"/>
      <point x="402" y="291"/>
      <point x="493" y="291" type="curve" smooth="yes"/>
      <point x="569" y="291"/>
      <point x="641" y="339"/>
    </contour>
  </outline>
</glyph>
<glyph name="greaterequal" format="2">
  <advance width="772"/>
  <unicode hex="2265"/>
  <outline>
    <contour>
      <point x="202" y="937" type="line"/>
      <point x="164" y="914"/>
      <point x="155" y="905"/>
      <point x="126" y="881" type="curve"/>
      <point x="137" y="847" type="line"/>
      <point x="581" y="654" type="line"/>
      <point x="85" y="462" type="line"/>
      <point x="74" y="439"/>
      <point x="61" y="392"/>
      <point x="51" y="368" type="curve"/>
      <point x="69" y="345" type="line"/>
      <point x="710" y="598" type="line"/>
      <point x="724" y="623"/>
      <point x="736" y="656"/>
      <point x="745" y="685" type="curve"/>
      <point x="724" y="709" type="line"/>
    </contour>
    <contour>
      <point x="684" y="272" type="curve"/>
      <point x="667" y="294" type="line"/>
      <point x="65" y="294" type="line"/>
      <point x="52" y="270"/>
      <point x="36" y="235"/>
      <point x="27" y="210" type="curve"/>
      <point x="45" y="188" type="line"/>
      <point x="648" y="188" type="line"/>
      <point x="659" y="208"/>
      <point x="677" y="247"/>
    </contour>
  </outline>
</glyph>
<glyph name="uni3001" format="2">
  <advance width="1100"/>
  <unicode hex="3001"/>
  <outline>
    <contour>
      <point x="416" y="-20" type="curve" smooth="yes"/>
      <point x="490" y="-20"/>
      <point x="520" y="25"/>
      <point x="520" y="92" type="curve" smooth="yes"/>
      <point x="520" y="144"/>
      <point x="497" y="205"/>
      <point x="451" y="274" type="curve" smooth="yes"/>
      <point x="401" y="349"/>
      <point x="271" y="436"/>
      <point x="201" y="436" type="curve" smooth="yes"/>
      <point x="186" y="436"/>
      <point x="182" y="431"/>
      <point x="182" y="423" type="curve" smooth="yes"/>
      <point x="182" y="419"/>
      <point x="185" y="415"/>
      <point x="190" y="412" type="curve" smooth="yes"/>
      <point x="296" y="338"/>
      <point x="356" y="249"/>
      <point x="356" y="93" type="curve" smooth="yes"/>
      <point x="359" y="-5"/>
      <point x="373" y="-20"/>
    </contour>
  </outline>
</glyph>
<glyph name="uni3009" format="2">
  <advance width="1100"/>
  <unicode hex="3009"/>
  <outline>
    <contour>
      <point x="151" y="-13" type="line"/>
      <point x="632" y="677" type="line"/>
      <point x="419" y="1368" type="line"/>
      <point x="360" y="1342" type="line"/>
      <point x="428" y="1120"/>
      <point x="496" y="899"/>
      <point x="564" y="677" type="curve"/>
      <point x="102" y="13" type="line"/>
    </contour>
  </outline>
</glyph>
<glyph name="fi" format="2">
  <advance width="977"/>
  <unicode hex="FB01"/>
  <anchor x="702" y="-92" name="L"/>
  <anchor x="1000" y="800" name="R"/>
  <anchor x="938" y="1508" name="U"/>
  <outline>
    <contour>
      <point x="831" y="1290" type="curve"/>
      <point x="793" y="1303"/>
      <point x="728" y="1398"/>
      <point x="621" y="1398" type="curve" smooth="yes"/>
      <point x="545" y="1398"/>
      <point x="488" y="1360"/>
      <point x="423" y="1312" type="curve" smooth="yes"/>
      <point x="267" y="1196"/>
      <point x="235" y="1029"/>
      <point x="210" y="832" type="curve"/>
      <point x="140" y="832" type="line"/>
      <point x="47" y="778" type="line"/>
      <point x="61" y="749" type="line"/>
      <point x="201" y="749" type="line"/>
      <point x="129" y="127" type="line"/>
      <point x="107" y="-73"/>
      <point x="30" y="-320"/>
      <point x="-92" y="-388" type="curve"/>
      <point x="-68" y="-446" type="line"/>
      <point x="113" y="-335"/>
      <point x="239" y="-92"/>
      <point x="271" y="177" type="curve"/>
      <point x="337" y="749" type="line"/>
      <point x="581" y="749" type="line" smooth="yes"/>
      <point x="667" y="749"/>
      <point x="704" y="742"/>
      <point x="719" y="713" type="curve"/>
      <point x="720" y="708"/>
      <point x="720" y="703"/>
      <point x="720" y="699" type="curve" smooth="yes"/>
      <point x="720" y="609"/>
      <point x="628" y="179"/>
      <point x="628" y="69" type="curve" smooth="yes"/>
      <point x="628" y="3"/>
      <point x="655" y="-37"/>
      <point x="696" y="-37" type="curve" smooth="yes"/>
      <point x="750" y="-37"/>
      <point x="816" y="-1"/>
      <point x="931" y="66" type="curve"/>
      <point x="918" y="100" type="line"/>
      <point x="867" y="79"/>
      <point x="837" y="69"/>
      <point x="799" y="69" type="curve" smooth="yes"/>
      <point x="779" y="69"/>
      <point x="771" y="86"/>
      <point x="771" y="124" type="curve" smooth="yes"/>
      <point x="771" y="231"/>
      <point x="867" y="676"/>
      <point x="867" y="783" type="curve" smooth="yes"/>
      <point x="867" y="839"/>
      <point x="853" y="861"/>
      <point x="820" y="861" type="curve" smooth="yes"/>
      <point x="793" y="861"/>
      <point x="710" y="832"/>
      <point x="629" y="832" type="curve" smooth="yes"/>
      <point x="346" y="832" type="line"/>
      <point x="352" y="875" type="line"/>
      <point x="368" y="1032"/>
      <point x="411" y="1303"/>
      <point x="549" y="1303" type="curve" smooth="yes"/>
      <point x="619" y="1303"/>
      <point x="646" y="1200"/>
      <point x="678" y="1200" type="curve" smooth="yes"/>
      <point x="709" y="1200"/>
      <point x="779" y="1253"/>
    </contour>
    <contour>
      <point x="956" y="1161" type="curve" smooth="yes"/>
      <point x="956" y="1202"/>
      <point x="934" y="1226"/>
      <point x="897" y="1226" type="curve" smooth="yes"/>
      <point x="828" y="1226"/>
      <point x="783" y="1147"/>
      <point x="783" y="1081" type="curve" smooth="yes"/>
      <point x="783" y="1040"/>
      <point x="805" y="1017"/>
      <point x="843" y="1017" type="curve" smooth="yes"/>
      <point x="913" y="1017"/>
      <point x="956" y="1092"/>
    </contour>
  </outline>
</glyph>
<glyph name="uniFF1B" format="2">
  <advance width="1100"/>
  <unicode hex="FF1B"/>
  <outline>
    <contour>
      <point x="89" y="-191" type="curve" smooth="yes"/>
      <point x="124" y="-191"/>
      <point x="386" y="23"/>
      <point x="386" y="301" type="curve" smooth="yes"/>
      <point x="386" y="376"/>
      <point x="362" y="435"/>
      <point x="296" y="435" type="curve" smooth="yes"/>
      <point x="225" y="435"/>
      <point x="174" y="354"/>
      <point x="174" y="286" type="curve" smooth="yes"/>
      <point x="174" y="234"/>
      <point x="200" y="193"/>
      <point x="238" y="193" type="curve" smooth="yes"/>
      <point x="263" y="193"/>
      <point x="292" y="222"/>
      <point x="302" y="222" type="curve" smooth="yes"/>
      <point x="308" y="222"/>
      <point x="314" y="207"/>
      <point x="314" y="189" type="curve" smooth="yes"/>
      <point x="314" y="184"/>
      <point x="314" y="179"/>
      <point x="313" y="175" type="curve" smooth="yes"/>
      <point x="272" y="-34"/>
      <point x="85" y="-168"/>
      <point x="85" y="-187" type="curve" smooth="yes"/>
      <point x="85" y="-189"/>
      <point x="86" y="-191"/>
    </contour>
    <contour>
      <point x="374" y="793" type="curve" smooth="yes"/>
      <point x="443" y="793"/>
      <point x="494" y="882"/>
      <point x="494" y="951" type="curve" smooth="yes"/>
      <point x="494" y="1008"/>
      <point x="460" y="1041"/>
      <point x="422" y="1041" type="curve" smooth="yes"/>
      <point x="348" y="1041"/>
      <point x="303" y="963"/>
      <point x="303" y="884" type="curve" smooth="yes"/>
      <point x="303" y="829"/>
      <point x="331" y="793"/>
    </contour>
  </outline>
</glyph>
<glyph name="uniFF1F" format="2">
  <advance width="1100"/>
  <unicode hex="FF1F"/>
  <outline>
    <contour>
      <point x="529" y="264" type="curve" smooth="yes"/>
      <point x="576" y="264"/>
      <point x="581" y="276"/>
      <point x="583" y="288" type="curve" smooth="yes"/>
      <point x="587" y="315"/>
      <point x="629" y="557"/>
      <point x="647" y="574" type="curve" smooth="yes"/>
      <point x="653" y="579"/>
      <point x="1001" y="681"/>
      <point x="1001" y="1011" type="curve" smooth="yes"/>
      <point x="1001" y="1170"/>
      <point x="879" y="1259"/>
      <point x="741" y="1259" type="curve" smooth="yes"/>
      <point x="525" y="1259"/>
      <point x="403" y="1125"/>
      <point x="335" y="1049" type="curve" smooth="yes"/>
      <point x="330" y="1044"/>
      <point x="327" y="1039"/>
      <point x="327" y="1033" type="curve" smooth="yes"/>
      <point x="327" y="1007"/>
      <point x="404" y="954"/>
      <point x="429" y="955" type="curve" smooth="yes"/>
      <point x="438" y="955"/>
      <point x="447" y="959"/>
      <point x="453" y="971" type="curve" smooth="yes"/>
      <point x="504" y="1069"/>
      <point x="601" y="1172"/>
      <point x="720" y="1172" type="curve" smooth="yes"/>
      <point x="794" y="1172"/>
      <point x="864" y="1103"/>
      <point x="864" y="990" type="curve" smooth="yes"/>
      <point x="864" y="724"/>
      <point x="559" y="638"/>
      <point x="554" y="632" type="curve" smooth="yes"/>
      <point x="537" y="613"/>
      <point x="469" y="315"/>
      <point x="469" y="286" type="curve" smooth="yes"/>
      <point x="469" y="269"/>
      <point x="477" y="264"/>
    </contour>
    <contour>
      <point x="473" y="-22" type="curve" smooth="yes"/>
      <point x="528" y="-22"/>
      <point x="580" y="31"/>
      <point x="580" y="93" type="curve" smooth="yes"/>
      <point x="580" y="142"/>
      <point x="550" y="167"/>
      <point x="505" y="167" type="curve" smooth="yes"/>
      <point x="450" y="167"/>
      <point x="404" y="102"/>
      <point x="404" y="49" type="curve" smooth="yes"/>
      <point x="404" y="9"/>
      <point x="431" y="-22"/>
    </contour>
  </outline>
</glyph>
<glyph name="CombAcute.LP" format="2">
  <anchor x="-284" y="1214" name="U"/>
  <anchor x="-324" y="920" name="_U"/>
  <outline>
    <contour>
      <point x="-14" y="1211" type="line"/>
      <point x="-30" y="1230"/>
      <point x="-82" y="1262"/>
      <point x="-103" y="1276" type="curve"/>
      <point x="-463" y="987" type="line"/>
      <point x="-452" y="962"/>
      <point x="-450" y="954"/>
      <point x="-433" y="943" type="curve"/>
      <point x="-14" y="1168" type="line"/>
    </contour>
  </outline>
</glyph>
<glyph name="CombAcute" format="2">
  <anchor x="-277" y="1260" name="U"/>
  <anchor x="-324" y="920" name="_U"/>
  <outline>
    <contour>
      <point x="-21" y="1305" type="line"/>
      <point x="-41" y="1317"/>
      <point x="-101" y="1335"/>
      <point x="-125" y="1342" type="curve"/>
      <point x="-375" y="976" type="line"/>
      <point x="-358" y="954"/>
      <point x="-353" y="948"/>
      <point x="-333" y="943" type="curve"/>
      <point x="-7" y="1264" type="line"/>
    </contour>
  </outline>
</glyph>
<glyph name="CombCaron.LP" format="2">
  <anchor x="-283" y="1240" name="U"/>
  <anchor x="-328" y="920" name="_U"/>
  <outline>
    <contour>
      <point x="-27" y="1242" type="line"/>
      <point x="-38" y="1265"/>
      <point x="-42" y="1271"/>
      <point x="-57" y="1284" type="curve"/>
      <point x="-302" y="1096" type="line"/>
      <point x="-500" y="1284" type="line"/>
      <point x="-518" y="1269"/>
      <point x="-524" y="1265"/>
      <point x="-541" y="1242" type="curve"/>
      <point x="-364" y="966" type="line"/>
      <point x="-279" y="966" type="line"/>
    </contour>
  </outline>
</glyph>
<glyph name="CombCircum.LP" format="2">
  <anchor x="-269" y="1301" name="U"/>
  <anchor x="-323" y="920" name="_U"/>
  <outline>
    <contour>
      <point x="-58" y="985" type="curve"/>
      <point x="-235" y="1262" type="line"/>
      <point x="-320" y="1262" type="line"/>
      <point x="-573" y="985" type="line"/>
      <point x="-561" y="960"/>
      <point x="-553" y="951"/>
      <point x="-542" y="943" type="curve"/>
      <point x="-298" y="1132" type="line"/>
      <point x="-100" y="943" type="line"/>
      <point x="-80" y="953"/>
      <point x="-75" y="960"/>
    </contour>
  </outline>
</glyph>
<glyph name="CombCircum" format="2">
  <anchor x="-256" y="1370" name="U"/>
  <anchor x="-323" y="920" name="_U"/>
  <outline>
    <contour>
      <point x="-56" y="985" type="curve"/>
      <point x="-224" y="1326" type="line"/>
      <point x="-309" y="1326" type="line"/>
      <point x="-570" y="985" type="line"/>
      <point x="-558" y="960"/>
      <point x="-551" y="951"/>
      <point x="-540" y="943" type="curve"/>
      <point x="-288" y="1187" type="line"/>
      <point x="-97" y="943" type="line"/>
      <point x="-78" y="953"/>
      <point x="-72" y="960"/>
    </contour>
  </outline>
</glyph>
<glyph name="CombDiaer.LP" format="2">
  <anchor x="-286" y="1214" name="U"/>
  <anchor x="-326" y="920" name="_U"/>
  <outline>
    <contour>
      <point x="-43" y="1130" type="curve"/>
      <point x="-43" y="1172"/>
      <point x="-68" y="1196"/>
      <point x="-105" y="1196" type="curve" smooth="yes"/>
      <point x="-175" y="1196"/>
      <point x="-220" y="1116"/>
      <point x="-220" y="1051" type="curve" smooth="yes"/>
      <point x="-220" y="1010"/>
      <point x="-197" y="987"/>
      <point x="-160" y="987" type="curve" smooth="yes"/>
      <point x="-89" y="987"/>
      <point x="-43" y="1062"/>
    </contour>
    <contour>
      <point x="-386" y="1130" type="curve"/>
      <point x="-386" y="1172"/>
      <point x="-409" y="1196"/>
      <point x="-447" y="1196" type="curve" smooth="yes"/>
      <point x="-516" y="1196"/>
      <point x="-563" y="1116"/>
      <point x="-563" y="1051" type="curve" smooth="yes"/>
      <point x="-563" y="1010"/>
      <point x="-540" y="987"/>
      <point x="-501" y="987" type="curve" smooth="yes"/>
      <point x="-431" y="987"/>
      <point x="-386" y="1062"/>
    </contour>
  </outline>
</glyph>
<glyph name="CombDiaer" format="2">
  <anchor x="-278" y="1260" name="U"/>
  <anchor x="-326" y="920" name="_U"/>
  <outline>
    <contour>
      <point x="-38" y="1161" type="curve"/>
      <point x="-38" y="1202"/>
      <point x="-63" y="1226"/>
      <point x="-101" y="1226" type="curve" smooth="yes"/>
      <point x="-171" y="1226"/>
      <point x="-216" y="1147"/>
      <point x="-216" y="1081" type="curve" smooth="yes"/>
      <point x="-216" y="1040"/>
      <point x="-193" y="1017"/>
      <point x="-155" y="1017" type="curve" smooth="yes"/>
      <point x="-84" y="1017"/>
      <point x="-38" y="1092"/>
    </contour>
    <contour>
      <point x="-381" y="1161" type="curve"/>
      <point x="-381" y="1202"/>
      <point x="-404" y="1226"/>
      <point x="-442" y="1226" type="curve" smooth="yes"/>
      <point x="-511" y="1226"/>
      <point x="-559" y="1147"/>
      <point x="-559" y="1081" type="curve" smooth="yes"/>
      <point x="-559" y="1040"/>
      <point x="-536" y="1017"/>
      <point x="-496" y="1017" type="curve" smooth="yes"/>
      <point x="-426" y="1017"/>
      <point x="-381" y="1092"/>
    </contour>
  </outline>
</glyph>
<glyph name="CombGrave.LP" format="2">
  <anchor x="-213" y="1214" name="U"/>
  <anchor x="-253" y="920" name="_U"/>
  <outline>
    <contour>
      <point x="-114" y="987" type="curve"/>
      <point x="-402" y="1276" type="line"/>
      <point x="-430" y="1262"/>
      <point x="-492" y="1230"/>
      <point x="-515" y="1211" type="curve"/>
      <point x="-526" y="1168" type="line"/>
      <point x="-157" y="943" type="line"/>
      <point x="-138" y="954"/>
      <point x="-130" y="962"/>
    </contour>
  </outline>
</glyph>
<glyph name="CombGrave" format="2">
  <anchor x="-207" y="1260" name="U"/>
  <anchor x="-253" y="920" name="_U"/>
  <outline>
    <contour>
      <point x="-188" y="963" type="curve"/>
      <point x="-316" y="1342" type="line"/>
      <point x="-347" y="1342"/>
      <point x="-416" y="1337"/>
      <point x="-446" y="1332" type="curve"/>
      <point x="-475" y="1299" type="line"/>
      <point x="-245" y="943" type="line"/>
      <point x="-223" y="944"/>
      <point x="-213" y="948"/>
    </contour>
  </outline>
</glyph>
<glyph name="CombTilde" format="2">
  <anchor x="-281" y="1244" name="U"/>
  <anchor x="-326" y="920" name="_U"/>
  <outline>
    <contour>
      <point x="-3" y="1219" type="curve"/>
      <point x="-45" y="1238" type="line"/>
      <point x="-91" y="1170"/>
      <point x="-139" y="1128"/>
      <point x="-183" y="1128" type="curve" smooth="yes"/>
      <point x="-233" y="1128"/>
      <point x="-285" y="1229"/>
      <point x="-366" y="1229" type="curve" smooth="yes"/>
      <point x="-460" y="1229"/>
      <point x="-542" y="1123"/>
      <point x="-593" y="1025" type="curve"/>
      <point x="-553" y="1006" type="line"/>
      <point x="-503" y="1074"/>
      <point x="-460" y="1115"/>
      <point x="-416" y="1115" type="curve" smooth="yes"/>
      <point x="-352" y="1115"/>
      <point x="-307" y="1015"/>
      <point x="-230" y="1015" type="curve" smooth="yes"/>
      <point x="-134" y="1015"/>
      <point x="-55" y="1121"/>
    </contour>
  </outline>
</glyph>
<glyph name="LtnCapEsh" format="2">
  <advance width="944"/>
  <anchor x="426" y="-92" name="L"/>
  <anchor x="590" y="1214" name="U"/>
  <outline>
    <contour>
      <point x="826" y="317" type="curve"/>
      <point x="782" y="328" type="line"/>
      <point x="720" y="167"/>
      <point x="702" y="127"/>
      <point x="632" y="127" type="curve" smooth="yes"/>
      <point x="192" y="127" type="line"/>
      <point x="589" y="620" type="line"/>
      <point x="368" y="1066" type="line"/>
      <point x="757" y="1066" type="line" smooth="yes"/>
      <point x="789" y="1066"/>
      <point x="828" y="1068"/>
      <point x="843" y="885" type="curve"/>
      <point x="891" y="897" type="line"/>
      <point x="926" y="1173" type="line"/>
      <point x="858" y="1159"/>
      <point x="810" y="1159"/>
      <point x="748" y="1159" type="curve" smooth="yes"/>
      <point x="190" y="1159" type="line"/>
      <point x="184" y="1119" type="line"/>
      <point x="454" y="584" type="line"/>
      <point x="16" y="39" type="line"/>
      <point x="37" y="0" type="line"/>
      <point x="760" y="0" type="line"/>
      <point x="774" y="66"/>
      <point x="807" y="218"/>
    </contour>
  </outline>
</glyph>
<glyph name="dailuemodifierfinal" format="2">
  <advance width="1"/>
  <outline>
    <contour>
      <point x="-605" y="-610" type="curve" smooth="yes"/>
      <point x="-482" y="-610"/>
      <point x="-285" y="-452"/>
      <point x="-167" y="167" type="curve" smooth="yes"/>
      <point x="-132" y="350"/>
      <point x="-99" y="550"/>
      <point x="-99" y="550" type="curve"/>
      <point x="-258" y="356" type="line"/>
      <point x="-314" y="-16"/>
      <point x="-397" y="-307"/>
      <point x="-448" y="-408" type="curve"/>
      <point x="-446" y="-349"/>
      <point x="-506" y="-302"/>
      <point x="-577" y="-302" type="curve" smooth="yes"/>
      <point x="-673" y="-302"/>
      <point x="-751" y="-377"/>
      <point x="-749" y="-473" type="curve" smooth="yes"/>
      <point x="-747" y="-551"/>
      <point x="-691" y="-610"/>
    </contour>
    <contour>
      <point x="-606" y="-537" type="curve" smooth="yes"/>
      <point x="-642" y="-537"/>
      <point x="-679" y="-502"/>
      <point x="-681" y="-464" type="curve" smooth="yes"/>
      <point x="-684" y="-408"/>
      <point x="-638" y="-363"/>
      <point x="-583" y="-363" type="curve" smooth="yes"/>
      <point x="-544" y="-363"/>
      <point x="-504" y="-388"/>
      <point x="-503" y="-435" type="curve" smooth="yes"/>
      <point x="-502" y="-495"/>
      <point x="-547" y="-537"/>
    </contour>
  </outline>
</glyph>
